<svg xmlns:xlink="http://www.w3.org/1999/xlink" width="1400" height="966" viewBox="0 0 452.49 312.29" xmlns="http://www.w3.org/2000/svg" version="1.1"><defs><style type="text/css">*{stroke-linejoin: round; stroke-linecap: butt}</style></defs><g id="figure_1"><g id="patch_1"><path d="M 0 312.29 L 452.49 312.29 L 452.49 0 L 0 0 z " style="fill: #ffffff"/></g><g id="axes_1"><g id="patch_2"><path d="M 32.37 254.78 L 445.29 254.78 L 445.29 21.93 L 32.37 21.93 z " style="fill: #ffffff"/></g><g id="patch_3"><path d="M 229.00 254.78 L 425.63 254.78 L 425.63 150.83 L 229.00 150.83 z " clip-path="url(#p6381349161)" style="fill: #dce8ee"/></g><g id="matplotlib.axis_1"><g id="xtick_1"><g id="line2d_1"><defs><path id="mb31e375601" d="M 0 0 L 0 3.5 " style="stroke: #1c2b36; stroke-width: 0.8"/></defs><g><use xlink:href="#mb31e375601" x="32.37" y="254.78" style="fill: #1c2b36; stroke: #1c2b36; stroke-width: 0.8"/></g></g><g id="text_1"><g style="fill: #1c2b36" transform="translate(29.34 270.34) scale(0.1 -0.1)"><defs><path id="NanumGothic-10" d="M 3066 2374 Q 3066 4384 1965 4384 Q 864 4384 864 2374 Q 864 358 1965 358 Q 3066 358 3066 2374 z M 3526 2374 Q 3526 -45 1965 -45 Q 390 -45 390 2374 Q 390 3379 698 4006 Q 1088 4794 1965 4794 Q 2829 4794 3226 4006 Q 3373 3693 3449 3289 Q 3526 2886 3526 2374 z " transform="scale(0.01)"/></defs><use xlink:href="#NanumGothic-10"/></g></g></g><g id="xtick_2"><g id="line2d_2"><g><use xlink:href="#mb31e375601" x="81.53" y="254.78" style="fill: #1c2b36; stroke: #1c2b36; stroke-width: 0.8"/></g></g><g id="text_2"><g style="fill: #1c2b36" transform="translate(78.50 270.34) scale(0.1 -0.1)"><defs><path id="NanumGothic-11" d="M 2362 70 Q 2362 -19 2272 -19 L 2010 -19 Q 1920 -19 1920 70 L 1920 4230 Q 1722 4064 1549 3917 Q 1376 3770 1184 3603 Q 1114 3546 1056 3616 L 928 3770 Q 909 3802 909 3837 Q 909 3872 941 3898 L 1933 4730 Q 1958 4755 2010 4755 L 2182 4755 Q 2317 4755 2339 4732 Q 2362 4710 2362 4576 L 2362 70 z " transform="scale(0.01)"/></defs><use xlink:href="#NanumGothic-11"/></g></g></g><g id="xtick_3"><g id="line2d_3"><g><use xlink:href="#mb31e375601" x="130.69" y="254.78" style="fill: #1c2b36; stroke: #1c2b36; stroke-width: 0.8"/></g></g><g id="text_3"><g style="fill: #1c2b36" transform="translate(127.66 270.34) scale(0.1 -0.1)"><defs><path id="NanumGothic-12" d="M 576 -19 Q 506 -19 470 -16 Q 435 -13 419 3 Q 403 19 400 54 Q 397 90 397 160 L 403 301 Q 403 384 454 435 L 1510 1600 Q 2688 2874 2688 3533 Q 2688 3917 2432 4173 Q 2182 4422 1811 4422 Q 1293 4422 730 4134 Q 640 4090 627 4173 L 589 4384 Q 570 4493 653 4518 Q 979 4666 1241 4736 Q 1504 4806 1779 4806 Q 2394 4806 2758 4499 Q 3168 4166 3168 3552 Q 3168 3315 3053 3033 Q 2938 2752 2733 2445 Q 2605 2266 2371 1978 Q 2138 1690 1837 1363 Q 1613 1120 1392 870 Q 1171 621 947 378 L 3187 378 Q 3277 378 3277 288 L 3277 70 Q 3277 -19 3187 -19 L 576 -19 z " transform="scale(0.01)"/></defs><use xlink:href="#NanumGothic-12"/></g></g></g><g id="xtick_4"><g id="line2d_4"><g><use xlink:href="#mb31e375601" x="179.84" y="254.78" style="fill: #1c2b36; stroke: #1c2b36; stroke-width: 0.8"/></g></g><g id="text_4"><g style="fill: #1c2b36" transform="translate(176.81 270.34) scale(0.1 -0.1)"><defs><path id="NanumGothic-13" d="M 493 90 Q 397 115 410 237 L 435 486 Q 448 563 538 525 Q 806 416 1046 371 Q 1286 326 1606 320 Q 2112 314 2458 576 Q 2861 845 2861 1363 Q 2861 2272 1498 2272 L 1165 2272 Q 1082 2272 1082 2342 L 1082 2579 Q 1082 2662 1165 2662 L 1197 2662 Q 1882 2662 2266 2810 Q 2848 3034 2848 3616 Q 2848 3802 2749 3958 Q 2650 4115 2483 4224 Q 2330 4314 2138 4365 Q 1946 4416 1734 4416 Q 1517 4416 1254 4358 Q 992 4301 749 4205 Q 666 4173 653 4256 L 627 4493 Q 608 4582 710 4621 Q 998 4717 1248 4761 Q 1498 4806 1779 4806 Q 2426 4806 2835 4531 Q 3302 4218 3302 3616 Q 3302 3187 2995 2874 Q 2739 2598 2330 2470 Q 2534 2445 2710 2361 Q 2886 2278 3014 2131 Q 3162 1971 3238 1769 Q 3315 1568 3315 1325 Q 3315 1005 3184 745 Q 3053 486 2810 301 Q 2573 128 2265 29 Q 1958 -70 1581 -64 Q 1242 -58 995 -26 Q 749 6 493 90 z " transform="scale(0.01)"/></defs><use xlink:href="#NanumGothic-13"/></g></g></g><g id="xtick_5"><g id="line2d_5"><g><use xlink:href="#mb31e375601" x="229.00" y="254.78" style="fill: #1c2b36; stroke: #1c2b36; stroke-width: 0.8"/></g></g><g id="text_5"><g style="fill: #1c2b36" transform="translate(225.97 270.34) scale(0.1 -0.1)"><defs><path id="NanumGothic-14" d="M 2509 1498 L 2509 4352 Q 2035 3635 1568 2924 Q 1101 2214 621 1498 L 2509 1498 z M 2944 70 Q 2944 -19 2854 -19 L 2598 -19 Q 2509 -19 2509 70 L 2509 1107 L 397 1107 Q 262 1107 240 1129 Q 218 1152 218 1286 L 218 1485 Q 218 1542 224 1561 Q 230 1581 262 1632 L 2304 4678 Q 2342 4736 2358 4745 Q 2374 4755 2445 4755 L 2765 4755 Q 2899 4755 2921 4732 Q 2944 4710 2944 4576 L 2944 1498 L 3578 1498 Q 3667 1498 3667 1408 L 3667 1197 Q 3667 1107 3578 1107 L 2944 1107 L 2944 70 z " transform="scale(0.01)"/></defs><use xlink:href="#NanumGothic-14"/></g></g></g><g id="xtick_6"><g id="line2d_6"><g><use xlink:href="#mb31e375601" x="278.16" y="254.78" style="fill: #1c2b36; stroke: #1c2b36; stroke-width: 0.8"/></g></g><g id="text_6"><g style="fill: #1c2b36" transform="translate(275.13 270.34) scale(0.1 -0.1)"><defs><path id="NanumGothic-15" d="M 736 77 Q 646 109 646 192 L 646 461 Q 646 570 736 525 Q 966 416 1187 371 Q 1408 326 1670 326 Q 2234 326 2586 602 Q 2970 896 2970 1446 Q 2970 2528 1734 2528 Q 1491 2528 1296 2502 Q 1101 2477 864 2413 Q 794 2394 749 2429 Q 704 2464 704 2534 L 742 4576 Q 742 4710 764 4732 Q 787 4755 922 4755 L 3110 4755 Q 3200 4755 3200 4666 L 3200 4454 Q 3200 4365 3110 4365 L 1178 4365 Q 1171 3962 1161 3578 Q 1152 3194 1146 2790 Q 1459 2912 1907 2912 Q 2579 2912 2995 2547 Q 3411 2170 3411 1536 Q 3411 762 2931 339 Q 2470 -64 1670 -64 Q 1382 -64 1171 -32 Q 960 0 736 77 z " transform="scale(0.01)"/></defs><use xlink:href="#NanumGothic-15"/></g></g></g><g id="xtick_7"><g id="line2d_7"><g><use xlink:href="#mb31e375601" x="327.32" y="254.78" style="fill: #1c2b36; stroke: #1c2b36; stroke-width: 0.8"/></g></g><g id="text_7"><g style="fill: #1c2b36" transform="translate(324.29 270.34) scale(0.1 -0.1)"><defs><path id="NanumGothic-16" d="M 3078 1485 Q 3078 2003 2810 2304 Q 2541 2611 2042 2611 Q 1786 2611 1581 2531 Q 1376 2451 1232 2310 Q 1088 2170 1008 1971 Q 928 1773 928 1536 Q 928 1050 1197 717 Q 1491 326 1984 326 Q 2490 326 2797 666 Q 3078 986 3078 1485 z M 3245 4294 Q 3098 4346 2909 4378 Q 2720 4410 2534 4410 Q 1664 4410 1248 3782 Q 896 3258 883 2342 Q 1024 2598 1293 2778 Q 1626 3014 2042 3014 Q 2624 3014 3021 2707 Q 3526 2317 3526 1517 Q 3526 838 3110 390 Q 2688 -64 1971 -64 Q 435 -64 435 2202 Q 435 3386 909 4051 Q 1466 4806 2586 4806 Q 2752 4806 2934 4780 Q 3117 4755 3270 4710 Q 3366 4691 3354 4595 L 3341 4358 Q 3341 4314 3309 4298 Q 3277 4282 3245 4294 z " transform="scale(0.01)"/></defs><use xlink:href="#NanumGothic-16"/></g></g></g><g id="xtick_8"><g id="line2d_8"><g><use xlink:href="#mb31e375601" x="376.47" y="254.78" style="fill: #1c2b36; stroke: #1c2b36; stroke-width: 0.8"/></g></g><g id="text_8"><g style="fill: #1c2b36" transform="translate(373.44 270.34) scale(0.1 -0.1)"><defs><path id="NanumGothic-17" d="M 1549 70 Q 1504 -19 1421 -19 L 1101 -19 Q 1062 -19 1046 6 Q 1030 32 1050 70 L 2912 4365 L 538 4365 Q 448 4365 448 4454 L 448 4666 Q 448 4755 538 4755 L 3194 4755 Q 3328 4755 3350 4732 Q 3373 4710 3373 4576 L 3373 4416 Q 3373 4365 3354 4326 L 1549 70 z " transform="scale(0.01)"/></defs><use xlink:href="#NanumGothic-17"/></g></g></g><g id="xtick_9"><g id="line2d_9"><g><use xlink:href="#mb31e375601" x="425.63" y="254.78" style="fill: #1c2b36; stroke: #1c2b36; stroke-width: 0.8"/></g></g><g id="text_9"><g style="fill: #1c2b36" transform="translate(422.60 270.34) scale(0.1 -0.1)"><defs><path id="NanumGothic-18" d="M 2944 3642 Q 2944 4006 2624 4218 Q 2342 4416 1965 4416 Q 1555 4416 1274 4211 Q 966 4006 966 3642 Q 966 3309 1286 3040 Q 1376 2957 1526 2861 Q 1677 2765 1882 2669 Q 1933 2643 1965 2646 Q 1997 2650 2061 2682 Q 2470 2906 2707 3152 Q 2944 3398 2944 3642 z M 3104 1242 Q 3104 1594 2784 1856 Q 2682 1939 2496 2041 Q 2310 2144 2042 2266 Q 1958 2310 1856 2266 Q 1606 2170 1414 2064 Q 1222 1958 1107 1869 Q 979 1741 899 1571 Q 819 1402 819 1210 Q 819 819 1184 570 Q 1517 320 1965 320 Q 2426 320 2739 538 Q 3104 787 3104 1242 z M 3552 1210 Q 3552 896 3421 646 Q 3290 397 3046 230 Q 2835 90 2560 13 Q 2285 -64 1965 -64 Q 1651 -64 1379 19 Q 1107 102 883 250 Q 640 422 505 668 Q 371 915 371 1210 Q 371 1709 704 2022 Q 960 2266 1491 2464 Q 518 2944 518 3693 Q 518 3962 652 4170 Q 787 4378 1030 4544 Q 1235 4672 1468 4739 Q 1702 4806 1965 4806 Q 2272 4806 2515 4739 Q 2758 4672 2957 4538 Q 3398 4230 3398 3693 Q 3398 3027 2400 2464 Q 2662 2368 2870 2253 Q 3078 2138 3206 2022 Q 3552 1715 3552 1210 z " transform="scale(0.01)"/></defs><use xlink:href="#NanumGothic-18"/></g></g></g><g id="text_10"><g style="fill: #1c2b36" transform="translate(202.28 285.20) scale(0.11 -0.11)"><defs><path id="NanumGothic-809" d="M 3264 4448 Q 3174 4198 3020 3948 Q 2867 3699 2656 3456 Q 2880 3226 3209 3014 Q 3539 2803 3917 2637 Q 3955 2618 3952 2586 Q 3949 2554 3936 2522 L 3808 2298 Q 3789 2266 3763 2253 Q 3738 2240 3680 2272 Q 3539 2336 3376 2425 Q 3213 2515 3040 2630 Q 2867 2746 2697 2880 Q 2528 3014 2381 3162 Q 2010 2797 1565 2493 Q 1120 2189 659 1984 Q 627 1971 595 1964 Q 563 1958 544 1990 L 416 2214 Q 397 2246 413 2281 Q 429 2317 461 2330 Q 1286 2726 1868 3238 Q 2451 3750 2778 4422 Q 2822 4512 2790 4550 Q 2758 4589 2669 4589 L 794 4589 Q 717 4589 717 4672 L 717 4896 Q 717 4973 806 4973 L 2842 4973 Q 3174 4973 3270 4854 Q 3366 4736 3264 4448 z M 1197 1421 Q 1197 1459 1229 1478 Q 1261 1498 1293 1498 L 4442 1498 Q 4595 1498 4691 1478 Q 4787 1459 4838 1404 Q 4890 1350 4909 1257 Q 4928 1165 4928 1011 L 4928 -550 Q 4928 -640 4838 -640 L 4576 -640 Q 4486 -640 4486 -550 L 4486 979 Q 4486 1069 4457 1091 Q 4429 1114 4339 1114 L 1293 1114 Q 1261 1114 1229 1136 Q 1197 1158 1197 1190 L 1197 1421 z M 4928 1952 Q 4928 1862 4838 1862 L 4576 1862 Q 4486 1862 4486 1952 L 4486 5197 Q 4486 5286 4576 5286 L 4838 5286 Q 4928 5286 4928 5197 L 4928 3674 L 5811 3674 Q 5850 3674 5878 3651 Q 5907 3629 5907 3590 L 5907 3373 Q 5907 3341 5878 3315 Q 5850 3290 5811 3290 L 4928 3290 L 4928 1952 z " transform="scale(0.01)"/><path id="NanumGothic-769" d="M 5152 2234 Q 5152 2144 5062 2144 L 4800 2144 Q 4710 2144 4710 2234 L 4710 3501 L 3584 3501 Q 3546 3232 3414 3001 Q 3283 2771 3081 2608 Q 2880 2445 2621 2352 Q 2362 2259 2074 2259 Q 1766 2259 1494 2364 Q 1222 2470 1017 2659 Q 813 2848 694 3110 Q 576 3373 576 3693 Q 576 4032 694 4297 Q 813 4563 1017 4748 Q 1222 4934 1494 5033 Q 1766 5133 2074 5133 Q 2342 5133 2598 5049 Q 2854 4966 3062 4806 Q 3270 4646 3408 4412 Q 3546 4179 3584 3885 L 4710 3885 L 4710 5197 Q 4710 5286 4800 5286 L 5062 5286 Q 5152 5286 5152 5197 L 5152 2234 z M 1990 -563 Q 1837 -563 1744 -544 Q 1651 -525 1600 -470 Q 1549 -416 1529 -329 Q 1510 -243 1510 -109 L 1510 1728 Q 1510 1760 1536 1779 Q 1562 1798 1594 1798 L 1875 1798 Q 1907 1798 1929 1776 Q 1952 1754 1952 1728 L 1952 1050 L 4710 1050 L 4710 1715 Q 4710 1747 4732 1772 Q 4755 1798 4787 1798 L 5069 1798 Q 5101 1798 5126 1776 Q 5152 1754 5152 1722 L 5152 -154 Q 5152 -397 5049 -480 Q 4947 -563 4666 -563 L 1990 -563 z M 3149 3699 Q 3149 3949 3059 4141 Q 2970 4333 2819 4464 Q 2669 4595 2477 4662 Q 2285 4730 2074 4730 Q 1862 4730 1670 4662 Q 1478 4595 1334 4467 Q 1190 4339 1107 4144 Q 1024 3949 1024 3699 Q 1024 3462 1104 3270 Q 1184 3078 1325 2940 Q 1466 2803 1658 2729 Q 1850 2656 2074 2656 Q 2285 2656 2477 2729 Q 2669 2803 2819 2937 Q 2970 3072 3059 3264 Q 3149 3456 3149 3699 z M 1952 666 L 1952 -26 Q 1952 -122 1984 -150 Q 2016 -179 2106 -179 L 4557 -179 Q 4646 -179 4678 -150 Q 4710 -122 4710 -26 L 4710 666 L 1952 666 z " transform="scale(0.01)"/><path id="NanumGothic-6d7" d="M 2406 4870 Q 2406 4448 2371 4061 Q 2336 3674 2259 3315 Q 2323 3059 2457 2774 Q 2592 2490 2774 2208 Q 2957 1926 3184 1660 Q 3411 1395 3667 1184 Q 3699 1158 3702 1120 Q 3706 1082 3686 1056 L 3526 858 Q 3469 787 3392 858 Q 3213 1011 3024 1225 Q 2835 1440 2659 1677 Q 2483 1914 2329 2163 Q 2176 2413 2067 2643 Q 1862 2061 1529 1571 Q 1197 1082 736 659 Q 672 608 627 653 L 435 851 Q 416 870 419 902 Q 422 934 454 966 Q 845 1338 1133 1747 Q 1421 2157 1603 2630 Q 1786 3104 1872 3661 Q 1958 4218 1958 4883 Q 1958 4928 1980 4950 Q 2003 4973 2035 4973 L 2336 4960 Q 2406 4960 2406 4870 z M 5152 -525 Q 5152 -614 5062 -614 L 4800 -614 Q 4710 -614 4710 -525 L 4710 5197 Q 4710 5286 4800 5286 L 5062 5286 Q 5152 5286 5152 5197 L 5152 -525 z " transform="scale(0.01)"/><path id="NanumGothic-1f1" d="M 3290 4480 Q 3130 3546 2480 2813 Q 1830 2080 698 1606 Q 659 1594 617 1594 Q 576 1594 557 1645 L 461 1856 Q 435 1907 457 1939 Q 480 1971 512 1984 Q 979 2176 1372 2438 Q 1766 2701 2064 3008 Q 2362 3315 2554 3660 Q 2746 4006 2810 4371 Q 2848 4550 2656 4550 L 685 4550 Q 608 4550 608 4634 L 608 4858 Q 608 4934 685 4934 L 2803 4934 Q 3110 4934 3219 4825 Q 3328 4717 3290 4480 z M 4928 1088 Q 4928 998 4838 998 L 4576 998 Q 4486 998 4486 1088 L 4486 5197 Q 4486 5286 4576 5286 L 4838 5286 Q 4928 5286 4928 5197 L 4928 3347 L 5811 3347 Q 5850 3347 5878 3324 Q 5907 3302 5907 3264 L 5907 3046 Q 5907 3014 5878 2988 Q 5850 2963 5811 2963 L 4928 2963 L 4928 1088 z M 5216 -422 Q 5216 -461 5184 -480 Q 5152 -499 5120 -499 L 1862 -499 Q 1562 -499 1469 -387 Q 1376 -275 1376 -13 L 1376 1216 Q 1376 1306 1466 1306 L 1728 1306 Q 1818 1306 1818 1216 L 1818 19 Q 1818 -70 1846 -92 Q 1875 -115 1965 -115 L 5120 -115 Q 5152 -115 5184 -137 Q 5216 -160 5216 -192 L 5216 -422 z " transform="scale(0.01)"/><path id="NanumGothic-33f0" transform="scale(0.01)"/><path id="NanumGothic-8" d="M 1984 -851 Q 1939 -851 1929 -848 Q 1920 -845 1894 -813 Q 1312 -83 1030 665 Q 749 1414 749 2214 Q 749 3008 1030 3757 Q 1312 4506 1894 5242 Q 1920 5274 1929 5277 Q 1939 5280 1971 5280 L 2150 5280 Q 2189 5280 2189 5273 Q 2189 5267 2170 5235 Q 1165 3661 1165 2214 Q 1165 1478 1421 729 Q 1677 -19 2176 -806 Q 2208 -851 2144 -851 L 1984 -851 z " transform="scale(0.01)"/><path id="NanumGothic-9" d="M 301 -851 Q 243 -851 275 -806 Q 774 -19 1027 729 Q 1280 1478 1280 2214 Q 1280 2944 1030 3696 Q 781 4448 282 5235 Q 262 5267 262 5273 Q 262 5280 294 5280 L 474 5280 Q 506 5280 515 5277 Q 525 5274 557 5242 Q 1139 4506 1417 3757 Q 1696 3008 1696 2214 Q 1696 1414 1417 665 Q 1139 -83 557 -813 Q 525 -845 515 -848 Q 506 -851 461 -851 L 301 -851 z " transform="scale(0.01)"/></defs><use xlink:href="#NanumGothic-809"/><use xlink:href="#NanumGothic-769" transform="translate(94 0)"/><use xlink:href="#NanumGothic-6d7" transform="translate(188 0)"/><use xlink:href="#NanumGothic-1f1" transform="translate(282 0)"/><use xlink:href="#NanumGothic-33f0" transform="translate(376 0)"/><use xlink:href="#NanumGothic-8" transform="translate(404 0)"/><use xlink:href="#NanumGothic-6d7" transform="translate(440.29 0)"/><use xlink:href="#NanumGothic-1f1" transform="translate(534.29 0)"/><use xlink:href="#NanumGothic-9" transform="translate(628.29 0)"/></g></g></g><g id="matplotlib.axis_2"><g id="ytick_1"><g id="line2d_10"><defs><path id="mb9d5a214bb" d="M 0 0 L -3.5 0 " style="stroke: #1c2b36; stroke-width: 0.8"/></defs><g><use xlink:href="#mb9d5a214bb" x="32.37" y="254.78" style="fill: #1c2b36; stroke: #1c2b36; stroke-width: 0.8"/></g></g><g id="text_11"><g style="fill: #1c2b36" transform="translate(19.31 259.06) scale(0.1 -0.1)"><use xlink:href="#NanumGothic-10"/></g></g></g><g id="ytick_2"><g id="line2d_11"><g><use xlink:href="#mb9d5a214bb" x="32.37" y="150.83" style="fill: #1c2b36; stroke: #1c2b36; stroke-width: 0.8"/></g></g><g id="text_12"><g style="fill: #1c2b36" transform="translate(13.25 155.11) scale(0.1 -0.1)"><use xlink:href="#NanumGothic-15"/><use xlink:href="#NanumGothic-10" transform="translate(60.59 0)"/></g></g></g><g id="ytick_3"><g id="line2d_12"><g><use xlink:href="#mb9d5a214bb" x="32.37" y="46.88" style="fill: #1c2b36; stroke: #1c2b36; stroke-width: 0.8"/></g></g><g id="text_13"><g style="fill: #1c2b36" transform="translate(7.2 51.16) scale(0.1 -0.1)"><use xlink:href="#NanumGothic-11"/><use xlink:href="#NanumGothic-10" transform="translate(60.59 0)"/><use xlink:href="#NanumGothic-10" transform="translate(121.18 0)"/></g></g></g></g><g id="patch_4"><path d="M 32.37 254.78 L 229.00 254.78 L 229.00 46.88 L 32.37 46.88 z " clip-path="url(#p6381349161)" style="fill: #aec8d8; stroke: #12354f; stroke-width: 1.3; stroke-linejoin: miter"/></g><g id="patch_5"><path d="M 32.37 254.78 L 32.37 21.93 " style="fill: none; stroke: #64798a; stroke-width: 0.9; stroke-linejoin: miter; stroke-linecap: square"/></g><g id="patch_6"><path d="M 32.37 254.78 L 425.63 254.78 " style="fill: none; stroke: #64798a; stroke-width: 0.9; stroke-linejoin: miter; stroke-linecap: square"/></g><g id="text_14"><g style="fill: #12354f" transform="translate(273.24 171.62) scale(0.09 -0.09)"><defs><path id="NanumGothicBold-1fc" d="M 1754 -646 Q 1498 -646 1395 -550 Q 1293 -454 1293 -218 L 1293 1427 Q 1293 1664 1401 1760 Q 1510 1856 1754 1856 L 4909 1856 Q 5005 1856 5005 1773 L 5005 1382 Q 5005 1299 4909 1299 L 2118 1299 Q 2061 1299 2048 1289 Q 2035 1280 2035 1216 L 2035 890 L 4883 890 Q 4915 890 4947 864 Q 4979 838 4979 806 L 4979 429 Q 4979 390 4947 368 Q 4915 346 4883 346 L 2035 346 L 2035 6 Q 2035 -64 2044 -77 Q 2054 -90 2125 -90 L 5005 -90 Q 5114 -90 5114 -173 L 5114 -544 Q 5114 -646 5005 -646 L 1754 -646 z M 723 1990 Q 576 1933 518 2048 L 352 2362 Q 326 2413 336 2470 Q 346 2528 416 2560 Q 819 2733 1161 2941 Q 1504 3149 1769 3382 Q 2035 3616 2214 3865 Q 2394 4115 2464 4378 Q 2490 4486 2490 4524 Q 2490 4563 2381 4563 L 627 4563 Q 589 4563 566 4592 Q 544 4621 544 4659 L 544 5062 Q 544 5101 569 5129 Q 595 5158 634 5158 L 2784 5158 Q 3066 5158 3184 5065 Q 3302 4973 3302 4768 Q 3302 4736 3292 4681 Q 3283 4627 3273 4569 Q 3264 4512 3251 4461 Q 3238 4410 3232 4390 Q 2989 3571 2368 2988 Q 1747 2406 723 1990 z M 5971 3507 Q 5971 3475 5942 3449 Q 5914 3424 5875 3424 L 5011 3424 L 5011 2240 Q 5011 2150 4922 2150 L 4358 2150 Q 4326 2150 4297 2176 Q 4269 2202 4269 2246 L 4269 5306 Q 4269 5338 4297 5363 Q 4326 5389 4358 5389 L 4922 5389 Q 5011 5389 5011 5306 L 5011 4038 L 5875 4038 Q 5914 4038 5942 4016 Q 5971 3994 5971 3962 L 5971 3507 z " transform="scale(0.01)"/><path id="NanumGothicBold-7e6" d="M 3014 2963 Q 2566 2963 2192 3043 Q 1818 3123 1549 3270 Q 1280 3418 1129 3635 Q 979 3853 979 4128 Q 979 4403 1129 4624 Q 1280 4845 1549 4992 Q 1818 5139 2192 5219 Q 2566 5299 3014 5299 Q 3462 5299 3833 5219 Q 4205 5139 4473 4992 Q 4742 4845 4892 4624 Q 5043 4403 5043 4128 Q 5043 3853 4892 3635 Q 4742 3418 4473 3270 Q 4205 3123 3833 3043 Q 3462 2963 3014 2963 z M 3014 4710 Q 2733 4710 2502 4668 Q 2272 4627 2102 4550 Q 1933 4474 1840 4365 Q 1747 4256 1747 4128 Q 1747 4000 1840 3894 Q 1933 3789 2102 3712 Q 2272 3635 2502 3593 Q 2733 3552 3014 3552 Q 3290 3552 3520 3593 Q 3750 3635 3920 3712 Q 4090 3789 4182 3894 Q 4275 4000 4275 4128 Q 4275 4256 4182 4365 Q 4090 4474 3920 4550 Q 3750 4627 3520 4668 Q 3290 4710 3014 4710 z M 211 1837 Q 173 1837 147 1869 Q 122 1901 122 1939 L 122 2355 Q 122 2394 147 2422 Q 173 2451 211 2451 L 5786 2451 Q 5818 2451 5850 2419 Q 5882 2387 5882 2355 L 5882 1939 Q 5882 1907 5850 1872 Q 5818 1837 5786 1837 L 211 1837 z M 5184 -429 Q 5184 -467 5155 -486 Q 5126 -506 5088 -506 L 1523 -506 Q 1235 -506 1136 -403 Q 1037 -301 1037 -45 L 1037 1344 Q 1037 1376 1065 1405 Q 1094 1434 1126 1434 L 1677 1434 Q 1715 1434 1744 1405 Q 1773 1376 1773 1344 L 1773 211 Q 1773 147 1798 128 Q 1824 109 1894 109 L 5088 109 Q 5120 109 5152 86 Q 5184 64 5184 32 L 5184 -429 z " transform="scale(0.01)"/><path id="NanumGothicBold-34dd" transform="scale(0.01)"/><path id="NanumGothicBold-525" d="M 3456 2406 Q 3456 2157 3357 2061 Q 3258 1965 3014 1965 L 1114 1965 Q 845 1965 742 2061 Q 640 2157 640 2406 L 640 4614 Q 640 4858 739 4950 Q 838 5043 1082 5043 L 3014 5043 Q 3258 5043 3357 4956 Q 3456 4870 3456 4614 L 3456 4371 L 4544 4371 L 4544 5306 Q 4544 5389 4627 5389 L 5197 5389 Q 5280 5389 5280 5306 L 5280 1094 Q 5280 1011 5197 1011 L 4627 1011 Q 4544 1011 4544 1094 L 4544 2528 L 3456 2528 L 3456 2406 z M 5466 -499 Q 5466 -538 5437 -557 Q 5408 -576 5376 -576 L 2048 -576 Q 1760 -576 1657 -473 Q 1555 -371 1555 -122 L 1555 1197 Q 1555 1229 1587 1261 Q 1619 1293 1651 1293 L 2195 1293 Q 2240 1293 2269 1261 Q 2298 1229 2298 1197 L 2298 141 Q 2298 77 2323 57 Q 2349 38 2413 38 L 5376 38 Q 5408 38 5437 12 Q 5466 -13 5466 -45 L 5466 -499 z M 2733 4371 Q 2733 4422 2717 4438 Q 2701 4454 2650 4454 L 1446 4454 Q 1395 4454 1379 4441 Q 1363 4429 1363 4378 L 1363 2637 Q 1363 2573 1379 2560 Q 1395 2547 1446 2547 L 2650 2547 Q 2701 2547 2717 2560 Q 2733 2573 2733 2637 L 2733 4371 z M 4544 3117 L 4544 3782 L 3456 3782 L 3456 3117 L 4544 3117 z " transform="scale(0.01)"/><path id="NanumGothicBold-827" d="M 781 1894 Q 742 1869 678 1872 Q 614 1875 576 1946 L 390 2259 Q 358 2310 371 2368 Q 384 2426 448 2451 Q 806 2611 1126 2819 Q 1446 3027 1705 3264 Q 1965 3501 2157 3760 Q 2349 4019 2451 4282 Q 2477 4339 2473 4384 Q 2470 4429 2368 4429 L 781 4429 Q 691 4429 691 4531 L 691 4954 Q 691 4992 720 5017 Q 749 5043 787 5043 L 2810 5043 Q 3091 5043 3228 4940 Q 3366 4838 3334 4627 Q 3322 4557 3299 4480 Q 3277 4403 3258 4346 Q 3091 3872 2778 3450 Q 2893 3334 3033 3216 Q 3174 3098 3324 2992 Q 3475 2886 3625 2796 Q 3776 2707 3904 2650 Q 4032 2586 3968 2464 L 3757 2118 Q 3725 2067 3680 2054 Q 3635 2042 3565 2074 Q 3450 2131 3296 2227 Q 3142 2323 2976 2444 Q 2810 2566 2650 2700 Q 2490 2835 2355 2970 Q 2029 2650 1635 2378 Q 1242 2106 781 1894 z M 5286 -582 Q 5286 -614 5254 -643 Q 5222 -672 5190 -672 L 4646 -672 Q 4602 -672 4573 -643 Q 4544 -614 4544 -582 L 4544 806 Q 4544 877 4518 896 Q 4493 915 4429 915 L 1466 915 Q 1434 915 1405 937 Q 1376 960 1376 992 L 1376 1446 Q 1376 1485 1405 1504 Q 1434 1523 1466 1523 L 4858 1523 Q 5101 1523 5193 1424 Q 5286 1325 5286 1082 L 5286 -582 z M 3450 3386 L 3450 3834 Q 3450 3866 3478 3888 Q 3507 3910 3539 3910 L 4544 3910 L 4544 5306 Q 4544 5389 4634 5389 L 5197 5389 Q 5229 5389 5257 5363 Q 5286 5338 5286 5306 L 5286 1933 Q 5286 1901 5257 1872 Q 5229 1843 5197 1843 L 4634 1843 Q 4595 1843 4569 1872 Q 4544 1901 4544 1933 L 4544 3309 L 3539 3309 Q 3507 3309 3478 3331 Q 3450 3354 3450 3386 z " transform="scale(0.01)"/></defs><use xlink:href="#NanumGothicBold-1fc"/><use xlink:href="#NanumGothicBold-7e6" transform="translate(94 0)"/><use xlink:href="#NanumGothicBold-34dd" transform="translate(188 0)"/><use xlink:href="#NanumGothicBold-525" transform="translate(216 0)"/><use xlink:href="#NanumGothicBold-827" transform="translate(310 0)"/></g></g><g id="text_15"><g style="fill: #b4544e" transform="translate(260.50 130.04) scale(0.09 -0.09)"><defs><path id="NanumGothicBold-14" d="M 3008 1069 L 3008 96 Q 3008 26 2989 3 Q 2970 -19 2899 -19 L 2438 -19 Q 2368 -19 2345 6 Q 2323 32 2323 96 L 2323 1069 L 275 1069 Q 211 1069 192 1081 Q 173 1094 173 1146 L 173 1619 Q 173 1664 198 1709 Q 224 1754 250 1786 L 2227 4762 Q 2266 4813 2282 4829 Q 2298 4845 2362 4845 L 2944 4845 Q 2995 4845 3001 4825 Q 3008 4806 3008 4749 L 3008 1728 L 3603 1728 Q 3661 1728 3680 1712 Q 3699 1696 3699 1632 L 3699 1165 Q 3699 1101 3680 1085 Q 3661 1069 3603 1069 L 3008 1069 z M 947 1728 L 2323 1728 L 2323 3814 L 947 1728 z " transform="scale(0.01)"/><path id="NanumGothicBold-10" d="M 1965 -51 Q 1146 -51 752 598 Q 358 1248 358 2419 Q 358 2816 419 3251 Q 480 3686 656 4051 Q 832 4416 1145 4653 Q 1459 4890 1965 4890 Q 2298 4890 2547 4781 Q 2797 4672 2973 4483 Q 3149 4294 3264 4048 Q 3379 3802 3443 3526 Q 3507 3251 3532 2966 Q 3558 2682 3558 2419 Q 3558 1837 3462 1376 Q 3366 915 3168 598 Q 2970 282 2672 115 Q 2374 -51 1965 -51 z M 1965 4192 Q 1760 4192 1600 4099 Q 1440 4006 1325 3795 Q 1210 3584 1149 3245 Q 1088 2906 1088 2419 Q 1088 1926 1149 1587 Q 1210 1248 1325 1037 Q 1440 826 1600 733 Q 1760 640 1965 640 Q 2163 640 2326 733 Q 2490 826 2605 1037 Q 2720 1248 2781 1587 Q 2842 1926 2842 2419 Q 2842 2906 2781 3245 Q 2720 3584 2605 3795 Q 2490 4006 2326 4099 Q 2163 4192 1965 4192 z " transform="scale(0.01)"/><path id="NanumGothicBold-4f" d="M 2061 -147 Q 1805 -147 1568 -38 Q 1331 70 1171 256 L 1171 -883 Q 1171 -934 1158 -950 Q 1146 -966 1101 -966 L 570 -966 Q 531 -966 512 -950 Q 493 -934 493 -883 L 493 3456 Q 493 3558 589 3558 L 1082 3558 Q 1171 3558 1171 3456 L 1171 3226 Q 1350 3411 1574 3513 Q 1798 3616 2061 3616 Q 2406 3616 2678 3485 Q 2950 3354 3139 3110 Q 3328 2867 3427 2515 Q 3526 2163 3526 1722 Q 3526 1293 3424 947 Q 3322 602 3133 358 Q 2944 115 2672 -16 Q 2400 -147 2061 -147 z M 1990 2963 Q 1824 2963 1677 2883 Q 1530 2803 1418 2646 Q 1306 2490 1238 2259 Q 1171 2029 1171 1728 Q 1171 1101 1395 800 Q 1619 499 1990 499 Q 2387 499 2598 819 Q 2810 1139 2810 1728 Q 2810 2349 2592 2656 Q 2374 2963 1990 2963 z " transform="scale(0.01)"/><path id="NanumGothicBold-4c" d="M 4698 13 Q 4666 13 4640 41 Q 4614 70 4614 102 L 4614 2317 Q 4614 2618 4473 2806 Q 4333 2995 4064 2995 Q 3872 2995 3721 2915 Q 3571 2835 3468 2697 Q 3366 2560 3312 2368 Q 3258 2176 3258 1952 L 3258 96 Q 3258 13 3181 13 L 2650 13 Q 2618 13 2592 41 Q 2566 70 2566 102 L 2566 2317 Q 2566 2995 2003 2995 Q 1645 2995 1443 2777 Q 1242 2560 1242 2176 L 1242 96 Q 1242 13 1165 13 L 634 13 Q 602 13 579 41 Q 557 70 557 102 L 557 2650 Q 557 2893 550 3117 Q 544 3341 531 3469 Q 518 3552 621 3552 L 1165 3552 Q 1222 3552 1222 3501 L 1216 3277 Q 1344 3424 1568 3526 Q 1792 3629 2042 3629 Q 2374 3629 2649 3475 Q 2925 3322 3046 3021 Q 3194 3328 3482 3478 Q 3770 3629 4096 3629 Q 4640 3629 4973 3305 Q 5306 2982 5306 2400 L 5306 96 Q 5306 64 5283 38 Q 5261 13 5229 13 L 4698 13 z " transform="scale(0.01)"/><path id="NanumGothicBold-63" d="M 1408 2458 Q 1408 2240 1264 2102 Q 1120 1965 909 1965 Q 698 1965 557 2102 Q 416 2240 416 2458 Q 416 2669 553 2809 Q 691 2950 902 2950 Q 1114 2950 1261 2809 Q 1408 2669 1408 2458 z " transform="scale(0.01)"/><path id="NanumGothicBold-47" d="M 2758 0 Q 2675 0 2675 77 L 2675 2131 Q 2675 2611 2537 2832 Q 2400 3053 2099 3053 Q 1427 3053 1248 2541 L 1248 77 Q 1248 0 1171 0 L 646 0 Q 614 0 592 22 Q 570 45 570 77 L 570 5120 Q 570 5152 592 5174 Q 614 5197 646 5197 L 1171 5197 Q 1203 5197 1225 5174 Q 1248 5152 1248 5120 L 1248 3398 Q 1408 3533 1622 3619 Q 1837 3706 2093 3706 Q 3360 3706 3360 2138 L 3360 77 Q 3360 45 3337 22 Q 3315 0 3283 0 L 2758 0 z " transform="scale(0.01)"/><path id="NanumGothicBold-7e" d="M 3827 2611 Q 3917 2611 3917 2528 L 3917 2118 Q 3917 2035 3827 2035 L 333 2035 Q 243 2035 243 2118 L 243 2528 Q 243 2611 333 2611 L 3827 2611 z M 2067 4102 Q 2272 4102 2406 3971 Q 2541 3840 2541 3642 Q 2541 3437 2406 3305 Q 2272 3174 2074 3174 Q 1869 3174 1737 3305 Q 1606 3437 1606 3642 Q 1606 3840 1734 3971 Q 1862 4102 2067 4102 z M 2067 1472 Q 2272 1472 2406 1341 Q 2541 1210 2541 1011 Q 2541 806 2406 675 Q 2272 544 2074 544 Q 1869 544 1737 675 Q 1606 806 1606 1011 Q 1606 1210 1734 1341 Q 1862 1472 2067 1472 z " transform="scale(0.01)"/><path id="NanumGothicBold-18" d="M 1965 -70 Q 1677 -70 1385 16 Q 1094 102 864 272 Q 634 442 486 701 Q 339 960 339 1306 Q 339 1542 419 1724 Q 499 1907 630 2051 Q 762 2195 938 2310 Q 1114 2426 1306 2522 Q 922 2739 698 3030 Q 474 3322 474 3686 Q 474 3955 592 4179 Q 710 4403 912 4563 Q 1114 4723 1386 4812 Q 1658 4902 1965 4902 Q 2285 4902 2557 4819 Q 2829 4736 3024 4582 Q 3219 4429 3331 4208 Q 3443 3987 3443 3706 Q 3443 3379 3241 3097 Q 3040 2816 2624 2528 Q 2848 2394 3027 2269 Q 3206 2144 3334 2000 Q 3462 1856 3529 1689 Q 3597 1523 3597 1306 Q 3597 960 3459 701 Q 3322 442 3094 272 Q 2867 102 2572 16 Q 2278 -70 1965 -70 z M 1965 4275 Q 1830 4275 1696 4230 Q 1562 4186 1453 4106 Q 1344 4026 1273 3907 Q 1203 3789 1203 3635 Q 1203 3501 1292 3373 Q 1382 3245 1507 3136 Q 1632 3027 1760 2950 Q 1888 2874 1971 2842 Q 2067 2880 2195 2966 Q 2323 3053 2441 3168 Q 2560 3283 2640 3411 Q 2720 3539 2720 3654 Q 2720 3782 2659 3894 Q 2598 4006 2496 4092 Q 2394 4179 2256 4227 Q 2118 4275 1965 4275 z M 1971 2170 Q 1843 2131 1683 2064 Q 1523 1997 1385 1894 Q 1248 1792 1152 1648 Q 1056 1504 1056 1306 Q 1056 1139 1139 1004 Q 1222 870 1353 774 Q 1485 678 1648 627 Q 1811 576 1965 576 Q 2131 576 2294 624 Q 2458 672 2586 768 Q 2714 864 2794 998 Q 2874 1133 2874 1306 Q 2874 1427 2794 1558 Q 2714 1690 2582 1805 Q 2451 1920 2291 2016 Q 2131 2112 1971 2170 z " transform="scale(0.01)"/><path id="NanumGothicBold-6d5" d="M 851 730 Q 736 634 627 736 L 333 1018 Q 230 1107 352 1216 Q 762 1594 1059 2054 Q 1357 2515 1536 3040 Q 1613 3270 1667 3497 Q 1722 3725 1757 3958 Q 1792 4192 1805 4445 Q 1818 4698 1811 4979 Q 1811 5018 1840 5046 Q 1869 5075 1901 5075 L 2470 5056 Q 2502 5056 2528 5027 Q 2554 4998 2554 4960 Q 2554 4576 2525 4243 Q 2496 3910 2445 3603 Q 2502 3302 2640 2995 Q 2778 2688 2960 2409 Q 3142 2131 3353 1894 Q 3565 1658 3770 1491 Q 3872 1414 3782 1293 L 3514 966 Q 3482 922 3427 915 Q 3373 909 3315 954 Q 3155 1075 2982 1254 Q 2810 1434 2646 1645 Q 2483 1856 2348 2077 Q 2214 2298 2131 2502 Q 2016 2234 1869 1978 Q 1722 1722 1552 1491 Q 1382 1261 1203 1065 Q 1024 870 851 730 z M 5280 -602 Q 5280 -685 5190 -685 L 4627 -685 Q 4595 -685 4566 -662 Q 4538 -640 4538 -602 L 4538 5306 Q 4538 5338 4566 5363 Q 4595 5389 4627 5389 L 5190 5389 Q 5280 5389 5280 5306 L 5280 -602 z " transform="scale(0.01)"/><path id="NanumGothicBold-1ef" d="M 5261 -499 Q 5261 -538 5229 -557 Q 5197 -576 5165 -576 L 1786 -576 Q 1498 -576 1395 -473 Q 1293 -371 1293 -122 L 1293 1293 Q 1293 1325 1325 1353 Q 1357 1382 1389 1382 L 1933 1382 Q 1971 1382 2003 1353 Q 2035 1325 2035 1293 L 2035 141 Q 2035 77 2060 57 Q 2086 38 2150 38 L 5165 38 Q 5197 38 5229 12 Q 5261 -13 5261 -45 L 5261 -499 z M 5971 2931 Q 5971 2899 5942 2873 Q 5914 2848 5875 2848 L 5011 2848 L 5011 1158 Q 5011 1075 4922 1075 L 4358 1075 Q 4326 1075 4297 1100 Q 4269 1126 4269 1158 L 4269 5306 Q 4269 5338 4297 5363 Q 4326 5389 4358 5389 L 4922 5389 Q 5011 5389 5011 5306 L 5011 3462 L 5875 3462 Q 5914 3462 5942 3440 Q 5971 3418 5971 3386 L 5971 2931 z M 717 1638 Q 570 1581 506 1696 L 326 2022 Q 294 2074 307 2125 Q 320 2176 390 2208 Q 1229 2592 1750 3101 Q 2272 3610 2458 4230 Q 2490 4333 2490 4371 Q 2490 4410 2368 4410 L 627 4410 Q 589 4410 566 4438 Q 544 4467 544 4506 L 544 4934 Q 544 5024 634 5024 L 2803 5024 Q 3085 5024 3200 4934 Q 3315 4845 3315 4640 Q 3315 4608 3305 4557 Q 3296 4506 3286 4451 Q 3277 4397 3267 4355 Q 3258 4314 3251 4294 Q 2982 3379 2364 2726 Q 1747 2074 717 1638 z " transform="scale(0.01)"/><path id="NanumGothicBold-1d" d="M 422 2746 Q 390 2746 368 2768 Q 346 2790 346 2822 L 346 3328 Q 346 3360 368 3382 Q 390 3405 422 3405 L 3802 3405 Q 3834 3405 3856 3382 Q 3878 3360 3878 3328 L 3878 2822 Q 3878 2790 3856 2768 Q 3834 2746 3802 2746 L 422 2746 z M 422 1414 Q 390 1414 368 1436 Q 346 1459 346 1491 L 346 1997 Q 346 2029 368 2051 Q 390 2074 422 2074 L 3802 2074 Q 3834 2074 3856 2051 Q 3878 2029 3878 1997 L 3878 1491 Q 3878 1459 3856 1436 Q 3834 1414 3802 1414 L 422 1414 z " transform="scale(0.01)"/><path id="NanumGothicBold-15" d="M 2963 352 Q 2733 141 2400 38 Q 2067 -64 1702 -64 Q 1638 -64 1507 -54 Q 1376 -45 1225 -22 Q 1075 0 924 35 Q 774 70 672 122 Q 627 147 624 169 Q 621 192 621 237 L 621 755 Q 621 870 755 806 Q 851 755 979 720 Q 1107 685 1241 659 Q 1376 634 1507 621 Q 1638 608 1754 608 Q 2182 608 2460 851 Q 2739 1094 2739 1523 Q 2739 1939 2512 2185 Q 2285 2432 1760 2432 Q 1549 2432 1328 2387 Q 1107 2342 902 2266 Q 653 2163 653 2381 L 685 4742 Q 691 4813 710 4832 Q 730 4851 826 4851 L 3168 4851 Q 3206 4851 3228 4825 Q 3251 4800 3251 4768 L 3251 4275 Q 3251 4243 3228 4214 Q 3206 4186 3168 4186 L 1389 4186 L 1363 2995 Q 1613 3053 1926 3053 Q 2246 3053 2528 2953 Q 2810 2854 3018 2665 Q 3226 2477 3344 2208 Q 3462 1939 3462 1606 Q 3462 800 2963 352 z " transform="scale(0.01)"/></defs><use xlink:href="#NanumGothicBold-14"/><use xlink:href="#NanumGothicBold-10" transform="translate(60.59 0)"/><use xlink:href="#NanumGothicBold-10" transform="translate(121.18 0)"/><use xlink:href="#NanumGothicBold-34dd" transform="translate(181.78 0)"/><use xlink:href="#NanumGothicBold-4f" transform="translate(209.78 0)"/><use xlink:href="#NanumGothicBold-4f" transform="translate(270.37 0)"/><use xlink:href="#NanumGothicBold-4c" transform="translate(330.96 0)"/><use xlink:href="#NanumGothicBold-63" transform="translate(421.76 0)"/><use xlink:href="#NanumGothicBold-47" transform="translate(450.76 0)"/><use xlink:href="#NanumGothicBold-34dd" transform="translate(511.35 0)"/><use xlink:href="#NanumGothicBold-7e" transform="translate(539.35 0)"/><use xlink:href="#NanumGothicBold-34dd" transform="translate(604.35 0)"/><use xlink:href="#NanumGothicBold-18" transform="translate(632.35 0)"/><use xlink:href="#NanumGothicBold-6d5" transform="translate(692.95 0)"/><use xlink:href="#NanumGothicBold-1ef" transform="translate(786.95 0)"/><use xlink:href="#NanumGothicBold-34dd" transform="translate(880.95 0)"/><use xlink:href="#NanumGothicBold-1d" transform="translate(908.95 0)"/><use xlink:href="#NanumGothicBold-34dd" transform="translate(974.35 0)"/><use xlink:href="#NanumGothicBold-15" transform="translate(1002.35 0)"/><use xlink:href="#NanumGothicBold-10" transform="translate(1062.95 0)"/><use xlink:href="#NanumGothicBold-34dd" transform="translate(1123.54 0)"/><use xlink:href="#NanumGothicBold-4f" transform="translate(1151.54 0)"/><use xlink:href="#NanumGothicBold-4f" transform="translate(1212.14 0)"/><use xlink:href="#NanumGothicBold-4c" transform="translate(1272.73 0)"/></g></g><g id="text_16"><g style="fill: #1c2b36" transform="translate(27.42 15.76) scale(0.1 -0.1)"><defs><path id="NanumGothic-35b" d="M 4992 390 Q 4992 64 4787 -141 Q 4582 -346 4281 -461 Q 3981 -576 3632 -617 Q 3283 -659 2995 -659 Q 2803 -659 2582 -640 Q 2362 -621 2141 -579 Q 1920 -538 1715 -461 Q 1510 -384 1353 -265 Q 1197 -147 1101 13 Q 1005 173 1005 390 Q 1005 710 1209 912 Q 1414 1114 1715 1229 Q 2016 1344 2365 1389 Q 2714 1434 2995 1434 Q 3283 1434 3632 1392 Q 3981 1350 4285 1235 Q 4589 1120 4790 915 Q 4992 710 4992 390 z M 5037 3226 Q 5037 3187 5005 3168 Q 4973 3149 4941 3149 L 3219 3149 L 3219 2298 L 5728 2298 Q 5760 2298 5792 2275 Q 5824 2253 5824 2214 L 5824 1997 Q 5824 1965 5792 1939 Q 5760 1914 5728 1914 L 288 1914 Q 250 1914 221 1939 Q 192 1965 192 1997 L 192 2214 Q 192 2253 221 2275 Q 250 2298 288 2298 L 2778 2298 L 2778 3149 L 1619 3149 Q 1318 3149 1225 3273 Q 1133 3398 1133 3661 L 1133 5126 Q 1133 5216 1222 5216 L 1485 5216 Q 1574 5216 1574 5126 L 1574 3674 Q 1574 3584 1603 3558 Q 1632 3533 1722 3533 L 4941 3533 Q 4973 3533 5005 3510 Q 5037 3488 5037 3456 L 5037 3226 z M 4525 384 Q 4525 595 4352 720 Q 4179 845 3936 915 Q 3693 986 3433 1008 Q 3174 1030 2995 1030 Q 2810 1030 2550 1008 Q 2291 986 2051 915 Q 1811 845 1641 720 Q 1472 595 1472 384 Q 1472 179 1641 51 Q 1811 -77 2051 -144 Q 2291 -211 2550 -233 Q 2810 -256 2995 -256 Q 3174 -256 3436 -233 Q 3699 -211 3939 -144 Q 4179 -77 4352 51 Q 4525 179 4525 384 z " transform="scale(0.01)"/><path id="NanumGothic-3d9" d="M 5030 2266 Q 5030 2176 4947 2176 L 3213 2176 L 3213 781 L 5728 781 Q 5760 781 5792 758 Q 5824 736 5824 698 L 5824 480 Q 5824 448 5792 422 Q 5760 397 5728 397 L 288 397 Q 250 397 221 422 Q 192 448 192 480 L 192 698 Q 192 736 221 758 Q 250 781 288 781 L 2771 781 L 2771 2176 L 1491 2176 Q 1210 2176 1107 2269 Q 1005 2362 1005 2630 L 1005 4416 Q 1005 4685 1107 4777 Q 1210 4870 1491 4870 L 4902 4870 Q 4986 4870 4986 4787 L 4986 4576 Q 4986 4486 4902 4486 L 1600 4486 Q 1510 4486 1478 4448 Q 1446 4410 1446 4314 L 1446 2726 Q 1446 2637 1478 2598 Q 1510 2560 1600 2560 L 4947 2560 Q 5030 2560 5030 2477 L 5030 2266 z " transform="scale(0.01)"/><path id="NanumGothic-4f" d="M 2989 1786 Q 2989 2048 2937 2294 Q 2886 2541 2764 2733 Q 2643 2925 2451 3043 Q 2259 3162 1971 3162 Q 1709 3162 1517 3053 Q 1325 2944 1200 2755 Q 1075 2566 1011 2316 Q 947 2067 947 1786 Q 947 1043 1225 662 Q 1504 282 1971 282 Q 2214 282 2403 387 Q 2592 493 2723 691 Q 2854 890 2921 1165 Q 2989 1440 2989 1786 z M 518 3379 Q 518 3469 608 3469 L 851 3469 Q 941 3469 941 3379 L 909 2899 Q 1037 3181 1341 3353 Q 1645 3526 2048 3526 Q 2426 3526 2691 3392 Q 2957 3258 3126 3024 Q 3296 2790 3376 2470 Q 3456 2150 3456 1786 Q 3456 1389 3363 1049 Q 3270 710 3094 460 Q 2918 211 2656 67 Q 2394 -77 2048 -77 Q 1658 -77 1376 73 Q 1094 224 947 493 L 947 -883 Q 947 -973 858 -973 L 614 -973 Q 576 -973 547 -947 Q 518 -922 518 -883 L 518 3379 z " transform="scale(0.01)"/><path id="NanumGothic-4c" d="M 602 2656 Q 602 2925 595 3081 Q 589 3238 576 3379 Q 576 3469 666 3469 L 902 3469 Q 992 3469 992 3379 L 992 3034 Q 1139 3270 1388 3408 Q 1638 3546 2003 3546 Q 2387 3546 2675 3357 Q 2963 3168 3027 2803 Q 3162 3168 3459 3357 Q 3757 3546 4147 3546 Q 4397 3546 4598 3456 Q 4800 3366 4944 3209 Q 5088 3053 5165 2841 Q 5242 2630 5242 2394 L 5242 96 Q 5242 6 5152 6 L 4909 6 Q 4819 6 4819 90 L 4819 2304 Q 4819 3181 4083 3181 Q 3859 3181 3683 3081 Q 3507 2982 3382 2809 Q 3258 2637 3197 2406 Q 3136 2176 3142 1920 L 3142 96 Q 3142 6 3053 6 L 2797 6 Q 2707 6 2707 96 L 2707 2304 Q 2707 3181 1965 3181 Q 1530 3181 1280 2899 Q 1030 2618 1030 2157 L 1030 96 Q 1030 6 941 6 L 691 6 Q 602 6 602 96 L 602 2656 z " transform="scale(0.01)"/></defs><use xlink:href="#NanumGothic-35b"/><use xlink:href="#NanumGothic-3d9" transform="translate(94 0)"/><use xlink:href="#NanumGothic-33f0" transform="translate(188 0)"/><use xlink:href="#NanumGothic-8" transform="translate(216 0)"/><use xlink:href="#NanumGothic-4f" transform="translate(252.29 0)"/><use xlink:href="#NanumGothic-4f" transform="translate(312.89 0)"/><use xlink:href="#NanumGothic-4c" transform="translate(373.48 0)"/><use xlink:href="#NanumGothic-9" transform="translate(464.28 0)"/></g></g><g id="text_17"><g style="fill: #64798a" transform="translate(79.22 303.68) scale(0.09 -0.09)"><defs><path id="NanumGothic-6db" d="M 5286 -557 Q 5286 -589 5257 -611 Q 5229 -634 5203 -634 L 1984 -634 Q 1683 -634 1590 -522 Q 1498 -410 1498 -141 L 1498 339 Q 1498 608 1610 701 Q 1722 794 2010 794 L 4570 794 Q 4659 794 4684 819 Q 4710 845 4710 941 L 4710 1306 Q 4710 1402 4688 1427 Q 4666 1453 4576 1453 L 1574 1453 Q 1542 1453 1513 1472 Q 1485 1491 1485 1523 L 1485 1754 Q 1485 1786 1513 1805 Q 1542 1824 1574 1824 L 4646 1824 Q 4800 1824 4896 1801 Q 4992 1779 5049 1728 Q 5107 1677 5129 1584 Q 5152 1491 5152 1357 L 5152 877 Q 5152 608 5040 515 Q 4928 422 4640 422 L 2074 422 Q 1984 422 1961 396 Q 1939 371 1939 275 L 1939 -115 Q 1939 -205 1964 -233 Q 1990 -262 2080 -262 L 5197 -262 Q 5229 -262 5257 -281 Q 5286 -301 5286 -333 L 5286 -557 z M 2355 5088 Q 2349 4640 2240 4256 Q 2323 4045 2470 3833 Q 2618 3622 2806 3436 Q 2995 3251 3216 3100 Q 3437 2950 3667 2854 Q 3706 2842 3706 2806 Q 3706 2771 3693 2746 L 3571 2528 Q 3552 2490 3517 2486 Q 3482 2483 3443 2496 Q 3238 2586 3033 2723 Q 2829 2861 2640 3030 Q 2451 3200 2294 3382 Q 2138 3565 2035 3744 Q 1830 3360 1500 3024 Q 1171 2688 691 2381 Q 646 2349 617 2345 Q 589 2342 557 2381 L 397 2579 Q 346 2650 429 2707 Q 826 2957 1107 3222 Q 1389 3488 1565 3779 Q 1741 4070 1824 4396 Q 1907 4723 1907 5094 Q 1907 5146 1932 5171 Q 1958 5197 1984 5197 L 2285 5178 Q 2355 5178 2355 5088 z M 5152 2285 Q 5152 2195 5062 2195 L 4800 2195 Q 4710 2195 4710 2285 L 4710 5197 Q 4710 5286 4800 5286 L 5062 5286 Q 5152 5286 5152 5197 L 5152 2285 z " transform="scale(0.01)"/><path id="NanumGothic-940" d="M 4403 3891 Q 4224 3763 4006 3638 Q 3789 3514 3546 3398 Q 3904 3290 4323 3197 Q 4742 3104 5146 3046 Q 5197 3040 5206 3017 Q 5216 2995 5203 2950 L 5146 2733 Q 5133 2662 5043 2682 Q 4838 2714 4582 2768 Q 4326 2822 4054 2883 Q 3782 2944 3507 3017 Q 3232 3091 2982 3162 Q 2534 2995 2032 2854 Q 1530 2714 998 2618 Q 902 2598 877 2662 L 800 2880 Q 787 2912 806 2941 Q 826 2970 864 2982 Q 1318 3072 1715 3174 Q 2112 3277 2470 3398 Q 2829 3520 3165 3661 Q 3501 3802 3834 3974 Q 3942 4032 3932 4073 Q 3923 4115 3821 4115 L 1274 4115 Q 1190 4115 1190 4198 L 1190 4422 Q 1190 4499 1274 4499 L 4038 4499 Q 4538 4499 4646 4323 Q 4755 4147 4403 3891 z M 947 1126 Q 947 1165 979 1184 Q 1011 1203 1043 1203 L 4442 1203 Q 4742 1203 4835 1091 Q 4928 979 4928 717 L 4928 -589 Q 4928 -678 4838 -678 L 4576 -678 Q 4486 -678 4486 -589 L 4486 685 Q 4486 774 4457 796 Q 4429 819 4339 819 L 1043 819 Q 1011 819 979 841 Q 947 864 947 896 L 947 1126 z M 5728 2221 Q 5760 2221 5792 2198 Q 5824 2176 5824 2138 L 5824 1920 Q 5824 1888 5792 1862 Q 5760 1837 5728 1837 L 288 1837 Q 250 1837 221 1862 Q 192 1888 192 1920 L 192 2138 Q 192 2176 221 2198 Q 250 2221 288 2221 L 5728 2221 z M 3814 5286 Q 3910 5286 3910 5197 L 3910 4992 Q 3910 4896 3814 4896 L 2131 4896 Q 2035 4896 2035 4992 L 2035 5197 Q 2035 5286 2131 5286 L 3814 5286 z " transform="scale(0.01)"/><path id="NanumGothic-7e6" d="M 2995 2022 Q 2656 2022 2294 2105 Q 1933 2189 1632 2365 Q 1331 2541 1139 2813 Q 947 3085 947 3469 Q 947 3853 1139 4125 Q 1331 4397 1632 4573 Q 1933 4749 2294 4829 Q 2656 4909 2995 4909 Q 3341 4909 3702 4829 Q 4064 4749 4361 4573 Q 4659 4397 4851 4125 Q 5043 3853 5043 3469 Q 5043 3085 4851 2813 Q 4659 2541 4361 2365 Q 4064 2189 3702 2105 Q 3341 2022 2995 2022 z M 2995 4499 Q 2765 4499 2489 4451 Q 2214 4403 1977 4284 Q 1741 4166 1581 3964 Q 1421 3763 1421 3462 Q 1421 3162 1581 2963 Q 1741 2765 1977 2646 Q 2214 2528 2489 2480 Q 2765 2432 2995 2432 Q 3219 2432 3491 2480 Q 3763 2528 4003 2646 Q 4243 2765 4406 2963 Q 4570 3162 4570 3462 Q 4570 3763 4406 3964 Q 4243 4166 4003 4284 Q 3763 4403 3491 4451 Q 3219 4499 2995 4499 z M 5728 781 Q 5760 781 5792 758 Q 5824 736 5824 698 L 5824 480 Q 5824 448 5792 422 Q 5760 397 5728 397 L 288 397 Q 250 397 221 422 Q 192 448 192 480 L 192 698 Q 192 736 221 758 Q 250 781 288 781 L 5728 781 z " transform="scale(0.01)"/><path id="NanumGothic-4ae" d="M 2771 781 L 2771 1894 L 1491 1894 Q 1190 1894 1097 2006 Q 1005 2118 1005 2387 L 1005 3187 Q 1005 3462 1117 3552 Q 1229 3642 1517 3642 L 4403 3642 Q 4493 3642 4515 3667 Q 4538 3693 4538 3789 L 4538 4454 Q 4538 4550 4515 4576 Q 4493 4602 4403 4602 L 1094 4602 Q 1062 4602 1033 4621 Q 1005 4640 1005 4672 L 1005 4915 Q 1005 4947 1033 4966 Q 1062 4986 1094 4986 L 4474 4986 Q 4627 4986 4723 4963 Q 4819 4941 4876 4889 Q 4934 4838 4956 4745 Q 4979 4653 4979 4518 L 4979 3718 Q 4979 3443 4867 3353 Q 4755 3264 4467 3264 L 1581 3264 Q 1491 3264 1468 3238 Q 1446 3213 1446 3117 L 1446 2426 Q 1446 2336 1472 2307 Q 1498 2278 1587 2278 L 5024 2278 Q 5056 2278 5085 2259 Q 5114 2240 5114 2208 L 5114 1971 Q 5114 1939 5085 1916 Q 5056 1894 5030 1894 L 3213 1894 L 3213 781 L 5728 781 Q 5760 781 5792 758 Q 5824 736 5824 698 L 5824 480 Q 5824 448 5792 422 Q 5760 397 5728 397 L 288 397 Q 250 397 221 422 Q 192 448 192 480 L 192 698 Q 192 736 221 758 Q 250 781 288 781 L 2771 781 z " transform="scale(0.01)"/><path id="NanumGothic-312" d="M 4928 -525 Q 4928 -614 4838 -614 L 4576 -614 Q 4486 -614 4486 -525 L 4486 5197 Q 4486 5286 4576 5286 L 4838 5286 Q 4928 5286 4928 5197 L 4928 2867 L 5811 2867 Q 5850 2867 5878 2844 Q 5907 2822 5907 2784 L 5907 2566 Q 5907 2534 5878 2508 Q 5850 2483 5811 2483 L 4928 2483 L 4928 -525 z M 1158 1722 Q 1158 1626 1190 1594 Q 1222 1562 1312 1555 Q 1926 1536 2592 1609 Q 3258 1683 3859 1798 Q 3968 1824 3987 1722 L 4019 1542 Q 4038 1453 3936 1427 Q 3699 1370 3356 1318 Q 3014 1267 2636 1228 Q 2259 1190 1884 1171 Q 1510 1152 1222 1158 Q 934 1165 825 1293 Q 717 1421 717 1690 L 717 4838 Q 717 4928 806 4928 L 1069 4928 Q 1158 4928 1158 4838 L 1158 1722 z " transform="scale(0.01)"/><path id="NanumGothic-36f" d="M 2854 -576 Q 2822 -576 2796 -547 Q 2771 -518 2771 -480 L 2771 1549 L 288 1549 Q 250 1549 221 1574 Q 192 1600 192 1632 L 192 1850 Q 192 1888 221 1910 Q 250 1933 288 1933 L 5728 1933 Q 5760 1933 5792 1910 Q 5824 1888 5824 1850 L 5824 1632 Q 5824 1600 5792 1574 Q 5760 1549 5728 1549 L 3213 1549 L 3213 -480 Q 3213 -518 3190 -547 Q 3168 -576 3130 -576 L 2854 -576 z M 5101 2880 Q 5101 2842 5069 2822 Q 5037 2803 5005 2803 L 1568 2803 Q 1267 2803 1174 2928 Q 1082 3053 1082 3315 L 1082 5107 Q 1082 5197 1171 5197 L 1434 5197 Q 1523 5197 1523 5107 L 1523 3322 Q 1523 3232 1552 3209 Q 1581 3187 1670 3187 L 5005 3187 Q 5037 3187 5069 3164 Q 5101 3142 5101 3110 L 5101 2880 z " transform="scale(0.01)"/><path id="NanumGothic-527" d="M 5152 1158 Q 5152 1069 5062 1069 L 4800 1069 Q 4710 1069 4710 1158 L 4710 2662 L 3443 2662 L 3443 2509 Q 3443 2240 3340 2147 Q 3238 2054 2957 2054 L 1197 2054 Q 1043 2054 950 2073 Q 858 2093 803 2147 Q 749 2202 729 2288 Q 710 2374 710 2509 L 710 4486 Q 710 4755 812 4848 Q 915 4941 1197 4941 L 2957 4941 Q 3110 4941 3203 4921 Q 3296 4902 3350 4851 Q 3405 4800 3424 4710 Q 3443 4621 3443 4486 L 3443 4256 L 4710 4256 L 4710 5197 Q 4710 5286 4800 5286 L 5062 5286 Q 5152 5286 5152 5197 L 5152 1158 z M 1306 4557 Q 1216 4557 1184 4521 Q 1152 4486 1152 4390 L 1152 2605 Q 1152 2509 1184 2473 Q 1216 2438 1306 2438 L 2848 2438 Q 2938 2438 2970 2473 Q 3002 2509 3002 2605 L 3002 4390 Q 3002 4486 2970 4521 Q 2938 4557 2848 4557 L 1306 4557 z M 5350 -422 Q 5350 -461 5318 -480 Q 5286 -499 5254 -499 L 2048 -499 Q 1747 -499 1654 -387 Q 1562 -275 1562 -13 L 1562 1286 Q 1562 1376 1651 1376 L 1914 1376 Q 2003 1376 2003 1286 L 2003 19 Q 2003 -70 2032 -92 Q 2061 -115 2150 -115 L 5254 -115 Q 5286 -115 5318 -137 Q 5350 -160 5350 -192 L 5350 -422 z M 3443 3040 L 4710 3040 L 4710 3878 L 3443 3878 L 3443 3040 z " transform="scale(0.01)"/><path id="NanumGothic-68" d="M 5517 2112 L 13 2112 L 13 2445 L 5517 2445 L 5517 2112 z " transform="scale(0.01)"/><path id="NanumGothic-23b" d="M 5728 781 Q 5760 781 5792 758 Q 5824 736 5824 698 L 5824 480 Q 5824 448 5792 422 Q 5760 397 5728 397 L 288 397 Q 250 397 221 422 Q 192 448 192 480 L 192 698 Q 192 736 221 758 Q 250 781 288 781 L 2566 781 L 2566 2746 Q 2566 2784 2588 2813 Q 2611 2842 2650 2842 L 2925 2842 Q 2957 2842 2982 2813 Q 3008 2784 3008 2746 L 3008 781 L 5728 781 z M 998 4768 Q 998 4806 1030 4825 Q 1062 4845 1094 4845 L 4506 4845 Q 4659 4845 4752 4813 Q 4845 4781 4896 4720 Q 4947 4659 4966 4563 Q 4986 4467 4992 4333 Q 4998 4070 4992 3744 Q 4986 3418 4960 3066 Q 4934 2714 4889 2355 Q 4845 1997 4781 1670 Q 4774 1632 4748 1600 Q 4723 1568 4685 1574 L 4429 1594 Q 4320 1600 4352 1709 Q 4410 1958 4454 2320 Q 4499 2682 4528 3056 Q 4557 3430 4566 3772 Q 4576 4115 4557 4326 Q 4544 4416 4521 4438 Q 4499 4461 4410 4461 L 1094 4461 Q 1062 4461 1030 4483 Q 998 4506 998 4538 L 998 4768 z " transform="scale(0.01)"/><path id="NanumGothic-7f5" d="M 5152 -525 Q 5152 -614 5062 -614 L 4800 -614 Q 4710 -614 4710 -525 L 4710 5197 Q 4710 5286 4800 5286 L 5062 5286 Q 5152 5286 5152 5197 L 5152 -525 z M 3693 3469 Q 3693 3149 3577 2883 Q 3462 2618 3257 2426 Q 3053 2234 2771 2128 Q 2490 2022 2157 2022 Q 1830 2022 1555 2128 Q 1280 2234 1078 2426 Q 877 2618 761 2883 Q 646 3149 646 3469 Q 646 3808 761 4077 Q 877 4346 1078 4534 Q 1280 4723 1555 4822 Q 1830 4922 2157 4922 Q 2464 4922 2742 4822 Q 3021 4723 3232 4534 Q 3443 4346 3568 4077 Q 3693 3808 3693 3469 z M 3245 3475 Q 3245 3738 3158 3936 Q 3072 4134 2921 4265 Q 2771 4397 2572 4461 Q 2374 4525 2157 4525 Q 1926 4525 1734 4457 Q 1542 4390 1398 4259 Q 1254 4128 1174 3933 Q 1094 3738 1094 3475 Q 1094 2982 1385 2697 Q 1677 2413 2157 2413 Q 2374 2413 2572 2486 Q 2771 2560 2921 2694 Q 3072 2829 3158 3027 Q 3245 3226 3245 3475 z M 4294 1350 Q 4326 1357 4355 1341 Q 4384 1325 4390 1299 L 4422 1082 Q 4429 1005 4346 986 Q 4134 947 3884 912 Q 3635 877 3369 845 Q 3104 813 2835 787 Q 2566 762 2310 742 Q 2112 730 1846 717 Q 1581 704 1305 694 Q 1030 685 780 681 Q 531 678 371 685 Q 333 685 304 710 Q 275 736 275 768 L 275 986 Q 275 1024 304 1046 Q 333 1069 371 1069 Q 557 1069 816 1072 Q 1075 1075 1347 1081 Q 1619 1088 1872 1097 Q 2125 1107 2298 1120 Q 2522 1133 2800 1158 Q 3078 1184 3353 1216 Q 3629 1248 3878 1283 Q 4128 1318 4294 1350 z " transform="scale(0.01)"/><path id="NanumGothic-5ca" d="M 1600 2918 Q 1446 2918 1353 2937 Q 1261 2957 1209 3011 Q 1158 3066 1139 3152 Q 1120 3238 1120 3373 L 1120 5120 Q 1120 5152 1145 5174 Q 1171 5197 1203 5197 L 1478 5197 Q 1510 5197 1532 5171 Q 1555 5146 1555 5120 L 1555 4461 L 4461 4461 L 4461 5114 Q 4461 5146 4483 5171 Q 4506 5197 4538 5197 L 4813 5197 Q 4845 5197 4870 5174 Q 4896 5152 4896 5120 L 4896 3328 Q 4896 3085 4793 3001 Q 4691 2918 4410 2918 L 1600 2918 z M 2912 544 Q 2880 544 2854 573 Q 2829 602 2829 640 L 2829 1907 L 288 1907 Q 250 1907 221 1932 Q 192 1958 192 1990 L 192 2208 Q 192 2246 221 2268 Q 250 2291 288 2291 L 5728 2291 Q 5760 2291 5792 2268 Q 5824 2246 5824 2208 L 5824 1990 Q 5824 1958 5792 1932 Q 5760 1907 5728 1907 L 3270 1907 L 3270 640 Q 3270 602 3248 573 Q 3226 544 3187 544 L 2912 544 z M 1555 4083 L 1555 3450 Q 1555 3354 1587 3325 Q 1619 3296 1709 3296 L 4307 3296 Q 4397 3296 4429 3325 Q 4461 3354 4461 3450 L 4461 4083 L 1555 4083 z M 5133 -422 Q 5133 -461 5101 -480 Q 5069 -499 5037 -499 L 1510 -499 Q 1210 -499 1117 -374 Q 1024 -250 1024 13 L 1024 1197 Q 1024 1286 1114 1286 L 1376 1286 Q 1466 1286 1466 1197 L 1466 19 Q 1466 -70 1494 -92 Q 1523 -115 1613 -115 L 5037 -115 Q 5069 -115 5101 -137 Q 5133 -160 5133 -192 L 5133 -422 z " transform="scale(0.01)"/><path id="NanumGothic-52e" d="M 1005 4416 Q 1005 4685 1107 4777 Q 1210 4870 1491 4870 L 4493 4870 Q 4646 4870 4739 4851 Q 4832 4832 4886 4781 Q 4941 4730 4960 4640 Q 4979 4550 4979 4416 L 4979 2630 Q 4979 2362 4876 2269 Q 4774 2176 4493 2176 L 3213 2176 L 3213 781 L 5728 781 Q 5760 781 5792 758 Q 5824 736 5824 698 L 5824 480 Q 5824 448 5792 422 Q 5760 397 5728 397 L 288 397 Q 250 397 221 422 Q 192 448 192 480 L 192 698 Q 192 736 221 758 Q 250 781 288 781 L 2771 781 L 2771 2176 L 1491 2176 Q 1338 2176 1245 2195 Q 1152 2214 1097 2268 Q 1043 2323 1024 2409 Q 1005 2496 1005 2630 L 1005 4416 z M 1600 4486 Q 1510 4486 1478 4451 Q 1446 4416 1446 4320 L 1446 2726 Q 1446 2630 1478 2595 Q 1510 2560 1600 2560 L 4384 2560 Q 4474 2560 4506 2595 Q 4538 2630 4538 2726 L 4538 4320 Q 4538 4416 4506 4451 Q 4474 4486 4384 4486 L 1600 4486 z " transform="scale(0.01)"/><path id="NanumGothic-388" d="M 5037 3174 Q 5037 3136 5005 3117 Q 4973 3098 4941 3098 L 1619 3098 Q 1318 3098 1225 3222 Q 1133 3347 1133 3610 L 1133 5088 Q 1133 5178 1222 5178 L 1485 5178 Q 1574 5178 1574 5088 L 1574 3622 Q 1574 3533 1603 3507 Q 1632 3482 1722 3482 L 4941 3482 Q 4973 3482 5005 3459 Q 5037 3437 5037 3405 L 5037 3174 z M 5133 -422 Q 5133 -461 5101 -480 Q 5069 -499 5037 -499 L 1562 -499 Q 1261 -499 1168 -374 Q 1075 -250 1075 13 L 1075 1261 Q 1075 1350 1165 1350 L 1427 1350 Q 1517 1350 1517 1261 L 1517 19 Q 1517 -70 1545 -92 Q 1574 -115 1664 -115 L 5037 -115 Q 5069 -115 5101 -137 Q 5133 -160 5133 -192 L 5133 -422 z M 5728 2240 Q 5760 2240 5792 2217 Q 5824 2195 5824 2157 L 5824 1939 Q 5824 1907 5792 1881 Q 5760 1856 5728 1856 L 288 1856 Q 250 1856 221 1881 Q 192 1907 192 1939 L 192 2157 Q 192 2195 221 2217 Q 250 2240 288 2240 L 5728 2240 z " transform="scale(0.01)"/><path id="NanumGothic-64b" d="M 1299 531 Q 1299 800 1433 1014 Q 1568 1229 1811 1379 Q 2054 1530 2393 1610 Q 2733 1690 3149 1690 Q 3533 1690 3869 1610 Q 4205 1530 4457 1382 Q 4710 1235 4857 1020 Q 5005 806 5005 531 Q 5005 256 4857 38 Q 4710 -179 4457 -329 Q 4205 -480 3869 -560 Q 3533 -640 3149 -640 Q 2733 -640 2393 -560 Q 2054 -480 1811 -329 Q 1568 -179 1433 38 Q 1299 256 1299 531 z M 1754 512 Q 1754 326 1856 182 Q 1958 38 2140 -58 Q 2323 -154 2579 -205 Q 2835 -256 3142 -256 Q 3418 -256 3674 -205 Q 3930 -154 4125 -58 Q 4320 38 4435 182 Q 4550 326 4550 512 Q 4550 704 4435 851 Q 4320 998 4125 1097 Q 3930 1197 3674 1251 Q 3418 1306 3142 1306 Q 2835 1306 2579 1251 Q 2323 1197 2140 1097 Q 1958 998 1856 851 Q 1754 704 1754 512 z M 2342 5056 Q 2342 4589 2246 4186 Q 2323 3917 2460 3673 Q 2598 3430 2784 3219 Q 2970 3008 3190 2838 Q 3411 2669 3654 2554 Q 3693 2534 3689 2499 Q 3686 2464 3674 2438 L 3539 2227 Q 3520 2195 3494 2182 Q 3469 2170 3411 2202 Q 3264 2278 3075 2409 Q 2886 2541 2694 2720 Q 2502 2899 2329 3113 Q 2157 3328 2042 3558 Q 1830 3072 1472 2675 Q 1114 2278 634 1965 Q 602 1946 563 1939 Q 525 1933 499 1965 L 339 2176 Q 320 2202 333 2240 Q 346 2278 378 2298 Q 1139 2765 1523 3475 Q 1907 4186 1894 5062 Q 1894 5165 1971 5165 L 2272 5146 Q 2342 5146 2342 5056 z M 4928 1811 Q 4928 1722 4838 1722 L 4576 1722 Q 4486 1722 4486 1811 L 4486 5197 Q 4486 5286 4576 5286 L 4838 5286 Q 4928 5286 4928 5197 L 4928 3654 L 5811 3654 Q 5850 3654 5878 3632 Q 5907 3610 5907 3571 L 5907 3354 Q 5907 3322 5878 3296 Q 5850 3270 5811 3270 L 4928 3270 L 4928 1811 z " transform="scale(0.01)"/><path id="NanumGothic-6ac" d="M 2854 -576 Q 2822 -576 2796 -547 Q 2771 -518 2771 -480 L 2771 1606 L 288 1606 Q 250 1606 221 1632 Q 192 1658 192 1690 L 192 1907 Q 192 1946 221 1968 Q 250 1990 288 1990 L 5728 1990 Q 5760 1990 5792 1968 Q 5824 1946 5824 1907 L 5824 1690 Q 5824 1658 5792 1632 Q 5760 1606 5728 1606 L 3213 1606 L 3213 -480 Q 3213 -518 3190 -547 Q 3168 -576 3130 -576 L 2854 -576 z M 3232 5146 Q 3219 5062 3200 4985 Q 3181 4909 3162 4838 Q 3181 4768 3206 4707 Q 3232 4646 3264 4589 Q 3373 4378 3584 4163 Q 3795 3949 4070 3760 Q 4346 3571 4666 3424 Q 4986 3277 5325 3194 Q 5363 3181 5376 3142 Q 5389 3104 5376 3072 L 5274 2854 Q 5254 2822 5232 2809 Q 5210 2797 5146 2810 Q 4806 2899 4473 3056 Q 4141 3213 3853 3417 Q 3565 3622 3331 3859 Q 3098 4096 2950 4339 Q 2675 3840 2163 3440 Q 1651 3040 877 2733 Q 774 2694 749 2758 L 627 2982 Q 614 3014 624 3052 Q 634 3091 672 3104 Q 1088 3245 1465 3478 Q 1843 3712 2131 3993 Q 2419 4275 2595 4582 Q 2771 4890 2790 5190 Q 2797 5267 2874 5267 L 3162 5235 Q 3194 5229 3219 5209 Q 3245 5190 3232 5146 z " transform="scale(0.01)"/><path id="NanumGothic-7fa" d="M 3654 2848 Q 3654 2490 3568 2125 Q 3482 1760 3296 1465 Q 3110 1171 2819 982 Q 2528 794 2118 794 Q 1696 794 1405 979 Q 1114 1165 938 1462 Q 762 1760 685 2125 Q 608 2490 608 2848 Q 608 3226 685 3594 Q 762 3962 938 4256 Q 1114 4550 1405 4729 Q 1696 4909 2118 4909 Q 2528 4909 2819 4729 Q 3110 4550 3296 4259 Q 3482 3968 3568 3600 Q 3654 3232 3654 2848 z M 3200 2854 Q 3200 3149 3139 3449 Q 3078 3750 2950 3990 Q 2822 4230 2617 4380 Q 2413 4531 2118 4531 Q 1811 4531 1609 4380 Q 1408 4230 1286 3990 Q 1165 3750 1113 3449 Q 1062 3149 1062 2854 Q 1062 2573 1110 2275 Q 1158 1978 1280 1731 Q 1402 1485 1606 1328 Q 1811 1171 2118 1171 Q 2413 1171 2617 1328 Q 2822 1485 2950 1731 Q 3078 1978 3139 2275 Q 3200 2573 3200 2854 z M 5152 -525 Q 5152 -614 5062 -614 L 4800 -614 Q 4710 -614 4710 -525 L 4710 5197 Q 4710 5286 4800 5286 L 5062 5286 Q 5152 5286 5152 5197 L 5152 -525 z " transform="scale(0.01)"/><path id="NanumGothic-563" d="M 5728 781 Q 5760 781 5792 758 Q 5824 736 5824 698 L 5824 480 Q 5824 448 5792 422 Q 5760 397 5728 397 L 288 397 Q 250 397 221 422 Q 192 448 192 480 L 192 698 Q 192 736 221 758 Q 250 781 288 781 L 5728 781 z M 1005 4416 Q 1005 4685 1107 4777 Q 1210 4870 1491 4870 L 4493 4870 Q 4646 4870 4739 4851 Q 4832 4832 4886 4781 Q 4941 4730 4960 4640 Q 4979 4550 4979 4416 L 4979 2566 Q 4979 2298 4876 2205 Q 4774 2112 4493 2112 L 1491 2112 Q 1338 2112 1245 2131 Q 1152 2150 1097 2204 Q 1043 2259 1024 2345 Q 1005 2432 1005 2566 L 1005 4416 z M 1600 4486 Q 1510 4486 1478 4451 Q 1446 4416 1446 4320 L 1446 2662 Q 1446 2566 1478 2531 Q 1510 2496 1600 2496 L 4384 2496 Q 4474 2496 4506 2531 Q 4538 2566 4538 2662 L 4538 4320 Q 4538 4416 4506 4451 Q 4474 4486 4384 4486 L 1600 4486 z " transform="scale(0.01)"/><path id="NanumGothic-500" d="M 678 4550 Q 678 4819 780 4912 Q 883 5005 1165 5005 L 2925 5005 Q 3078 5005 3171 4985 Q 3264 4966 3318 4915 Q 3373 4864 3392 4774 Q 3411 4685 3411 4550 L 3411 2784 Q 3411 2515 3308 2422 Q 3206 2330 2925 2330 L 1165 2330 Q 1011 2330 918 2349 Q 826 2368 771 2422 Q 717 2477 697 2563 Q 678 2650 678 2784 L 678 4550 z M 1274 4621 Q 1184 4621 1152 4585 Q 1120 4550 1120 4454 L 1120 2880 Q 1120 2784 1152 2749 Q 1184 2714 1274 2714 L 2816 2714 Q 2906 2714 2938 2749 Q 2970 2784 2970 2880 L 2970 4454 Q 2970 4550 2938 4585 Q 2906 4621 2816 4621 L 1274 4621 z M 4698 896 Q 4410 608 3891 314 Q 4070 250 4275 182 Q 4480 115 4685 54 Q 4890 -6 5085 -60 Q 5280 -115 5446 -154 Q 5536 -173 5510 -243 L 5427 -461 Q 5402 -525 5312 -506 Q 4902 -416 4412 -259 Q 3923 -102 3437 83 Q 3002 -122 2506 -298 Q 2010 -474 1472 -602 Q 1376 -634 1350 -563 L 1267 -358 Q 1235 -269 1331 -250 Q 2189 -45 2912 272 Q 3635 589 4186 973 Q 4307 1062 4291 1107 Q 4275 1152 4179 1152 L 1658 1152 Q 1574 1152 1574 1235 L 1574 1459 Q 1574 1536 1658 1536 L 4339 1536 Q 4851 1536 4934 1376 Q 5018 1216 4698 896 z M 4928 1965 Q 4928 1875 4838 1875 L 4576 1875 Q 4486 1875 4486 1965 L 4486 5197 Q 4486 5286 4576 5286 L 4838 5286 Q 4928 5286 4928 5197 L 4928 3846 L 5811 3846 Q 5850 3846 5878 3824 Q 5907 3802 5907 3763 L 5907 3546 Q 5907 3514 5878 3488 Q 5850 3462 5811 3462 L 4928 3462 L 4928 1965 z " transform="scale(0.01)"/><path id="NanumGothic-39f" d="M 4019 1453 Q 4032 1363 3936 1344 Q 3699 1286 3337 1235 Q 2976 1184 2576 1145 Q 2176 1107 1785 1088 Q 1395 1069 1107 1075 Q 819 1082 713 1210 Q 608 1338 608 1606 L 608 4358 Q 608 4627 710 4716 Q 813 4806 1094 4806 L 3296 4806 Q 3379 4806 3379 4730 L 3379 4499 Q 3379 4422 3296 4422 L 1178 4422 Q 1088 4422 1069 4400 Q 1050 4378 1050 4282 L 1050 1638 Q 1050 1542 1082 1510 Q 1114 1478 1203 1472 Q 1510 1459 1852 1475 Q 2195 1491 2544 1526 Q 2893 1562 3229 1610 Q 3565 1658 3866 1715 Q 3968 1734 3987 1645 L 4019 1453 z M 4928 -525 Q 4928 -614 4838 -614 L 4576 -614 Q 4486 -614 4486 -525 L 4486 5197 Q 4486 5286 4576 5286 L 4838 5286 Q 4928 5286 4928 5197 L 4928 2867 L 5811 2867 Q 5850 2867 5878 2844 Q 5907 2822 5907 2784 L 5907 2566 Q 5907 2534 5878 2508 Q 5850 2483 5811 2483 L 4928 2483 L 4928 -525 z " transform="scale(0.01)"/></defs><use xlink:href="#NanumGothic-6db"/><use xlink:href="#NanumGothic-940" transform="translate(94 0)"/><use xlink:href="#NanumGothic-33f0" transform="translate(188 0)"/><use xlink:href="#NanumGothic-14" transform="translate(216 0)"/><use xlink:href="#NanumGothic-6d7" transform="translate(276.59 0)"/><use xlink:href="#NanumGothic-1f1" transform="translate(370.59 0)"/><use xlink:href="#NanumGothic-7e6" transform="translate(464.59 0)"/><use xlink:href="#NanumGothic-4ae" transform="translate(558.59 0)"/><use xlink:href="#NanumGothic-33f0" transform="translate(652.59 0)"/><use xlink:href="#NanumGothic-312" transform="translate(680.59 0)"/><use xlink:href="#NanumGothic-36f" transform="translate(774.59 0)"/><use xlink:href="#NanumGothic-527" transform="translate(868.59 0)"/><use xlink:href="#NanumGothic-33f0" transform="translate(962.59 0)"/><use xlink:href="#NanumGothic-11" transform="translate(990.59 0)"/><use xlink:href="#NanumGothic-10" transform="translate(1051.18 0)"/><use xlink:href="#NanumGothic-10" transform="translate(1111.78 0)"/><use xlink:href="#NanumGothic-33f0" transform="translate(1172.37 0)"/><use xlink:href="#NanumGothic-4f" transform="translate(1200.37 0)"/><use xlink:href="#NanumGothic-4f" transform="translate(1260.96 0)"/><use xlink:href="#NanumGothic-4c" transform="translate(1321.56 0)"/><use xlink:href="#NanumGothic-33f0" transform="translate(1412.35 0)"/><use xlink:href="#NanumGothic-68" transform="translate(1440.35 0)"/><use xlink:href="#NanumGothic-33f0" transform="translate(1526.76 0)"/><use xlink:href="#NanumGothic-23b" transform="translate(1554.76 0)"/><use xlink:href="#NanumGothic-6d7" transform="translate(1648.76 0)"/><use xlink:href="#NanumGothic-7f5" transform="translate(1742.76 0)"/><use xlink:href="#NanumGothic-33f0" transform="translate(1836.76 0)"/><use xlink:href="#NanumGothic-5ca" transform="translate(1864.76 0)"/><use xlink:href="#NanumGothic-52e" transform="translate(1958.76 0)"/><use xlink:href="#NanumGothic-388" transform="translate(2052.76 0)"/><use xlink:href="#NanumGothic-33f0" transform="translate(2146.76 0)"/><use xlink:href="#NanumGothic-64b" transform="translate(2174.76 0)"/><use xlink:href="#NanumGothic-6ac" transform="translate(2268.76 0)"/><use xlink:href="#NanumGothic-33f0" transform="translate(2362.76 0)"/><use xlink:href="#NanumGothic-18" transform="translate(2390.76 0)"/><use xlink:href="#NanumGothic-7fa" transform="translate(2451.35 0)"/><use xlink:href="#NanumGothic-563" transform="translate(2545.35 0)"/><use xlink:href="#NanumGothic-4ae" transform="translate(2639.35 0)"/><use xlink:href="#NanumGothic-33f0" transform="translate(2733.35 0)"/><use xlink:href="#NanumGothic-15" transform="translate(2761.35 0)"/><use xlink:href="#NanumGothic-10" transform="translate(2821.95 0)"/><use xlink:href="#NanumGothic-33f0" transform="translate(2882.54 0)"/><use xlink:href="#NanumGothic-4f" transform="translate(2910.54 0)"/><use xlink:href="#NanumGothic-4f" transform="translate(2971.14 0)"/><use xlink:href="#NanumGothic-4c" transform="translate(3031.73 0)"/><use xlink:href="#NanumGothic-7fa" transform="translate(3122.53 0)"/><use xlink:href="#NanumGothic-33f0" transform="translate(3216.53 0)"/><use xlink:href="#NanumGothic-500" transform="translate(3244.53 0)"/><use xlink:href="#NanumGothic-39f" transform="translate(3338.53 0)"/></g></g><g id="line2d_13"><path d="M 32.37 150.83 L 425.63 150.83 L 425.63 254.78 " clip-path="url(#p6381349161)" style="fill: none; stroke-dasharray: 9.6,4.8; stroke-dashoffset: 0; stroke: #b4544e; stroke-width: 1.6"/></g><g id="patch_7"><path d="M 93.24 122.41 Q 194.59 159.15 294.36 195.31 " clip-path="url(#p6381349161)" style="fill: none; stroke: #12354f; stroke-width: 1.5; stroke-linecap: round"/><path d="M 289.74 190.45 L 294.36 195.31 L 287.70 196.09 z " clip-path="url(#p6381349161)" style="fill: #12354f; stroke: #12354f; stroke-width: 1.5; stroke-linecap: round"/></g><g id="text_18"><g style="fill: #12354f" transform="translate(91.41 93.23) scale(0.1 -0.1)"><defs><path id="NanumGothicBold-11" d="M 1830 -19 Q 1741 -19 1741 64 L 1741 3853 L 1267 3443 Q 1235 3418 1193 3411 Q 1152 3405 1126 3430 L 838 3776 Q 819 3802 822 3837 Q 826 3872 858 3904 L 1837 4806 Q 1850 4819 1882 4832 Q 1914 4845 1933 4845 L 2272 4845 Q 2381 4845 2403 4822 Q 2426 4800 2426 4672 L 2426 64 Q 2426 -19 2342 -19 L 1830 -19 z " transform="scale(0.01)"/><path id="NanumGothicBold-7d" d="M 3507 1120 Q 3539 1088 3539 1049 Q 3539 1011 3507 979 L 3238 698 Q 3206 666 3164 666 Q 3123 666 3091 698 L 1894 1894 L 685 691 Q 595 614 544 691 L 275 966 Q 243 998 243 1043 Q 243 1088 275 1120 L 1478 2323 L 320 3469 Q 288 3501 288 3539 Q 288 3578 320 3610 L 595 3891 Q 672 3968 742 3891 L 1901 2752 L 3072 3910 Q 3104 3942 3145 3942 Q 3187 3942 3219 3910 L 3475 3635 Q 3507 3603 3507 3558 Q 3507 3514 3475 3482 L 2317 2317 L 3507 1120 z " transform="scale(0.01)"/></defs><use xlink:href="#NanumGothicBold-11"/><use xlink:href="#NanumGothicBold-10" transform="translate(60.59 0)"/><use xlink:href="#NanumGothicBold-10" transform="translate(121.18 0)"/><use xlink:href="#NanumGothicBold-34dd" transform="translate(181.78 0)"/><use xlink:href="#NanumGothicBold-4f" transform="translate(209.78 0)"/><use xlink:href="#NanumGothicBold-4f" transform="translate(270.37 0)"/><use xlink:href="#NanumGothicBold-4c" transform="translate(330.96 0)"/><use xlink:href="#NanumGothicBold-34dd" transform="translate(421.76 0)"/><use xlink:href="#NanumGothicBold-7d" transform="translate(449.76 0)"/><use xlink:href="#NanumGothicBold-34dd" transform="translate(508.96 0)"/><use xlink:href="#NanumGothicBold-14" transform="translate(536.96 0)"/><use xlink:href="#NanumGothicBold-6d5" transform="translate(597.56 0)"/><use xlink:href="#NanumGothicBold-1ef" transform="translate(691.56 0)"/></g><g style="fill: #12354f" transform="translate(100.45 107.08) scale(0.1 -0.1)"><use xlink:href="#NanumGothicBold-1d"/><use xlink:href="#NanumGothicBold-34dd" transform="translate(65.40 0)"/><use xlink:href="#NanumGothicBold-14" transform="translate(93.40 0)"/><use xlink:href="#NanumGothicBold-10" transform="translate(154 0)"/><use xlink:href="#NanumGothicBold-10" transform="translate(214.59 0)"/><use xlink:href="#NanumGothicBold-34dd" transform="translate(275.18 0)"/><use xlink:href="#NanumGothicBold-4f" transform="translate(303.18 0)"/><use xlink:href="#NanumGothicBold-4f" transform="translate(363.78 0)"/><use xlink:href="#NanumGothicBold-4c" transform="translate(424.37 0)"/><use xlink:href="#NanumGothicBold-63" transform="translate(515.17 0)"/><use xlink:href="#NanumGothicBold-47" transform="translate(544.17 0)"/></g></g><g id="text_19"><g style="fill: #64798a" transform="translate(309.14 205.99) scale(0.09 -0.09)"><defs><path id="NanumGothic-353" d="M 5101 2368 Q 5101 2330 5069 2310 Q 5037 2291 5005 2291 L 3213 2291 L 3213 781 L 5728 781 Q 5760 781 5792 758 Q 5824 736 5824 698 L 5824 480 Q 5824 448 5792 422 Q 5760 397 5728 397 L 288 397 Q 250 397 221 422 Q 192 448 192 480 L 192 698 Q 192 736 221 758 Q 250 781 288 781 L 2771 781 L 2771 2291 L 1568 2291 Q 1267 2291 1174 2416 Q 1082 2541 1082 2803 L 1082 4819 Q 1082 4909 1171 4909 L 1434 4909 Q 1523 4909 1523 4819 L 1523 2810 Q 1523 2720 1552 2697 Q 1581 2675 1670 2675 L 5005 2675 Q 5037 2675 5069 2652 Q 5101 2630 5101 2598 L 5101 2368 z " transform="scale(0.01)"/><path id="NanumGothic-92a" d="M 5056 -499 Q 5056 -531 5027 -553 Q 4998 -576 4973 -576 L 1568 -576 Q 1267 -576 1174 -477 Q 1082 -378 1082 -109 L 1082 288 Q 1082 557 1197 633 Q 1312 710 1594 710 L 4352 710 Q 4442 710 4464 736 Q 4486 762 4486 858 L 4486 1069 Q 4486 1165 4464 1190 Q 4442 1216 4352 1216 L 1158 1216 Q 1126 1216 1097 1235 Q 1069 1254 1069 1286 L 1069 1510 Q 1069 1542 1097 1561 Q 1126 1581 1158 1581 L 2771 1581 L 2771 2189 L 288 2189 Q 250 2189 221 2214 Q 192 2240 192 2272 L 192 2490 Q 192 2528 221 2550 Q 250 2573 288 2573 L 5728 2573 Q 5760 2573 5792 2550 Q 5824 2528 5824 2490 L 5824 2272 Q 5824 2240 5792 2214 Q 5760 2189 5728 2189 L 3219 2189 L 3219 1581 L 4416 1581 Q 4570 1581 4666 1558 Q 4762 1536 4819 1485 Q 4877 1434 4899 1341 Q 4922 1248 4922 1114 L 4922 800 Q 4922 531 4810 438 Q 4698 346 4410 346 L 1651 346 Q 1562 346 1539 320 Q 1517 294 1517 198 L 1517 -58 Q 1517 -147 1542 -176 Q 1568 -205 1658 -205 L 4966 -205 Q 4998 -205 5027 -224 Q 5056 -243 5056 -275 L 5056 -499 z M 4358 3910 Q 4211 3808 4006 3715 Q 3802 3622 3558 3533 Q 3738 3501 3946 3472 Q 4154 3443 4365 3417 Q 4576 3392 4781 3373 Q 4986 3354 5171 3347 Q 5210 3341 5232 3325 Q 5254 3309 5242 3251 L 5210 3053 Q 5197 3008 5177 2989 Q 5158 2970 5094 2976 Q 4883 2989 4598 3024 Q 4314 3059 4006 3107 Q 3699 3155 3404 3212 Q 3110 3270 2886 3322 Q 2406 3187 1907 3081 Q 1408 2976 973 2912 Q 909 2899 886 2915 Q 864 2931 851 2970 L 806 3168 Q 787 3264 870 3277 Q 1254 3328 1680 3414 Q 2106 3501 2506 3600 Q 2906 3699 3248 3808 Q 3590 3917 3802 4013 Q 3936 4077 3923 4118 Q 3910 4160 3821 4160 L 1274 4160 Q 1190 4160 1190 4243 L 1190 4448 Q 1190 4525 1274 4525 L 3955 4525 Q 4218 4525 4394 4483 Q 4570 4442 4637 4365 Q 4704 4288 4640 4173 Q 4576 4058 4358 3910 z M 3814 5306 Q 3910 5306 3910 5216 L 3910 5011 Q 3910 4915 3814 4915 L 2131 4915 Q 2035 4915 2035 5011 L 2035 5216 Q 2035 5306 2131 5306 L 3814 5306 z " transform="scale(0.01)"/><path id="NanumGothic-76a" d="M 5152 2042 Q 5152 1952 5062 1952 L 4800 1952 Q 4710 1952 4710 2042 L 4710 3501 L 3584 3501 Q 3546 3232 3414 3001 Q 3283 2771 3081 2608 Q 2880 2445 2621 2352 Q 2362 2259 2074 2259 Q 1766 2259 1494 2364 Q 1222 2470 1017 2659 Q 813 2848 694 3110 Q 576 3373 576 3693 Q 576 4032 694 4297 Q 813 4563 1017 4748 Q 1222 4934 1494 5033 Q 1766 5133 2074 5133 Q 2342 5133 2598 5049 Q 2854 4966 3062 4806 Q 3270 4646 3408 4412 Q 3546 4179 3584 3885 L 4710 3885 L 4710 5197 Q 4710 5286 4800 5286 L 5062 5286 Q 5152 5286 5152 5197 L 5152 2042 z M 1619 -685 Q 1466 -685 1373 -665 Q 1280 -646 1229 -592 Q 1178 -538 1158 -451 Q 1139 -365 1139 -230 L 1139 1568 Q 1139 1600 1164 1619 Q 1190 1638 1222 1638 L 1472 1638 Q 1504 1638 1526 1616 Q 1549 1594 1549 1568 L 1549 902 L 2707 902 L 2707 1536 Q 2707 1568 2729 1593 Q 2752 1619 2784 1619 L 3034 1619 Q 3066 1619 3091 1596 Q 3117 1574 3117 1542 L 3117 -275 Q 3117 -518 3014 -601 Q 2912 -685 2630 -685 L 1619 -685 z M 3149 3699 Q 3149 3949 3059 4141 Q 2970 4333 2819 4464 Q 2669 4595 2477 4662 Q 2285 4730 2074 4730 Q 1862 4730 1670 4662 Q 1478 4595 1334 4467 Q 1190 4339 1107 4144 Q 1024 3949 1024 3699 Q 1024 3462 1104 3270 Q 1184 3078 1325 2940 Q 1466 2803 1658 2729 Q 1850 2656 2074 2656 Q 2285 2656 2477 2729 Q 2669 2803 2819 2937 Q 2970 3072 3059 3264 Q 3149 3456 3149 3699 z M 5498 -608 Q 5107 -365 4857 -115 Q 4608 134 4467 442 Q 4320 134 4086 -131 Q 3853 -397 3507 -666 Q 3482 -678 3443 -684 Q 3405 -691 3373 -659 L 3200 -486 Q 3136 -410 3226 -352 Q 3750 19 4009 476 Q 4269 934 4256 1581 Q 4256 1613 4275 1648 Q 4294 1683 4333 1677 L 4627 1670 Q 4698 1670 4698 1587 Q 4698 1440 4685 1305 Q 4672 1171 4653 1043 Q 4742 640 5014 313 Q 5286 -13 5702 -243 Q 5792 -288 5741 -371 L 5619 -576 Q 5587 -614 5564 -624 Q 5542 -634 5498 -608 z M 1549 512 L 1549 -141 Q 1549 -237 1581 -265 Q 1613 -294 1702 -294 L 2554 -294 Q 2643 -294 2675 -265 Q 2707 -237 2707 -141 L 2707 512 L 1549 512 z " transform="scale(0.01)"/><path id="NanumGothic-7eb" d="M 1075 954 Q 1075 1222 1177 1315 Q 1280 1408 1562 1408 L 4442 1408 Q 4595 1408 4688 1389 Q 4781 1370 4835 1318 Q 4890 1267 4909 1177 Q 4928 1088 4928 954 L 4928 -109 Q 4928 -378 4825 -470 Q 4723 -563 4442 -563 L 1562 -563 Q 1408 -563 1315 -544 Q 1222 -525 1168 -470 Q 1114 -416 1094 -329 Q 1075 -243 1075 -109 L 1075 954 z M 1670 1024 Q 1581 1024 1549 989 Q 1517 954 1517 858 L 1517 -13 Q 1517 -109 1549 -144 Q 1581 -179 1670 -179 L 4333 -179 Q 4422 -179 4454 -144 Q 4486 -109 4486 -13 L 4486 858 Q 4486 954 4454 989 Q 4422 1024 4333 1024 L 1670 1024 z M 5728 2426 Q 5760 2426 5792 2403 Q 5824 2381 5824 2342 L 5824 2125 Q 5824 2093 5792 2067 Q 5760 2042 5728 2042 L 288 2042 Q 250 2042 221 2067 Q 192 2093 192 2125 L 192 2342 Q 192 2381 221 2403 Q 250 2426 288 2426 L 5728 2426 z M 2995 2950 Q 2675 2950 2323 3004 Q 1971 3059 1680 3187 Q 1389 3315 1197 3536 Q 1005 3757 1005 4083 Q 1005 4410 1197 4624 Q 1389 4838 1680 4969 Q 1971 5101 2323 5155 Q 2675 5210 2995 5210 Q 3322 5210 3674 5146 Q 4026 5082 4317 4947 Q 4608 4813 4797 4598 Q 4986 4384 4986 4083 Q 4986 3776 4797 3561 Q 4608 3347 4313 3212 Q 4019 3078 3670 3014 Q 3322 2950 2995 2950 z M 2995 4813 Q 2771 4813 2505 4777 Q 2240 4742 2009 4656 Q 1779 4570 1625 4429 Q 1472 4288 1472 4077 Q 1472 3872 1625 3731 Q 1779 3590 2009 3504 Q 2240 3418 2505 3382 Q 2771 3347 2995 3347 Q 3213 3347 3478 3382 Q 3744 3418 3974 3504 Q 4205 3590 4361 3731 Q 4518 3872 4518 4077 Q 4518 4288 4361 4429 Q 4205 4570 3974 4656 Q 3744 4742 3478 4777 Q 3213 4813 2995 4813 z " transform="scale(0.01)"/></defs><use xlink:href="#NanumGothic-353"/><use xlink:href="#NanumGothic-92a" transform="translate(94 0)"/><use xlink:href="#NanumGothic-33f0" transform="translate(188 0)"/><use xlink:href="#NanumGothic-76a" transform="translate(216 0)"/><use xlink:href="#NanumGothic-7eb" transform="translate(310 0)"/></g><g style="fill: #64798a" transform="translate(289.62 218.37) scale(0.09 -0.09)"><use xlink:href="#NanumGothic-8"/><use xlink:href="#NanumGothic-10" transform="translate(36.29 0)"/><use xlink:href="#NanumGothic-33f0" transform="translate(96.89 0)"/><use xlink:href="#NanumGothic-4f" transform="translate(124.89 0)"/><use xlink:href="#NanumGothic-4f" transform="translate(185.48 0)"/><use xlink:href="#NanumGothic-4c" transform="translate(246.07 0)"/><use xlink:href="#NanumGothic-7e6" transform="translate(336.87 0)"/><use xlink:href="#NanumGothic-4ae" transform="translate(430.87 0)"/><use xlink:href="#NanumGothic-33f0" transform="translate(524.87 0)"/><use xlink:href="#NanumGothic-14" transform="translate(552.87 0)"/><use xlink:href="#NanumGothic-6d7" transform="translate(613.46 0)"/><use xlink:href="#NanumGothic-1f1" transform="translate(707.46 0)"/><use xlink:href="#NanumGothic-9" transform="translate(801.46 0)"/></g></g></g></g><defs><clipPath id="p6381349161"><rect x="32.37" y="21.93" width="412.92" height="232.84"/></clipPath></defs></svg>