<svg xmlns:xlink="http://www.w3.org/1999/xlink" width="502.74pt" height="348.25pt" viewBox="0 0 502.74 348.25" xmlns="http://www.w3.org/2000/svg" version="1.1"><defs><style type="text/css">*{stroke-linejoin: round; stroke-linecap: butt}</style></defs><g id="figure_1"><g id="patch_1"><path d="M 0 348.25 L 502.74 348.25 L 502.74 0 L 0 0 z " style="fill: #ffffff"/></g><g id="axes_1"><g id="patch_2"><path d="M 25.85 285.02 L 438.77 285.02 L 438.77 30.00 L 25.85 30.00 z " style="fill: #ffffff"/></g><g id="patch_3"><path d="M 47.61 285.02 L 220.55 285.02 L 220.55 30.00 L 47.61 30.00 z " clip-path="url(#pc56096ba57)" style="fill: #eef5fa; stroke: #eef5fa; stroke-linejoin: miter"/></g><g id="matplotlib.axis_1"><g id="xtick_1"><g id="line2d_1"><defs><path id="mecb04f5e20" d="M 0 0 L 0 3.5 " style="stroke: #1c2b36; stroke-width: 0.8"/></defs><g><use xlink:href="#mecb04f5e20" x="47.61" y="285.02" style="fill: #1c2b36; stroke: #1c2b36; stroke-width: 0.8"/></g></g><g id="text_1"><g style="fill: #1c2b36" transform="translate(38.86 299.79) scale(0.1 -0.1)"><defs><path id="NanumBarunGothic-35" d="M 435 557 Q 742 352 1062 253 Q 1382 154 1747 154 Q 1997 160 2208 246 Q 2419 333 2572 480 Q 2726 627 2812 828 Q 2899 1030 2899 1274 Q 2899 1555 2793 1750 Q 2688 1946 2499 2067 Q 2310 2189 2057 2243 Q 1805 2298 1510 2298 Q 1286 2298 1030 2266 Q 774 2234 544 2182 L 678 4595 L 3187 4595 L 3187 4154 L 1139 4154 L 1043 2669 L 1056 2669 Q 1242 2688 1408 2701 Q 1574 2714 1741 2714 Q 2118 2714 2432 2621 Q 2746 2528 2973 2352 Q 3200 2176 3325 1917 Q 3450 1658 3450 1331 Q 3450 992 3331 694 Q 3213 397 2989 179 Q 2765 -38 2445 -163 Q 2125 -288 1728 -288 Q 1299 -282 966 -195 Q 634 -109 365 83 L 365 525 Q 365 563 387 572 Q 410 582 435 557 z " transform="scale(0.01)"/><path id="NanumBarunGothic-30" d="M 1869 4704 Q 2630 4704 3036 4070 Q 3443 3437 3443 2150 Q 3443 870 3033 281 Q 2624 -307 1869 -307 Q 1491 -307 1196 -163 Q 902 -19 700 281 Q 499 582 396 1046 Q 294 1510 294 2150 Q 294 3437 700 4070 Q 1107 4704 1869 4704 z M 1869 4256 Q 851 4256 851 2138 Q 851 1082 1104 608 Q 1357 134 1869 134 Q 2374 134 2630 608 Q 2886 1082 2886 2138 Q 2886 4256 1869 4256 z " transform="scale(0.01)"/></defs><use xlink:href="#NanumBarunGothic-35"/><use xlink:href="#NanumBarunGothic-30" transform="translate(58.29 0)"/><use xlink:href="#NanumBarunGothic-30" transform="translate(116.59 0)"/></g></g></g><g id="xtick_2"><g id="line2d_2"><g><use xlink:href="#mecb04f5e20" x="134.08" y="285.02" style="fill: #1c2b36; stroke: #1c2b36; stroke-width: 0.8"/></g></g><g id="text_2"><g style="fill: #1c2b36" transform="translate(120.93 299.79) scale(0.1 -0.1)"><defs><path id="NanumBarunGothic-31" d="M 781 3546 L 781 3942 Q 1043 4058 1276 4227 Q 1510 4397 1709 4621 L 2285 4621 L 2285 -230 L 1734 -230 L 1734 4019 L 1728 4019 Q 1510 3846 1289 3721 Q 1069 3597 845 3514 Q 781 3488 781 3546 z " transform="scale(0.01)"/><path id="NanumBarunGothic-2c" d="M 410 186 Q 410 358 531 473 Q 653 589 858 589 Q 1062 589 1193 435 Q 1325 282 1325 58 Q 1325 -147 1257 -323 Q 1190 -499 1078 -646 Q 966 -794 816 -902 Q 666 -1011 493 -1069 L 378 -826 Q 563 -755 691 -624 Q 819 -493 870 -326 Q 890 -250 877 -218 Q 864 -186 794 -186 Q 646 -186 528 -74 Q 410 38 410 186 z " transform="scale(0.01)"/></defs><use xlink:href="#NanumBarunGothic-31"/><use xlink:href="#NanumBarunGothic-2c" transform="translate(58.29 0)"/><use xlink:href="#NanumBarunGothic-30" transform="translate(87.99 0)"/><use xlink:href="#NanumBarunGothic-30" transform="translate(146.29 0)"/><use xlink:href="#NanumBarunGothic-30" transform="translate(204.59 0)"/></g></g></g><g id="xtick_3"><g id="line2d_3"><g><use xlink:href="#mecb04f5e20" x="220.55" y="285.02" style="fill: #1c2b36; stroke: #1c2b36; stroke-width: 0.8"/></g></g><g id="text_3"><g style="fill: #1c2b36" transform="translate(207.41 299.79) scale(0.1 -0.1)"><defs><path id="NanumBarunGothic-32" d="M 582 3693 Q 512 3622 512 3718 L 512 4198 Q 781 4410 1101 4557 Q 1421 4704 1850 4704 Q 2547 4704 2908 4387 Q 3270 4070 3270 3418 Q 3270 3200 3200 3001 Q 3130 2803 3005 2601 Q 2880 2400 2704 2182 Q 2528 1965 2317 1709 L 1011 224 L 1011 218 L 3341 218 L 3341 -230 L 352 -230 L 352 250 L 1843 1926 Q 2093 2246 2259 2460 Q 2426 2675 2525 2838 Q 2624 3002 2665 3136 Q 2707 3270 2707 3430 Q 2707 3821 2505 4038 Q 2304 4256 1862 4256 Q 1555 4256 1235 4112 Q 915 3968 582 3693 z " transform="scale(0.01)"/></defs><use xlink:href="#NanumBarunGothic-32"/><use xlink:href="#NanumBarunGothic-2c" transform="translate(58.29 0)"/><use xlink:href="#NanumBarunGothic-30" transform="translate(87.99 0)"/><use xlink:href="#NanumBarunGothic-30" transform="translate(146.29 0)"/><use xlink:href="#NanumBarunGothic-30" transform="translate(204.59 0)"/></g></g></g><g id="xtick_4"><g id="line2d_4"><g><use xlink:href="#mecb04f5e20" x="307.03" y="285.02" style="fill: #1c2b36; stroke: #1c2b36; stroke-width: 0.8"/></g></g><g id="text_4"><g style="fill: #1c2b36" transform="translate(293.88 299.79) scale(0.1 -0.1)"><defs><path id="NanumBarunGothic-34" d="M 134 877 L 134 1421 L 2259 4621 L 2918 4621 L 2918 1325 L 3642 1325 L 3642 877 L 2918 877 L 2918 -230 L 2374 -230 L 2374 877 L 134 877 z M 2221 3795 L 595 1318 L 595 1312 L 2400 1312 L 2400 3782 L 2406 4141 L 2221 3795 z " transform="scale(0.01)"/></defs><use xlink:href="#NanumBarunGothic-34"/><use xlink:href="#NanumBarunGothic-2c" transform="translate(58.29 0)"/><use xlink:href="#NanumBarunGothic-30" transform="translate(87.99 0)"/><use xlink:href="#NanumBarunGothic-30" transform="translate(146.29 0)"/><use xlink:href="#NanumBarunGothic-30" transform="translate(204.59 0)"/></g></g></g><g id="xtick_5"><g id="line2d_5"><g><use xlink:href="#mecb04f5e20" x="393.50" y="285.02" style="fill: #1c2b36; stroke: #1c2b36; stroke-width: 0.8"/></g></g><g id="text_5"><g style="fill: #1c2b36" transform="translate(380.36 299.79) scale(0.1 -0.1)"><defs><path id="NanumBarunGothic-38" d="M 1862 160 Q 2080 160 2275 227 Q 2470 294 2617 416 Q 2765 538 2848 714 Q 2931 890 2931 1114 Q 2931 1331 2848 1513 Q 2765 1696 2617 1830 Q 2470 1965 2275 2038 Q 2080 2112 1862 2112 Q 1638 2112 1446 2038 Q 1254 1965 1107 1830 Q 960 1696 877 1513 Q 794 1331 794 1114 Q 794 890 877 714 Q 960 538 1107 416 Q 1254 294 1446 227 Q 1638 160 1862 160 z M 1862 2573 Q 2042 2573 2214 2630 Q 2387 2688 2521 2797 Q 2656 2906 2739 3066 Q 2822 3226 2822 3430 Q 2822 3629 2745 3789 Q 2669 3949 2537 4064 Q 2406 4179 2233 4240 Q 2061 4301 1862 4301 Q 1664 4301 1491 4240 Q 1318 4179 1187 4064 Q 1056 3949 979 3789 Q 902 3629 902 3430 Q 902 3226 985 3066 Q 1069 2906 1203 2797 Q 1338 2688 1510 2630 Q 1683 2573 1862 2573 z M 1862 -288 Q 1453 -288 1149 -189 Q 845 -90 643 86 Q 442 262 339 505 Q 237 749 237 1030 Q 237 1498 477 1843 Q 717 2189 1235 2323 L 1235 2336 Q 832 2464 589 2742 Q 346 3021 346 3424 Q 346 3686 438 3920 Q 531 4154 720 4326 Q 909 4499 1193 4601 Q 1478 4704 1862 4704 Q 2246 4704 2531 4601 Q 2816 4499 3005 4326 Q 3194 4154 3286 3920 Q 3379 3686 3379 3424 Q 3379 3021 3136 2742 Q 2893 2464 2490 2336 L 2490 2323 Q 3008 2189 3248 1843 Q 3488 1498 3488 1030 Q 3488 749 3385 505 Q 3283 262 3081 86 Q 2880 -90 2576 -189 Q 2272 -288 1862 -288 z " transform="scale(0.01)"/></defs><use xlink:href="#NanumBarunGothic-38"/><use xlink:href="#NanumBarunGothic-2c" transform="translate(58.29 0)"/><use xlink:href="#NanumBarunGothic-30" transform="translate(87.99 0)"/><use xlink:href="#NanumBarunGothic-30" transform="translate(146.29 0)"/><use xlink:href="#NanumBarunGothic-30" transform="translate(204.59 0)"/></g></g></g><g id="xtick_6"><g id="line2d_6"><defs><path id="m0f1a91d534" d="M 0 0 L 0 2 " style="stroke: #1c2b36; stroke-width: 0.6"/></defs><g><use xlink:href="#m0f1a91d534" x="70.35" y="285.02" style="fill: #1c2b36; stroke: #1c2b36; stroke-width: 0.6"/></g></g></g><g id="xtick_7"><g id="line2d_7"><g><use xlink:href="#m0f1a91d534" x="89.58" y="285.02" style="fill: #1c2b36; stroke: #1c2b36; stroke-width: 0.6"/></g></g></g><g id="xtick_8"><g id="line2d_8"><g><use xlink:href="#m0f1a91d534" x="106.24" y="285.02" style="fill: #1c2b36; stroke: #1c2b36; stroke-width: 0.6"/></g></g></g><g id="xtick_9"><g id="line2d_9"><g><use xlink:href="#m0f1a91d534" x="120.94" y="285.02" style="fill: #1c2b36; stroke: #1c2b36; stroke-width: 0.6"/></g></g></g><g id="xtick_10"><g id="line2d_10"><g><use xlink:href="#m0f1a91d534" x="271.14" y="285.02" style="fill: #1c2b36; stroke: #1c2b36; stroke-width: 0.6"/></g></g></g><g id="xtick_11"><g id="line2d_11"><g><use xlink:href="#m0f1a91d534" x="334.86" y="285.02" style="fill: #1c2b36; stroke: #1c2b36; stroke-width: 0.6"/></g></g></g><g id="xtick_12"><g id="line2d_12"><g><use xlink:href="#m0f1a91d534" x="357.61" y="285.02" style="fill: #1c2b36; stroke: #1c2b36; stroke-width: 0.6"/></g></g></g><g id="xtick_13"><g id="line2d_13"><g><use xlink:href="#m0f1a91d534" x="376.84" y="285.02" style="fill: #1c2b36; stroke: #1c2b36; stroke-width: 0.6"/></g></g></g><g id="xtick_14"><g id="line2d_14"><g><use xlink:href="#m0f1a91d534" x="408.19" y="285.02" style="fill: #1c2b36; stroke: #1c2b36; stroke-width: 0.6"/></g></g></g><g id="text_6"><g style="fill: #1c2b36" transform="translate(204.91 315.15) scale(0.11 -0.11)"><defs><path id="NanumBarunGothic-c8fc" d="M 134 1747 L 5574 1747 L 5574 1267 L 3181 1267 L 3181 -819 L 2618 -819 L 2618 1267 L 134 1267 L 134 1747 z M 4486 4614 Q 4326 4256 4054 3952 Q 3782 3648 3411 3379 Q 3814 3181 4281 3021 Q 4749 2861 5267 2752 L 4992 2285 Q 4429 2426 3920 2624 Q 3411 2822 2950 3091 Q 2477 2822 1920 2614 Q 1363 2406 742 2253 L 474 2714 Q 1082 2842 1594 3024 Q 2106 3206 2509 3417 Q 2912 3629 3206 3856 Q 3501 4083 3667 4314 Q 3302 4294 2950 4291 Q 2598 4288 2240 4288 L 1037 4288 L 1037 4762 L 2688 4762 Q 3104 4762 3523 4762 Q 3942 4762 4397 4774 Q 4467 4781 4492 4723 Q 4518 4666 4486 4614 z " transform="scale(0.01)"/><path id="NanumBarunGothic-d30c" d="M 166 4032 L 166 4493 L 3456 4493 L 3456 4032 L 166 4032 z M 774 1222 L 723 3795 L 1254 3795 L 1306 1222 L 1952 1222 Q 2067 1222 2185 1222 Q 2304 1222 2426 1229 L 2464 3795 L 2995 3795 L 2957 1261 Q 3200 1286 3433 1318 Q 3667 1350 3878 1402 L 3878 941 Q 3488 832 2982 790 Q 2477 749 1958 749 L 70 749 L 70 1222 L 774 1222 z M 5696 2394 L 4691 2394 L 4691 -851 L 4141 -851 L 4141 4992 L 4691 4992 L 4691 2880 L 5696 2880 L 5696 2394 z " transform="scale(0.01)"/><path id="NanumBarunGothic-c218" d="M 3283 4890 Q 3296 4704 3254 4518 Q 3213 4333 3136 4154 Q 3270 3936 3500 3737 Q 3731 3539 4019 3379 Q 4307 3219 4627 3100 Q 4947 2982 5254 2918 L 4954 2464 Q 4314 2611 3763 2940 Q 3213 3270 2842 3686 Q 2662 3456 2428 3254 Q 2195 3053 1926 2889 Q 1658 2726 1366 2601 Q 1075 2477 787 2400 L 486 2842 Q 960 2957 1366 3161 Q 1773 3366 2070 3635 Q 2368 3904 2534 4224 Q 2701 4544 2694 4890 L 3283 4890 z M 134 1299 L 134 1766 L 5574 1766 L 5574 1299 L 3194 1299 L 3194 -819 L 2630 -819 L 2630 1299 L 134 1299 z " transform="scale(0.01)"/><path id="NanumBarunGothic-20" transform="scale(0.01)"/><path id="NanumBarunGothic-28" d="M 973 2029 Q 973 2438 1069 2851 Q 1165 3264 1334 3651 Q 1504 4038 1734 4387 Q 1965 4736 2234 5018 L 2656 5018 Q 2112 4262 1840 3504 Q 1568 2746 1568 2029 Q 1568 1312 1840 553 Q 2112 -205 2656 -960 L 2234 -960 Q 1965 -678 1734 -329 Q 1504 19 1334 406 Q 1165 794 1069 1206 Q 973 1619 973 2029 z " transform="scale(0.01)"/><path id="NanumBarunGothic-48" d="M 4032 4614 L 4032 -230 L 3469 -230 L 3469 2195 L 1107 2195 L 1107 -230 L 544 -230 L 544 4614 L 1107 4614 L 1107 2675 L 3469 2675 L 3469 4614 L 4032 4614 z " transform="scale(0.01)"/><path id="NanumBarunGothic-7a" d="M 2842 218 L 2842 -230 L 192 -230 L 192 192 L 2202 2822 L 275 2822 L 275 3264 L 2810 3264 L 2810 2874 L 794 218 L 2842 218 z " transform="scale(0.01)"/><path id="NanumBarunGothic-29" d="M 1939 2029 Q 1939 1619 1843 1206 Q 1747 794 1577 406 Q 1408 19 1177 -329 Q 947 -678 678 -960 L 256 -960 Q 800 -205 1072 553 Q 1344 1312 1344 2029 Q 1344 2746 1072 3504 Q 800 4262 256 5018 L 678 5018 Q 947 4736 1177 4387 Q 1408 4038 1577 3651 Q 1747 3264 1843 2851 Q 1939 2438 1939 2029 z " transform="scale(0.01)"/></defs><use xlink:href="#NanumBarunGothic-c8fc"/><use xlink:href="#NanumBarunGothic-d30c" transform="translate(89.19 0)"/><use xlink:href="#NanumBarunGothic-c218" transform="translate(178.39 0)"/><use xlink:href="#NanumBarunGothic-20" transform="translate(267.59 0)"/><use xlink:href="#NanumBarunGothic-28" transform="translate(289.99 0)"/><use xlink:href="#NanumBarunGothic-48" transform="translate(334.59 0)"/><use xlink:href="#NanumBarunGothic-7a" transform="translate(406.39 0)"/><use xlink:href="#NanumBarunGothic-29" transform="translate(453.69 0)"/></g></g></g><g id="matplotlib.axis_2"><g id="ytick_1"><g id="line2d_15"><defs><path id="mefe1a27b1b" d="M 0 0 L -3.5 0 " style="stroke: #1c2b36; stroke-width: 0.8"/></defs><g><use xlink:href="#mefe1a27b1b" x="25.85" y="67.50" style="fill: #1c2b36; stroke: #1c2b36; stroke-width: 0.8"/></g></g><g id="text_7"><g style="fill: #1c2b36" transform="translate(13.02 71.39) scale(0.1 -0.1)"><use xlink:href="#NanumBarunGothic-30"/></g></g></g><g id="ytick_2"><g id="line2d_16"><g><use xlink:href="#mefe1a27b1b" x="25.85" y="105.00" style="fill: #1c2b36; stroke: #1c2b36; stroke-width: 0.8"/></g></g><g id="text_8"><g style="fill: #1c2b36" transform="translate(7.2 108.89) scale(0.1 -0.1)"><use xlink:href="#NanumBarunGothic-31"/><use xlink:href="#NanumBarunGothic-30" transform="translate(58.29 0)"/></g></g></g><g id="ytick_3"><g id="line2d_17"><g><use xlink:href="#mefe1a27b1b" x="25.85" y="142.51" style="fill: #1c2b36; stroke: #1c2b36; stroke-width: 0.8"/></g></g><g id="text_9"><g style="fill: #1c2b36" transform="translate(7.2 146.39) scale(0.1 -0.1)"><use xlink:href="#NanumBarunGothic-32"/><use xlink:href="#NanumBarunGothic-30" transform="translate(58.29 0)"/></g></g></g><g id="ytick_4"><g id="line2d_18"><g><use xlink:href="#mefe1a27b1b" x="25.85" y="180.01" style="fill: #1c2b36; stroke: #1c2b36; stroke-width: 0.8"/></g></g><g id="text_10"><g style="fill: #1c2b36" transform="translate(7.2 183.90) scale(0.1 -0.1)"><defs><path id="NanumBarunGothic-33" d="M 1837 -288 Q 1408 -282 1014 -154 Q 621 -26 378 205 L 378 666 Q 378 710 400 720 Q 422 730 454 698 Q 800 410 1136 285 Q 1472 160 1850 160 Q 2061 160 2240 227 Q 2419 294 2553 419 Q 2688 544 2765 710 Q 2842 877 2842 1082 Q 2842 2074 1651 2074 L 1478 2074 L 1478 2528 L 1555 2528 Q 1786 2534 1997 2576 Q 2208 2618 2368 2717 Q 2528 2816 2624 2989 Q 2720 3162 2720 3437 Q 2720 3866 2467 4064 Q 2214 4262 1830 4262 Q 1523 4262 1196 4140 Q 870 4019 589 3770 Q 563 3750 540 3756 Q 518 3763 518 3802 L 518 4275 Q 614 4358 748 4435 Q 883 4512 1049 4573 Q 1216 4634 1411 4672 Q 1606 4710 1818 4710 Q 2138 4710 2410 4633 Q 2682 4557 2877 4400 Q 3072 4243 3181 4009 Q 3290 3776 3290 3469 Q 3290 3245 3226 3056 Q 3162 2867 3046 2716 Q 2931 2566 2771 2464 Q 2611 2362 2419 2323 L 2419 2310 Q 2880 2208 3142 1923 Q 3405 1638 3405 1101 Q 3405 832 3305 579 Q 3206 326 3008 134 Q 2810 -58 2518 -173 Q 2227 -288 1837 -288 z " transform="scale(0.01)"/></defs><use xlink:href="#NanumBarunGothic-33"/><use xlink:href="#NanumBarunGothic-30" transform="translate(58.29 0)"/></g></g></g><g id="ytick_5"><g id="line2d_19"><g><use xlink:href="#mefe1a27b1b" x="25.85" y="217.51" style="fill: #1c2b36; stroke: #1c2b36; stroke-width: 0.8"/></g></g><g id="text_11"><g style="fill: #1c2b36" transform="translate(7.2 221.40) scale(0.1 -0.1)"><use xlink:href="#NanumBarunGothic-34"/><use xlink:href="#NanumBarunGothic-30" transform="translate(58.29 0)"/></g></g></g><g id="ytick_6"><g id="line2d_20"><g><use xlink:href="#mefe1a27b1b" x="25.85" y="255.02" style="fill: #1c2b36; stroke: #1c2b36; stroke-width: 0.8"/></g></g><g id="text_12"><g style="fill: #1c2b36" transform="translate(7.2 258.90) scale(0.1 -0.1)"><use xlink:href="#NanumBarunGothic-35"/><use xlink:href="#NanumBarunGothic-30" transform="translate(58.29 0)"/></g></g></g></g><g id="line2d_21"><path d="M 47.61 67.50 L 134.08 67.50 L 220.55 67.50 L 307.03 67.50 L 393.50 67.50 " clip-path="url(#pc56096ba57)" style="fill: none; stroke: #3f7a5e; stroke-width: 1.9; stroke-linecap: round"/><defs><path id="m8e739f9df1" d="M 0 2.5 C 0.66 2.5 1.29 2.23 1.76 1.76 C 2.23 1.29 2.5 0.66 2.5 0 C 2.5 -0.66 2.23 -1.29 1.76 -1.76 C 1.29 -2.23 0.66 -2.5 0 -2.5 C -0.66 -2.5 -1.29 -2.23 -1.76 -1.76 C -2.23 -1.29 -2.5 -0.66 -2.5 0 C -2.5 0.66 -2.23 1.29 -1.76 1.76 C -1.29 2.23 -0.66 2.5 0 2.5 z " style="stroke: #3f7a5e"/></defs><g clip-path="url(#pc56096ba57)"><use xlink:href="#m8e739f9df1" x="47.61" y="67.50" style="fill: #3f7a5e; stroke: #3f7a5e"/><use xlink:href="#m8e739f9df1" x="134.08" y="67.50" style="fill: #3f7a5e; stroke: #3f7a5e"/><use xlink:href="#m8e739f9df1" x="220.55" y="67.50" style="fill: #3f7a5e; stroke: #3f7a5e"/><use xlink:href="#m8e739f9df1" x="307.03" y="67.50" style="fill: #3f7a5e; stroke: #3f7a5e"/><use xlink:href="#m8e739f9df1" x="393.50" y="67.50" style="fill: #3f7a5e; stroke: #3f7a5e"/></g></g><g id="line2d_22"><path d="M 47.61 90.00 L 134.08 105.00 L 220.55 105.00 L 307.03 142.51 L 393.50 105.00 " clip-path="url(#pc56096ba57)" style="fill: none; stroke: #17638f; stroke-width: 1.9; stroke-linecap: round"/><defs><path id="m23eab50bcd" d="M 0 2.5 C 0.66 2.5 1.29 2.23 1.76 1.76 C 2.23 1.29 2.5 0.66 2.5 0 C 2.5 -0.66 2.23 -1.29 1.76 -1.76 C 1.29 -2.23 0.66 -2.5 0 -2.5 C -0.66 -2.5 -1.29 -2.23 -1.76 -1.76 C -2.23 -1.29 -2.5 -0.66 -2.5 0 C -2.5 0.66 -2.23 1.29 -1.76 1.76 C -1.29 2.23 -0.66 2.5 0 2.5 z " style="stroke: #17638f"/></defs><g clip-path="url(#pc56096ba57)"><use xlink:href="#m23eab50bcd" x="47.61" y="90.00" style="fill: #17638f; stroke: #17638f"/><use xlink:href="#m23eab50bcd" x="134.08" y="105.00" style="fill: #17638f; stroke: #17638f"/><use xlink:href="#m23eab50bcd" x="220.55" y="105.00" style="fill: #17638f; stroke: #17638f"/><use xlink:href="#m23eab50bcd" x="307.03" y="142.51" style="fill: #17638f; stroke: #17638f"/><use xlink:href="#m23eab50bcd" x="393.50" y="105.00" style="fill: #17638f; stroke: #17638f"/></g></g><g id="line2d_23"><path d="M 47.61 105.00 L 134.08 123.76 L 220.55 142.51 L 307.03 217.51 L 393.50 142.51 " clip-path="url(#pc56096ba57)" style="fill: none; stroke: #b4544e; stroke-width: 2.2; stroke-linecap: round"/><defs><path id="mf51a9427ca" d="M 0 2.5 C 0.66 2.5 1.29 2.23 1.76 1.76 C 2.23 1.29 2.5 0.66 2.5 0 C 2.5 -0.66 2.23 -1.29 1.76 -1.76 C 1.29 -2.23 0.66 -2.5 0 -2.5 C -0.66 -2.5 -1.29 -2.23 -1.76 -1.76 C -2.23 -1.29 -2.5 -0.66 -2.5 0 C -2.5 0.66 -2.23 1.29 -1.76 1.76 C -1.29 2.23 -0.66 2.5 0 2.5 z " style="stroke: #b4544e"/></defs><g clip-path="url(#pc56096ba57)"><use xlink:href="#mf51a9427ca" x="47.61" y="105.00" style="fill: #b4544e; stroke: #b4544e"/><use xlink:href="#mf51a9427ca" x="134.08" y="123.76" style="fill: #b4544e; stroke: #b4544e"/><use xlink:href="#mf51a9427ca" x="220.55" y="142.51" style="fill: #b4544e; stroke: #b4544e"/><use xlink:href="#mf51a9427ca" x="307.03" y="217.51" style="fill: #b4544e; stroke: #b4544e"/><use xlink:href="#mf51a9427ca" x="393.50" y="142.51" style="fill: #b4544e; stroke: #b4544e"/></g></g><g id="patch_4"><path d="M 25.85 285.02 L 25.85 30.00 " style="fill: none; stroke: #64798a; stroke-width: 0.9; stroke-linejoin: miter; stroke-linecap: square"/></g><g id="patch_5"><path d="M 25.85 285.02 L 438.77 285.02 " style="fill: none; stroke: #64798a; stroke-width: 0.9; stroke-linejoin: miter; stroke-linecap: square"/></g><g id="text_13"><g style="fill: #64798a" transform="translate(85.92 43.12) scale(0.09 -0.09)"><defs><path id="NanumBarunGothic-d68c" d="M 5152 -851 L 4602 -851 L 4602 4992 L 5152 4992 L 5152 -851 z M 442 3552 L 442 4006 L 4000 4006 L 4000 3552 L 442 3552 z M 1222 4358 L 1222 4826 L 3200 4826 L 3200 4358 L 1222 4358 z M 3667 2266 Q 3667 1875 3382 1596 Q 3098 1318 2534 1254 L 2534 640 Q 3008 659 3469 691 Q 3930 723 4301 774 L 4301 320 Q 3994 275 3626 243 Q 3258 211 2870 188 Q 2483 166 2099 153 Q 1715 141 1376 141 L 230 141 L 230 614 L 1370 614 Q 1510 614 1660 614 Q 1811 614 1978 621 L 1978 1254 Q 1395 1312 1107 1590 Q 819 1869 819 2266 Q 819 2483 908 2668 Q 998 2854 1177 2992 Q 1357 3130 1622 3206 Q 1888 3283 2246 3283 Q 2598 3283 2864 3206 Q 3130 3130 3309 2992 Q 3488 2854 3577 2668 Q 3667 2483 3667 2266 z M 3110 2266 Q 3110 2381 3062 2489 Q 3014 2598 2908 2681 Q 2803 2765 2640 2816 Q 2477 2867 2246 2867 Q 2016 2867 1849 2816 Q 1683 2765 1577 2681 Q 1472 2598 1424 2489 Q 1376 2381 1376 2266 Q 1376 2150 1424 2041 Q 1472 1933 1577 1849 Q 1683 1766 1849 1715 Q 2016 1664 2246 1664 Q 2477 1664 2640 1715 Q 2803 1766 2908 1849 Q 3014 1933 3062 2041 Q 3110 2150 3110 2266 z " transform="scale(0.01)"/><path id="NanumBarunGothic-d654" d="M 230 3552 L 230 4006 L 3750 4006 L 3750 3552 L 230 3552 z M 979 4358 L 979 4826 L 2931 4826 L 2931 4358 L 979 4358 z M 3437 2266 Q 3437 1875 3152 1596 Q 2867 1318 2304 1254 L 2304 646 Q 2752 666 3184 694 Q 3616 723 3968 774 L 3968 320 Q 3661 275 3293 243 Q 2925 211 2537 188 Q 2150 166 1766 153 Q 1382 141 1043 141 L 70 141 L 70 614 L 1037 614 Q 1203 614 1379 617 Q 1555 621 1747 627 L 1747 1254 Q 1165 1312 877 1590 Q 589 1869 589 2266 Q 589 2483 678 2668 Q 768 2854 947 2992 Q 1126 3130 1392 3206 Q 1658 3283 2016 3283 Q 2368 3283 2633 3206 Q 2899 3130 3078 2992 Q 3258 2854 3347 2668 Q 3437 2483 3437 2266 z M 2880 2266 Q 2880 2381 2832 2489 Q 2784 2598 2678 2681 Q 2573 2765 2409 2816 Q 2246 2867 2016 2867 Q 1786 2867 1619 2816 Q 1453 2765 1347 2681 Q 1242 2598 1194 2489 Q 1146 2381 1146 2266 Q 1146 2150 1194 2041 Q 1242 1933 1347 1849 Q 1453 1766 1619 1715 Q 1786 1664 2016 1664 Q 2246 1664 2409 1715 Q 2573 1766 2678 1849 Q 2784 1933 2832 2041 Q 2880 2150 2880 2266 z M 5696 2029 L 4768 2029 L 4768 -851 L 4237 -851 L 4237 4992 L 4768 4992 L 4768 2502 L 5696 2502 L 5696 2029 z " transform="scale(0.01)"/><path id="NanumBarunGothic-c74c" d="M 4794 3859 Q 4794 3354 4307 3034 Q 3821 2714 2861 2714 Q 1901 2714 1414 3034 Q 928 3354 928 3859 Q 928 4109 1049 4320 Q 1171 4531 1414 4691 Q 1658 4851 2019 4940 Q 2381 5030 2861 5030 Q 3341 5030 3702 4940 Q 4064 4851 4307 4694 Q 4550 4538 4672 4323 Q 4794 4109 4794 3859 z M 5638 2272 L 5638 1798 L 70 1798 L 70 2272 L 5638 2272 z M 973 -762 L 973 1210 L 4800 1210 L 4800 -762 L 973 -762 z M 4250 736 L 1523 736 L 1523 -282 L 4250 -282 L 4250 736 z M 4192 3834 Q 4192 3974 4112 4105 Q 4032 4237 3869 4339 Q 3706 4442 3456 4502 Q 3206 4563 2861 4563 Q 2509 4563 2256 4502 Q 2003 4442 1840 4339 Q 1677 4237 1600 4105 Q 1523 3974 1523 3834 Q 1523 3706 1600 3584 Q 1677 3462 1840 3369 Q 2003 3277 2256 3222 Q 2509 3168 2861 3168 Q 3206 3168 3456 3222 Q 3706 3277 3869 3369 Q 4032 3462 4112 3584 Q 4192 3706 4192 3834 z " transform="scale(0.01)"/><path id="NanumBarunGothic-c5ed" d="M 3046 4301 L 4448 4301 L 4448 4992 L 4998 4992 L 4998 1600 L 4448 1600 L 4448 2522 L 3078 2522 Q 2874 2246 2557 2086 Q 2240 1926 1856 1926 Q 1536 1926 1267 2038 Q 998 2150 796 2345 Q 595 2541 483 2809 Q 371 3078 371 3392 Q 371 3706 483 3971 Q 595 4237 796 4435 Q 998 4634 1267 4746 Q 1536 4858 1856 4858 Q 2227 4858 2534 4710 Q 2842 4563 3046 4301 z M 3296 2982 L 4454 2982 L 4454 3846 L 3283 3846 Q 3354 3622 3354 3392 Q 3354 3174 3296 2982 z M 4448 -870 L 4448 794 L 1222 794 L 1222 1267 L 4998 1267 L 4998 -870 L 4448 -870 z M 915 3392 Q 915 3181 982 3001 Q 1050 2822 1174 2691 Q 1299 2560 1472 2486 Q 1645 2413 1856 2413 Q 2067 2413 2240 2486 Q 2413 2560 2541 2691 Q 2669 2822 2739 3001 Q 2810 3181 2810 3392 Q 2810 3603 2739 3782 Q 2669 3962 2541 4093 Q 2413 4224 2240 4297 Q 2067 4371 1856 4371 Q 1651 4371 1478 4297 Q 1306 4224 1181 4093 Q 1056 3962 985 3782 Q 915 3603 915 3392 z " transform="scale(0.01)"/><path id="NanumBarunGothic-7e" d="M 2099 2029 Q 1926 2170 1788 2243 Q 1651 2317 1453 2317 Q 1261 2317 1091 2192 Q 922 2067 813 1856 Q 794 1818 768 1821 Q 742 1824 742 1875 L 742 2438 Q 858 2624 1062 2733 Q 1267 2842 1498 2842 Q 1875 2842 2176 2598 Q 2349 2458 2486 2384 Q 2624 2310 2822 2310 Q 3014 2310 3184 2435 Q 3354 2560 3462 2771 Q 3482 2810 3507 2806 Q 3533 2803 3533 2752 L 3533 2189 Q 3418 2003 3213 1894 Q 3008 1786 2778 1786 Q 2400 1786 2099 2029 z " transform="scale(0.01)"/></defs><use xlink:href="#NanumBarunGothic-d68c"/><use xlink:href="#NanumBarunGothic-d654" transform="translate(89.19 0)"/><use xlink:href="#NanumBarunGothic-c74c" transform="translate(178.39 0)"/><use xlink:href="#NanumBarunGothic-c5ed" transform="translate(267.59 0)"/><use xlink:href="#NanumBarunGothic-20" transform="translate(356.79 0)"/><use xlink:href="#NanumBarunGothic-35" transform="translate(379.19 0)"/><use xlink:href="#NanumBarunGothic-30" transform="translate(437.49 0)"/><use xlink:href="#NanumBarunGothic-30" transform="translate(495.79 0)"/><use xlink:href="#NanumBarunGothic-20" transform="translate(554.09 0)"/><use xlink:href="#NanumBarunGothic-7e" transform="translate(576.49 0)"/><use xlink:href="#NanumBarunGothic-20" transform="translate(643.39 0)"/><use xlink:href="#NanumBarunGothic-32" transform="translate(665.79 0)"/><use xlink:href="#NanumBarunGothic-2c" transform="translate(724.09 0)"/><use xlink:href="#NanumBarunGothic-30" transform="translate(753.79 0)"/><use xlink:href="#NanumBarunGothic-30" transform="translate(812.09 0)"/><use xlink:href="#NanumBarunGothic-30" transform="translate(870.39 0)"/><use xlink:href="#NanumBarunGothic-20" transform="translate(928.69 0)"/><use xlink:href="#NanumBarunGothic-48" transform="translate(951.09 0)"/><use xlink:href="#NanumBarunGothic-7a" transform="translate(1022.89 0)"/></g></g><g id="patch_6"><path d="M 309.02 237.30 Q 308.16 231.21 307.52 226.67 " style="fill: none; stroke: #b4544e; stroke-width: 1.4; stroke-linecap: round"/><path d="M 306.13 230.83 L 307.52 226.67 L 310.01 230.28 z " style="fill: #b4544e; stroke: #b4544e; stroke-width: 1.4; stroke-linecap: round"/></g><g id="text_14"><g style="fill: #b4544e" transform="translate(240.67 248.98) scale(0.09 -0.09)"><defs><path id="NanumBarunGothicBold-43" d="M 3891 1056 Q 3917 1088 3949 1069 Q 3981 1050 3981 1011 L 3981 198 Q 3648 -90 3248 -218 Q 2848 -346 2387 -346 Q 1862 -346 1449 -170 Q 1037 6 749 336 Q 461 666 310 1133 Q 160 1600 160 2182 Q 160 2778 336 3248 Q 512 3718 819 4044 Q 1126 4371 1548 4544 Q 1971 4717 2464 4717 Q 2938 4717 3290 4617 Q 3642 4518 3942 4250 L 3942 3443 Q 3942 3405 3910 3385 Q 3878 3366 3853 3398 Q 3546 3744 3219 3894 Q 2893 4045 2509 4045 Q 2182 4045 1907 3926 Q 1632 3808 1430 3577 Q 1229 3347 1113 3004 Q 998 2662 998 2208 Q 998 1261 1376 800 Q 1754 339 2483 339 Q 2886 339 3238 528 Q 3590 717 3891 1056 z " transform="scale(0.01)"/><path id="NanumBarunGothicBold-35" d="M 390 717 Q 704 461 1024 368 Q 1344 275 1741 275 Q 1958 282 2140 358 Q 2323 435 2454 569 Q 2586 704 2659 886 Q 2733 1069 2733 1286 Q 2733 1722 2419 1962 Q 2106 2202 1542 2202 Q 998 2202 454 2061 L 608 4640 L 3264 4640 L 3264 4006 L 1293 4006 L 1210 2765 L 1229 2765 Q 1357 2784 1504 2797 Q 1651 2810 1811 2810 Q 2208 2810 2521 2704 Q 2835 2598 3056 2406 Q 3277 2214 3395 1945 Q 3514 1677 3514 1350 Q 3514 992 3389 681 Q 3264 371 3033 144 Q 2803 -83 2470 -214 Q 2138 -346 1728 -346 Q 1325 -346 969 -246 Q 614 -147 301 77 L 301 672 Q 301 710 329 726 Q 358 742 390 717 z " transform="scale(0.01)"/><path id="NanumBarunGothicBold-2d" d="M 3302 2675 L 3302 2003 L 454 2003 L 454 2675 L 3302 2675 z " transform="scale(0.01)"/><path id="NanumBarunGothicBold-64" d="M 2605 1299 L 2605 1837 Q 2605 2291 2377 2534 Q 2150 2778 1805 2778 Q 1408 2778 1181 2445 Q 954 2112 954 1453 Q 954 870 1171 579 Q 1389 288 1734 288 Q 1914 288 2074 361 Q 2234 435 2352 569 Q 2470 704 2537 889 Q 2605 1075 2605 1299 z M 1670 3418 Q 1958 3418 2185 3334 Q 2413 3251 2598 3040 L 2605 3040 L 2605 5011 L 3398 5011 L 3398 -288 L 2643 -288 L 2611 154 L 2598 154 Q 2470 -83 2211 -214 Q 1952 -346 1645 -346 Q 1325 -346 1056 -240 Q 787 -134 588 80 Q 390 294 278 627 Q 166 960 166 1421 Q 166 1939 291 2316 Q 416 2694 621 2937 Q 826 3181 1098 3299 Q 1370 3418 1670 3418 z " transform="scale(0.01)"/><path id="NanumBarunGothicBold-69" d="M 1178 3334 L 1178 -288 L 378 -288 L 378 3334 L 1178 3334 z M 275 4326 Q 275 4525 416 4672 Q 557 4819 774 4819 Q 877 4819 969 4777 Q 1062 4736 1132 4669 Q 1203 4602 1244 4512 Q 1286 4422 1286 4326 Q 1286 4230 1244 4140 Q 1203 4051 1132 3984 Q 1062 3917 969 3878 Q 877 3840 774 3840 Q 666 3840 576 3881 Q 486 3923 419 3990 Q 352 4058 313 4144 Q 275 4230 275 4326 z " transform="scale(0.01)"/><path id="NanumBarunGothicBold-70" d="M 1216 1210 Q 1216 755 1446 518 Q 1677 282 2093 282 Q 2266 282 2410 378 Q 2554 474 2656 643 Q 2758 813 2816 1053 Q 2874 1293 2874 1581 Q 2874 1914 2819 2141 Q 2765 2368 2659 2509 Q 2554 2650 2403 2710 Q 2253 2771 2054 2771 Q 1882 2771 1728 2681 Q 1574 2592 1459 2448 Q 1344 2304 1280 2115 Q 1216 1926 1216 1734 L 1216 1210 z M 1229 122 L 1229 -1824 L 435 -1824 L 435 3334 L 1222 3334 L 1248 2963 L 1254 2963 Q 1421 3168 1651 3293 Q 1882 3418 2214 3418 Q 2950 3418 3321 2947 Q 3693 2477 3693 1613 Q 3693 1197 3593 841 Q 3494 486 3299 220 Q 3104 -45 2816 -195 Q 2528 -346 2157 -346 Q 1850 -346 1616 -211 Q 1382 -77 1242 122 L 1229 122 z " transform="scale(0.01)"/><path id="NanumBarunGothicBold-20" transform="scale(0.01)"/><path id="NanumBarunGothicBold-2014" d="M 0 2176 L 5709 2176 L 5709 1830 L 0 1830 L 0 2176 z " transform="scale(0.01)"/><path id="NanumBarunGothicBold-34" d="M 102 794 L 102 1459 L 2202 4666 L 3040 4666 L 3040 1434 L 3738 1434 L 3738 794 L 3040 794 L 3040 -288 L 2253 -288 L 2253 794 L 102 794 z M 749 1434 L 749 1421 L 2278 1421 L 2278 3488 L 2298 3910 L 2080 3488 L 749 1434 z " transform="scale(0.01)"/><path id="NanumBarunGothicBold-2c" d="M 794 -384 Q 832 -262 723 -243 Q 595 -230 476 -124 Q 358 -19 358 198 Q 358 282 393 362 Q 429 442 496 509 Q 563 576 656 617 Q 749 659 870 659 Q 1114 659 1264 496 Q 1414 333 1414 77 Q 1414 -307 1184 -604 Q 954 -902 480 -1082 L 326 -806 Q 531 -736 643 -624 Q 755 -512 794 -384 z " transform="scale(0.01)"/><path id="NanumBarunGothicBold-30" d="M 218 2176 Q 218 3520 650 4131 Q 1082 4742 1869 4742 Q 2656 4742 3088 4131 Q 3520 3520 3520 2176 Q 3520 832 3088 221 Q 2656 -390 1869 -390 Q 1082 -390 650 221 Q 218 832 218 2176 z M 1011 2176 Q 1011 1158 1238 700 Q 1466 243 1869 243 Q 2272 243 2499 700 Q 2726 1158 2726 2176 Q 2726 3194 2499 3651 Q 2272 4109 1869 4109 Q 1466 4109 1238 3651 Q 1011 3194 1011 2176 z " transform="scale(0.01)"/><path id="NanumBarunGothicBold-48" d="M 4096 4659 L 4096 -288 L 3290 -288 L 3290 2086 L 1286 2086 L 1286 -288 L 480 -288 L 480 4659 L 1286 4659 L 1286 2758 L 3290 2758 L 3290 4659 L 4096 4659 z " transform="scale(0.01)"/><path id="NanumBarunGothicBold-7a" d="M 2963 352 L 2963 -288 L 160 -288 L 160 256 L 1984 2694 L 1984 2701 L 243 2701 L 243 3334 L 2931 3334 L 2931 2822 L 1094 358 L 1094 352 L 2963 352 z " transform="scale(0.01)"/><path id="NanumBarunGothicBold-ac00" d="M 83 864 Q 685 1152 1117 1501 Q 1549 1850 1837 2237 Q 2125 2624 2281 3040 Q 2438 3456 2490 3872 Q 1779 3853 1069 3853 L 390 3853 L 390 4531 L 1408 4531 Q 1862 4531 2332 4531 Q 2803 4531 3347 4544 Q 3302 3853 3136 3245 Q 2970 2637 2643 2109 Q 2317 1581 1817 1133 Q 1318 685 614 307 L 83 864 z M 5715 2138 L 4787 2138 L 4787 -902 L 3994 -902 L 3994 5030 L 4787 5030 L 4787 2816 L 5715 2816 L 5715 2138 z " transform="scale(0.01)"/><path id="NanumBarunGothicBold-ba3c" d="M 3238 1766 L 442 1766 L 442 4730 L 3238 4730 L 3238 3539 L 4250 3539 L 4250 5030 L 5043 5030 L 5043 698 L 4250 698 L 4250 2861 L 3238 2861 L 3238 1766 z M 2483 2432 L 2483 4070 L 1242 4070 L 1242 2432 L 2483 2432 z M 5158 -787 L 1280 -787 L 1280 1107 L 2067 1107 L 2067 -115 L 5158 -115 L 5158 -787 z " transform="scale(0.01)"/><path id="NanumBarunGothicBold-c800" d="M 3245 2272 L 3245 2944 L 4250 2944 L 4250 5030 L 5043 5030 L 5043 -902 L 4250 -902 L 4250 2272 L 3245 2272 z M 2566 2419 Q 2842 1997 3171 1651 Q 3501 1306 3930 998 L 3360 467 Q 2982 768 2694 1075 Q 2406 1382 2150 1747 Q 1843 1325 1459 960 Q 1075 595 627 282 L 51 794 Q 538 1088 928 1472 Q 1318 1856 1603 2272 Q 1888 2688 2051 3101 Q 2214 3514 2240 3872 Q 1933 3853 1635 3849 Q 1338 3846 1069 3846 L 429 3846 L 429 4525 L 1421 4525 Q 1830 4525 2252 4525 Q 2675 4525 3130 4538 Q 3123 3981 2979 3449 Q 2835 2918 2566 2419 z " transform="scale(0.01)"/><path id="NanumBarunGothicBold-d30c" d="M 96 3885 L 96 4538 L 3654 4538 L 3654 3885 L 96 3885 z M 659 1331 L 595 3693 L 1363 3693 L 1421 1331 L 1734 1331 Q 1869 1331 2003 1334 Q 2138 1338 2278 1344 L 2310 3693 L 3085 3693 L 3046 1402 Q 3424 1446 3821 1536 L 3821 883 Q 3373 755 2822 710 Q 2272 666 1741 666 L 26 666 L 26 1331 L 659 1331 z M 5715 2278 L 4838 2278 L 4838 -902 L 4045 -902 L 4045 5030 L 4838 5030 L 4838 2957 L 5715 2957 L 5715 2278 z " transform="scale(0.01)"/><path id="NanumBarunGothicBold-c774" d="M 4250 5030 L 5043 5030 L 5043 -902 L 4250 -902 L 4250 5030 z M 3418 2547 Q 3418 2029 3306 1629 Q 3194 1229 2989 953 Q 2784 678 2499 537 Q 2214 397 1862 397 Q 1510 397 1225 537 Q 941 678 736 953 Q 531 1229 419 1629 Q 307 2029 307 2547 Q 307 3066 419 3466 Q 531 3866 736 4141 Q 941 4416 1225 4557 Q 1510 4698 1862 4698 Q 2214 4698 2499 4557 Q 2784 4416 2989 4141 Q 3194 3866 3306 3466 Q 3418 3066 3418 2547 z M 2611 2547 Q 2611 3238 2416 3628 Q 2221 4019 1862 4019 Q 1504 4019 1309 3628 Q 1114 3238 1114 2547 Q 1114 1856 1309 1465 Q 1504 1075 1862 1075 Q 2221 1075 2416 1465 Q 2611 1856 2611 2547 z " transform="scale(0.01)"/><path id="NanumBarunGothicBold-ace0" d="M 4429 1133 L 3616 1133 Q 3802 1837 3894 2537 Q 3987 3238 4000 3846 L 909 3846 L 909 4525 L 4806 4525 Q 4800 4109 4768 3667 Q 4736 3226 4688 2784 Q 4640 2342 4573 1923 Q 4506 1504 4429 1133 z M 5594 -45 L 102 -45 L 102 614 L 2003 614 L 2003 2490 L 2803 2490 L 2803 614 L 5594 614 L 5594 -45 z " transform="scale(0.01)"/></defs><use xlink:href="#NanumBarunGothicBold-43"/><use xlink:href="#NanumBarunGothicBold-35" transform="translate(63.89 0)"/><use xlink:href="#NanumBarunGothicBold-2d" transform="translate(122.19 0)"/><use xlink:href="#NanumBarunGothicBold-64" transform="translate(180.49 0)"/><use xlink:href="#NanumBarunGothicBold-69" transform="translate(239.29 0)"/><use xlink:href="#NanumBarunGothicBold-70" transform="translate(263.69 0)"/><use xlink:href="#NanumBarunGothicBold-20" transform="translate(322.49 0)"/><use xlink:href="#NanumBarunGothicBold-2014" transform="translate(344.89 0)"/><use xlink:href="#NanumBarunGothicBold-20" transform="translate(434.09 0)"/><use xlink:href="#NanumBarunGothicBold-34" transform="translate(456.49 0)"/><use xlink:href="#NanumBarunGothicBold-2c" transform="translate(514.79 0)"/><use xlink:href="#NanumBarunGothicBold-30" transform="translate(544.49 0)"/><use xlink:href="#NanumBarunGothicBold-30" transform="translate(602.79 0)"/><use xlink:href="#NanumBarunGothicBold-30" transform="translate(661.09 0)"/><use xlink:href="#NanumBarunGothicBold-20" transform="translate(719.39 0)"/><use xlink:href="#NanumBarunGothicBold-48" transform="translate(741.79 0)"/><use xlink:href="#NanumBarunGothicBold-7a" transform="translate(813.59 0)"/><use xlink:href="#NanumBarunGothicBold-ac00" transform="translate(860.89 0)"/><use xlink:href="#NanumBarunGothicBold-20" transform="translate(950.09 0)"/><use xlink:href="#NanumBarunGothicBold-ba3c" transform="translate(972.49 0)"/><use xlink:href="#NanumBarunGothicBold-c800" transform="translate(1061.69 0)"/><use xlink:href="#NanumBarunGothicBold-20" transform="translate(1150.89 0)"/><use xlink:href="#NanumBarunGothicBold-d30c" transform="translate(1173.29 0)"/><use xlink:href="#NanumBarunGothicBold-c774" transform="translate(1262.49 0)"/><use xlink:href="#NanumBarunGothicBold-ace0" transform="translate(1351.69 0)"/></g><g style="fill: #b4544e" transform="translate(240.67 262.52) scale(0.09 -0.09)"><defs><path id="NanumBarunGothicBold-38" d="M 1862 282 Q 2266 282 2509 499 Q 2752 717 2752 1114 Q 2752 1312 2685 1472 Q 2618 1632 2496 1747 Q 2374 1862 2214 1926 Q 2054 1990 1862 1990 Q 1670 1990 1510 1926 Q 1350 1862 1228 1747 Q 1107 1632 1040 1472 Q 973 1312 973 1114 Q 973 717 1216 499 Q 1459 282 1862 282 z M 1862 4147 Q 1459 4147 1260 3936 Q 1062 3725 1062 3418 Q 1062 3066 1289 2861 Q 1517 2656 1862 2656 Q 2208 2656 2435 2861 Q 2662 3066 2662 3418 Q 2662 3725 2464 3936 Q 2266 4147 1862 4147 z M 1862 4742 Q 2246 4742 2544 4640 Q 2842 4538 3040 4362 Q 3238 4186 3340 3942 Q 3443 3699 3443 3418 Q 3443 3232 3379 3059 Q 3315 2886 3203 2739 Q 3091 2592 2934 2483 Q 2778 2374 2598 2330 L 2598 2317 Q 3027 2189 3289 1869 Q 3552 1549 3552 1056 Q 3552 742 3446 483 Q 3341 224 3129 41 Q 2918 -141 2601 -243 Q 2285 -346 1862 -346 Q 1440 -346 1123 -243 Q 806 -141 595 41 Q 384 224 278 483 Q 173 742 173 1056 Q 173 1549 435 1869 Q 698 2189 1126 2317 L 1126 2330 Q 941 2374 787 2483 Q 634 2592 522 2739 Q 410 2886 346 3059 Q 282 3232 282 3418 Q 282 3699 384 3942 Q 486 4186 684 4362 Q 883 4538 1180 4640 Q 1478 4742 1862 4742 z " transform="scale(0.01)"/><path id="NanumBarunGothicBold-c5d0" d="M 5229 -902 L 4480 -902 L 4480 5030 L 5229 5030 L 5229 -902 z M 3347 4966 L 4077 4966 L 4077 -755 L 3347 -755 L 3347 2330 L 2906 2330 Q 2874 1376 2557 896 Q 2240 416 1619 416 Q 966 416 652 963 Q 339 1510 339 2547 Q 339 3603 649 4137 Q 960 4672 1619 4672 Q 2214 4672 2521 4256 Q 2829 3840 2893 3027 L 3347 3027 L 3347 4966 z M 2150 2547 Q 2150 3232 2032 3606 Q 1914 3981 1619 3981 Q 1331 3981 1228 3606 Q 1126 3232 1126 2547 Q 1126 1856 1228 1481 Q 1331 1107 1619 1107 Q 1914 1107 2032 1481 Q 2150 1856 2150 2547 z " transform="scale(0.01)"/><path id="NanumBarunGothicBold-c11c" d="M 3168 2483 L 3168 3168 L 4250 3168 L 4250 5030 L 5043 5030 L 5043 -902 L 4250 -902 L 4250 2483 L 3168 2483 z M 461 326 L -77 806 Q 326 1107 652 1472 Q 979 1837 1200 2304 Q 1421 2771 1523 3353 Q 1626 3936 1581 4678 L 2400 4678 Q 2419 3814 2266 3098 Q 2515 2419 2915 1900 Q 3315 1382 3917 973 L 3418 416 Q 2470 1082 1939 2106 Q 1683 1555 1312 1116 Q 941 678 461 326 z " transform="scale(0.01)"/><path id="NanumBarunGothicBold-b2e4" d="M 5715 2227 L 4787 2227 L 4787 -902 L 3994 -902 L 3994 5030 L 4787 5030 L 4787 2906 L 5715 2906 L 5715 2227 z M 442 4538 L 3187 4538 L 3187 3859 L 1248 3859 L 1248 1248 L 1702 1248 Q 2266 1248 2781 1315 Q 3296 1382 3757 1504 L 3757 845 Q 3546 787 3280 736 Q 3014 685 2720 646 Q 2426 608 2122 589 Q 1818 570 1523 570 L 442 570 L 442 4538 z " transform="scale(0.01)"/><path id="NanumBarunGothicBold-c2dc" d="M 4250 5030 L 5043 5030 L 5043 -902 L 4250 -902 L 4250 5030 z M 506 339 L -70 800 Q 333 1101 662 1465 Q 992 1830 1216 2297 Q 1440 2765 1542 3350 Q 1645 3936 1600 4678 L 2419 4678 Q 2432 4250 2397 3866 Q 2362 3482 2291 3130 Q 2541 2438 2944 1920 Q 3347 1402 3949 992 L 3418 454 Q 2490 1107 1965 2106 Q 1722 1562 1354 1126 Q 986 691 506 339 z " transform="scale(0.01)"/><path id="NanumBarunGothicBold-d68c" d="M 5184 -902 L 4397 -902 L 4397 5030 L 5184 5030 L 5184 -902 z M 2605 1152 L 2605 685 Q 3021 704 3430 736 Q 3840 768 4211 819 L 4211 186 Q 3872 134 3494 99 Q 3117 64 2726 41 Q 2336 19 1949 6 Q 1562 -6 1216 -6 L 198 -6 L 198 646 L 1197 646 Q 1344 646 1497 646 Q 1651 646 1818 653 L 1818 1146 Q 1280 1222 998 1497 Q 717 1773 717 2163 Q 717 2381 813 2569 Q 909 2758 1097 2896 Q 1286 3034 1558 3110 Q 1830 3187 2189 3187 Q 2541 3187 2813 3110 Q 3085 3034 3273 2896 Q 3462 2758 3558 2569 Q 3654 2381 3654 2163 Q 3654 1779 3385 1510 Q 3117 1242 2605 1152 z M 339 3341 L 339 3955 L 4013 3955 L 4013 3341 L 339 3341 z M 1062 4237 L 1062 4864 L 3238 4864 L 3238 4237 L 1062 4237 z M 2867 2163 Q 2867 2349 2716 2480 Q 2566 2611 2189 2611 Q 1805 2611 1654 2480 Q 1504 2349 1504 2163 Q 1504 1958 1654 1833 Q 1805 1709 2189 1709 Q 2566 1709 2716 1833 Q 2867 1958 2867 2163 z " transform="scale(0.01)"/><path id="NanumBarunGothicBold-bcf5" d="M 3968 3712 L 1722 3712 L 1722 3194 L 3968 3194 L 3968 3712 z M 934 2586 L 934 4960 L 1741 4960 L 1741 4301 L 3962 4301 L 3962 4960 L 4762 4960 L 4762 2586 L 3238 2586 L 3238 2061 L 5658 2061 L 5658 1395 L 51 1395 L 51 2061 L 2438 2061 L 2438 2586 L 934 2586 z M 4000 -915 L 4000 352 L 819 352 L 819 1018 L 4787 1018 L 4787 -915 L 4000 -915 z " transform="scale(0.01)"/><path id="NanumBarunGothicBold-b41c" d="M 762 2598 L 762 4742 L 3648 4742 L 3648 4102 L 1555 4102 L 1555 3232 L 3725 3232 L 3725 2598 L 2630 2598 L 2630 1946 Q 3046 1965 3452 1997 Q 3859 2029 4230 2074 L 4230 1440 Q 3891 1395 3513 1360 Q 3136 1325 2745 1302 Q 2355 1280 1968 1267 Q 1581 1254 1235 1254 L 262 1254 L 262 1907 L 1216 1907 Q 1370 1907 1533 1907 Q 1696 1907 1862 1914 L 1862 2598 L 762 2598 z M 4397 378 L 4397 5030 L 5184 5030 L 5184 378 L 4397 378 z M 5274 -787 L 1312 -787 L 1312 870 L 2106 870 L 2106 -115 L 5274 -115 L 5274 -787 z " transform="scale(0.01)"/></defs><use xlink:href="#NanumBarunGothicBold-38"/><use xlink:href="#NanumBarunGothicBold-2c" transform="translate(58.29 0)"/><use xlink:href="#NanumBarunGothicBold-30" transform="translate(87.99 0)"/><use xlink:href="#NanumBarunGothicBold-30" transform="translate(146.29 0)"/><use xlink:href="#NanumBarunGothicBold-30" transform="translate(204.59 0)"/><use xlink:href="#NanumBarunGothicBold-20" transform="translate(262.89 0)"/><use xlink:href="#NanumBarunGothicBold-48" transform="translate(285.29 0)"/><use xlink:href="#NanumBarunGothicBold-7a" transform="translate(357.09 0)"/><use xlink:href="#NanumBarunGothicBold-c5d0" transform="translate(404.39 0)"/><use xlink:href="#NanumBarunGothicBold-c11c" transform="translate(493.59 0)"/><use xlink:href="#NanumBarunGothicBold-20" transform="translate(582.79 0)"/><use xlink:href="#NanumBarunGothicBold-b2e4" transform="translate(605.19 0)"/><use xlink:href="#NanumBarunGothicBold-c2dc" transform="translate(694.39 0)"/><use xlink:href="#NanumBarunGothicBold-20" transform="translate(783.59 0)"/><use xlink:href="#NanumBarunGothicBold-d68c" transform="translate(805.99 0)"/><use xlink:href="#NanumBarunGothicBold-bcf5" transform="translate(895.19 0)"/><use xlink:href="#NanumBarunGothicBold-b41c" transform="translate(984.39 0)"/><use xlink:href="#NanumBarunGothicBold-b2e4" transform="translate(1073.59 0)"/></g></g><g id="patch_7"><path d="M 114.15 141.66 Q 123.64 124.21 132.54 107.84 " style="fill: none; stroke: #12354f; stroke-width: 1.1; stroke-linecap: round"/><path d="M 129.13 110.22 L 132.54 107.84 L 132.39 112.00 z " style="fill: #12354f; stroke: #12354f; stroke-width: 1.1; stroke-linecap: round"/></g><g id="text_15"><g style="fill: #12354f" transform="translate(58.36 152.64) scale(0.09 -0.09)"><defs><path id="NanumBarunGothic-cd08" d="M 3846 4813 L 3846 4346 L 1683 4346 L 1683 4813 L 3846 4813 z M 5574 -38 L 134 -38 L 134 429 L 2637 429 L 2637 1562 L 3206 1562 L 3206 429 L 5574 429 L 5574 -38 z M 3539 2637 Q 3898 2413 4317 2221 Q 4736 2029 5216 1882 L 4915 1446 Q 4416 1638 3971 1862 Q 3526 2086 3130 2355 Q 2669 2061 2089 1824 Q 1510 1587 832 1402 L 589 1850 Q 1203 2010 1680 2186 Q 2157 2362 2534 2560 Q 2912 2758 3197 2976 Q 3482 3194 3712 3443 Q 3347 3424 2995 3421 Q 2643 3418 2285 3418 L 1011 3418 L 1011 3891 L 2803 3891 Q 3219 3891 3641 3891 Q 4064 3891 4512 3904 Q 4397 3552 4150 3235 Q 3904 2918 3539 2637 z " transform="scale(0.01)"/><path id="NanumBarunGothic-ae30" d="M 4448 4992 L 4998 4992 L 4998 -851 L 4448 -851 L 4448 4992 z M 237 806 Q 800 1088 1232 1446 Q 1664 1805 1965 2221 Q 2266 2637 2448 3094 Q 2630 3552 2694 4032 Q 2304 4019 1920 4016 Q 1536 4013 1152 4013 L 474 4013 L 474 4486 L 1498 4486 Q 1946 4486 2394 4486 Q 2842 4486 3296 4499 Q 3206 3181 2556 2141 Q 1907 1101 608 403 L 237 806 z " transform="scale(0.01)"/><path id="NanumBarunGothic-c5d0" d="M 5094 -851 L 4544 -851 L 4544 4992 L 5094 4992 L 5094 -851 z M 3354 4928 L 3904 4928 L 3904 -704 L 3354 -704 L 3354 2458 L 2720 2458 Q 2701 1491 2374 992 Q 2048 493 1485 493 Q 922 493 595 1021 Q 269 1549 269 2560 Q 269 3571 595 4099 Q 922 4627 1485 4627 Q 2003 4627 2323 4198 Q 2643 3770 2707 2938 L 3354 2938 L 3354 4928 z M 2182 2560 Q 2182 2912 2144 3206 Q 2106 3501 2022 3712 Q 1939 3923 1804 4038 Q 1670 4154 1478 4154 Q 1293 4154 1165 4038 Q 1037 3923 960 3712 Q 883 3501 848 3206 Q 813 2912 813 2560 Q 813 2208 848 1913 Q 883 1619 960 1408 Q 1037 1197 1165 1081 Q 1293 966 1478 966 Q 1670 966 1804 1081 Q 1939 1197 2022 1408 Q 2106 1619 2144 1913 Q 2182 2208 2182 2560 z " transform="scale(0.01)"/><path id="NanumBarunGothic-b294" d="M 998 4973 L 1562 4973 L 1562 3373 L 4813 3373 L 4813 2906 L 998 2906 L 998 4973 z M 5638 2067 L 5638 1594 L 70 1594 L 70 2067 L 5638 2067 z M 4851 -762 L 979 -762 L 979 1043 L 1530 1043 L 1530 -282 L 4851 -282 L 4851 -762 z " transform="scale(0.01)"/><path id="NanumBarunGothic-c774" d="M 4448 4992 L 4998 4992 L 4998 -851 L 4448 -851 L 4448 4992 z M 3341 2566 Q 3341 2054 3225 1660 Q 3110 1267 2908 1004 Q 2707 742 2432 608 Q 2157 474 1843 474 Q 1530 474 1258 608 Q 986 742 781 1004 Q 576 1267 457 1660 Q 339 2054 339 2566 Q 339 3078 457 3468 Q 576 3859 781 4121 Q 986 4384 1258 4518 Q 1530 4653 1843 4653 Q 2157 4653 2432 4518 Q 2707 4384 2908 4121 Q 3110 3859 3225 3468 Q 3341 3078 3341 2566 z M 2784 2566 Q 2784 2925 2720 3219 Q 2656 3514 2537 3725 Q 2419 3936 2243 4051 Q 2067 4166 1843 4166 Q 1619 4166 1443 4051 Q 1267 3936 1148 3725 Q 1030 3514 966 3219 Q 902 2925 902 2566 Q 902 2208 966 1913 Q 1030 1619 1148 1408 Q 1267 1197 1443 1078 Q 1619 960 1843 960 Q 2067 960 2243 1078 Q 2419 1197 2537 1408 Q 2656 1619 2720 1913 Q 2784 2208 2784 2566 z " transform="scale(0.01)"/><path id="NanumBarunGothic-c131" d="M 2336 4845 Q 2342 4557 2310 4291 Q 2278 4026 2214 3782 Q 2483 3277 2857 2909 Q 3232 2541 3770 2272 L 3430 1882 Q 2970 2118 2611 2457 Q 2253 2797 2003 3213 Q 1773 2726 1405 2352 Q 1037 1978 557 1709 L 179 2074 Q 1005 2541 1411 3213 Q 1818 3885 1766 4845 L 2336 4845 z M 3264 3258 L 3264 3744 L 4448 3744 L 4448 4992 L 4998 4992 L 4998 1491 L 4448 1491 L 4448 3258 L 3264 3258 z M 5050 230 Q 5050 -13 4928 -221 Q 4806 -429 4563 -579 Q 4320 -730 3955 -816 Q 3590 -902 3110 -902 Q 2630 -902 2268 -816 Q 1907 -730 1664 -576 Q 1421 -422 1299 -214 Q 1178 -6 1178 237 Q 1178 480 1299 688 Q 1421 896 1664 1049 Q 1907 1203 2268 1289 Q 2630 1376 3110 1376 Q 3590 1376 3955 1289 Q 4320 1203 4563 1049 Q 4806 896 4928 685 Q 5050 474 5050 230 z M 4474 230 Q 4474 365 4394 486 Q 4314 608 4144 704 Q 3974 800 3715 857 Q 3456 915 3104 915 Q 2758 915 2502 857 Q 2246 800 2076 704 Q 1907 608 1827 486 Q 1747 365 1747 230 Q 1747 102 1827 -19 Q 1907 -141 2076 -233 Q 2246 -326 2502 -380 Q 2758 -435 3104 -435 Q 3456 -435 3715 -380 Q 3974 -326 4144 -233 Q 4314 -141 4394 -19 Q 4474 102 4474 230 z " transform="scale(0.01)"/><path id="NanumBarunGothic-d574" d="M 134 3315 L 134 3802 L 2880 3802 L 2880 3315 L 134 3315 z M 781 4256 L 781 4742 L 2368 4742 L 2368 4256 L 781 4256 z M 5094 -851 L 4544 -851 L 4544 2138 L 3866 2138 L 3866 -704 L 3328 -704 L 3328 4928 L 3866 4928 L 3866 2611 L 4544 2611 L 4544 4992 L 5094 4992 L 5094 -851 z M 346 1677 Q 346 1952 438 2182 Q 531 2413 694 2579 Q 858 2746 1082 2838 Q 1306 2931 1568 2931 Q 1830 2931 2054 2838 Q 2278 2746 2444 2579 Q 2611 2413 2707 2182 Q 2803 1952 2803 1677 Q 2803 1408 2707 1177 Q 2611 947 2444 784 Q 2278 621 2054 528 Q 1830 435 1568 435 Q 1306 435 1082 528 Q 858 621 694 784 Q 531 947 438 1177 Q 346 1408 346 1677 z M 877 1677 Q 877 1325 1069 1120 Q 1261 915 1568 915 Q 1875 915 2070 1120 Q 2266 1325 2266 1677 Q 2266 2035 2070 2240 Q 1875 2445 1568 2445 Q 1261 2445 1069 2240 Q 877 2035 877 1677 z " transform="scale(0.01)"/></defs><use xlink:href="#NanumBarunGothic-cd08"/><use xlink:href="#NanumBarunGothic-ae30" transform="translate(89.19 0)"/><use xlink:href="#NanumBarunGothic-c5d0" transform="translate(178.39 0)"/><use xlink:href="#NanumBarunGothic-b294" transform="translate(267.59 0)"/><use xlink:href="#NanumBarunGothic-20" transform="translate(356.79 0)"/><use xlink:href="#NanumBarunGothic-d68c" transform="translate(379.19 0)"/><use xlink:href="#NanumBarunGothic-d654" transform="translate(468.39 0)"/><use xlink:href="#NanumBarunGothic-c74c" transform="translate(557.59 0)"/><use xlink:href="#NanumBarunGothic-c5ed" transform="translate(646.79 0)"/><use xlink:href="#NanumBarunGothic-c774" transform="translate(735.99 0)"/><use xlink:href="#NanumBarunGothic-20" transform="translate(825.19 0)"/><use xlink:href="#NanumBarunGothic-c131" transform="translate(847.59 0)"/><use xlink:href="#NanumBarunGothic-d574" transform="translate(936.79 0)"/></g><g style="fill: #12354f" transform="translate(58.36 165.01) scale(0.09 -0.09)"><defs><path id="NanumBarunGothic-bcf8" d="M 4134 3699 L 1568 3699 L 1568 2989 L 4134 2989 L 4134 3699 z M 998 2515 L 998 4947 L 1581 4947 L 1581 4179 L 4134 4179 L 4134 4947 L 4704 4947 L 4704 2515 L 3130 2515 L 3130 1786 L 5638 1786 L 5638 1312 L 70 1312 L 70 1786 L 2560 1786 L 2560 2515 L 998 2515 z M 4851 -762 L 979 -762 L 979 851 L 1530 851 L 1530 -282 L 4851 -282 L 4851 -762 z " transform="scale(0.01)"/><path id="NanumBarunGothic-c778" d="M 5126 -736 L 1350 -736 L 1350 1075 L 1907 1075 L 1907 -256 L 5126 -256 L 5126 -736 z M 4992 768 L 4448 768 L 4448 4992 L 4992 4992 L 4992 768 z M 339 3251 Q 339 3571 454 3846 Q 570 4122 774 4320 Q 979 4518 1254 4630 Q 1530 4742 1856 4742 Q 2182 4742 2464 4630 Q 2746 4518 2950 4320 Q 3155 4122 3270 3846 Q 3386 3571 3386 3251 Q 3386 2938 3270 2669 Q 3155 2400 2950 2205 Q 2746 2010 2464 1898 Q 2182 1786 1856 1786 Q 1530 1786 1254 1898 Q 979 2010 774 2205 Q 570 2400 454 2669 Q 339 2938 339 3251 z M 928 3251 Q 928 3040 995 2857 Q 1062 2675 1187 2547 Q 1312 2419 1485 2345 Q 1658 2272 1869 2272 Q 2080 2272 2253 2345 Q 2426 2419 2550 2547 Q 2675 2675 2745 2857 Q 2816 3040 2816 3251 Q 2816 3475 2745 3660 Q 2675 3846 2550 3980 Q 2426 4115 2253 4188 Q 2080 4262 1869 4262 Q 1658 4262 1485 4188 Q 1312 4115 1187 3980 Q 1062 3846 995 3660 Q 928 3475 928 3251 z " transform="scale(0.01)"/><path id="NanumBarunGothic-c740" d="M 4781 3802 Q 4781 3539 4659 3315 Q 4538 3091 4298 2928 Q 4058 2765 3696 2675 Q 3334 2586 2861 2586 Q 2381 2586 2022 2675 Q 1664 2765 1421 2928 Q 1178 3091 1056 3315 Q 934 3539 934 3802 Q 934 4064 1056 4291 Q 1178 4518 1421 4681 Q 1664 4845 2022 4937 Q 2381 5030 2861 5030 Q 3334 5030 3696 4937 Q 4058 4845 4298 4681 Q 4538 4518 4659 4291 Q 4781 4064 4781 3802 z M 4173 3789 Q 4173 3942 4096 4083 Q 4019 4224 3859 4329 Q 3699 4435 3452 4499 Q 3206 4563 2861 4563 Q 2515 4563 2262 4499 Q 2010 4435 1850 4329 Q 1690 4224 1613 4083 Q 1536 3942 1536 3789 Q 1536 3635 1613 3504 Q 1690 3373 1850 3270 Q 2010 3168 2262 3110 Q 2515 3053 2861 3053 Q 3206 3053 3452 3110 Q 3699 3168 3859 3270 Q 4019 3373 4096 3504 Q 4173 3635 4173 3789 z M 5638 2054 L 5638 1581 L 70 1581 L 70 2054 L 5638 2054 z M 4851 -762 L 979 -762 L 979 1024 L 1530 1024 L 1530 -282 L 4851 -282 L 4851 -762 z " transform="scale(0.01)"/><path id="NanumBarunGothic-c790" d="M 5696 2253 L 4691 2253 L 4691 -851 L 4141 -851 L 4141 4992 L 4691 4992 L 4691 2739 L 5696 2739 L 5696 2253 z M 2426 2477 Q 2701 2054 3065 1651 Q 3430 1248 3859 941 L 3450 544 Q 3066 838 2742 1209 Q 2419 1581 2138 2003 Q 1786 1485 1344 1062 Q 902 640 403 352 L 13 723 Q 525 998 941 1408 Q 1357 1818 1661 2272 Q 1965 2726 2147 3187 Q 2330 3648 2368 4032 Q 2003 4019 1654 4016 Q 1306 4013 947 4013 L 346 4013 L 346 4480 L 1312 4480 Q 1722 4480 2144 4480 Q 2566 4480 3021 4493 Q 3002 3974 2848 3465 Q 2694 2957 2426 2477 z " transform="scale(0.01)"/><path id="NanumBarunGothic-ac01" d="M 2618 4282 Q 2234 4269 1856 4265 Q 1478 4262 1094 4262 L 544 4262 L 544 4736 L 1472 4736 Q 1920 4736 2368 4736 Q 2816 4736 3270 4749 Q 3232 4224 3033 3744 Q 2835 3264 2489 2857 Q 2144 2451 1651 2137 Q 1158 1824 538 1632 L 211 2061 Q 1235 2368 1852 2925 Q 2470 3482 2618 4282 z M 5645 3021 L 4723 3021 L 4723 1600 L 4173 1600 L 4173 4992 L 4723 4992 L 4723 3507 L 5645 3507 L 5645 3021 z M 4173 -870 L 4173 787 L 1011 787 L 1011 1267 L 4723 1267 L 4723 -870 L 4173 -870 z " transform="scale(0.01)"/><path id="NanumBarunGothic-d558" d="M 5683 2080 L 4691 2080 L 4691 -832 L 4141 -832 L 4141 4992 L 4691 4992 L 4691 2554 L 5683 2554 L 5683 2080 z M 90 3309 L 90 3795 L 3648 3795 L 3648 3309 L 90 3309 z M 896 4262 L 896 4749 L 2848 4749 L 2848 4262 L 896 4262 z M 474 1677 Q 474 1952 579 2189 Q 685 2426 873 2598 Q 1062 2771 1321 2870 Q 1581 2970 1882 2970 Q 2182 2970 2438 2870 Q 2694 2771 2883 2598 Q 3072 2426 3177 2189 Q 3283 1952 3283 1677 Q 3283 1395 3177 1158 Q 3072 922 2883 749 Q 2694 576 2438 480 Q 2182 384 1882 384 Q 1581 384 1321 480 Q 1062 576 873 749 Q 685 922 579 1158 Q 474 1395 474 1677 z M 1024 1670 Q 1024 1491 1088 1340 Q 1152 1190 1267 1081 Q 1382 973 1539 912 Q 1696 851 1882 851 Q 2061 851 2217 912 Q 2374 973 2489 1081 Q 2605 1190 2669 1340 Q 2733 1491 2733 1670 Q 2733 1850 2669 2000 Q 2605 2150 2489 2262 Q 2374 2374 2217 2435 Q 2061 2496 1882 2496 Q 1696 2496 1539 2435 Q 1382 2374 1267 2262 Q 1152 2150 1088 2000 Q 1024 1850 1024 1670 z " transform="scale(0.01)"/><path id="NanumBarunGothic-c9c0" d="M 4448 4992 L 4998 4992 L 4998 -851 L 4448 -851 L 4448 4992 z M 2573 2458 Q 2842 2035 3206 1641 Q 3571 1248 3994 941 L 3584 544 Q 3200 838 2877 1209 Q 2554 1581 2278 2003 Q 1907 1485 1452 1062 Q 998 640 499 352 L 128 723 Q 640 998 1072 1408 Q 1504 1818 1827 2272 Q 2150 2726 2348 3187 Q 2547 3648 2586 4032 Q 2221 4019 1872 4016 Q 1523 4013 1165 4013 L 474 4013 L 474 4480 L 1504 4480 Q 1914 4480 2336 4480 Q 2758 4480 3213 4493 Q 3194 3974 3027 3456 Q 2861 2938 2573 2458 z " transform="scale(0.01)"/><path id="NanumBarunGothic-babb" d="M 4141 3322 L 4141 4346 L 1562 4346 L 1562 3322 L 4141 3322 z M 998 2854 L 998 4832 L 4704 4832 L 4704 2854 L 3130 2854 L 3130 2016 L 5638 2016 L 5638 1542 L 70 1542 L 70 2016 L 2560 2016 L 2560 2854 L 998 2854 z M 787 -845 L 486 -390 Q 915 -314 1305 -176 Q 1696 -38 1990 170 Q 2285 378 2461 650 Q 2637 922 2650 1267 L 3226 1267 Q 3219 1120 3187 982 Q 3155 845 3104 717 Q 3264 480 3497 307 Q 3731 134 4009 3 Q 4288 -128 4598 -221 Q 4909 -314 5229 -390 L 4928 -845 Q 4621 -781 4313 -669 Q 4006 -557 3728 -409 Q 3450 -262 3216 -89 Q 2982 83 2822 269 Q 2483 -147 1939 -435 Q 1395 -723 787 -845 z " transform="scale(0.01)"/><path id="NanumBarunGothic-d55c" d="M 115 3648 L 115 4109 L 3584 4109 L 3584 3648 L 115 3648 z M 864 4486 L 864 4947 L 2842 4947 L 2842 4486 L 864 4486 z M 1843 1229 Q 1478 1229 1209 1315 Q 941 1402 765 1549 Q 589 1696 502 1888 Q 416 2080 416 2291 Q 416 2502 502 2691 Q 589 2880 765 3027 Q 941 3174 1209 3260 Q 1478 3347 1843 3347 Q 2208 3347 2477 3260 Q 2746 3174 2922 3027 Q 3098 2880 3184 2691 Q 3270 2502 3270 2291 Q 3270 2080 3184 1888 Q 3098 1696 2922 1549 Q 2746 1402 2477 1315 Q 2208 1229 1843 1229 z M 1843 1677 Q 2080 1677 2246 1728 Q 2413 1779 2518 1865 Q 2624 1952 2672 2064 Q 2720 2176 2720 2291 Q 2720 2406 2672 2515 Q 2624 2624 2518 2710 Q 2413 2797 2246 2851 Q 2080 2906 1843 2906 Q 1606 2906 1440 2851 Q 1274 2797 1168 2710 Q 1062 2624 1014 2515 Q 966 2406 966 2291 Q 966 2176 1014 2064 Q 1062 1952 1168 1865 Q 1274 1779 1440 1728 Q 1606 1677 1843 1677 z M 5645 2502 L 4723 2502 L 4723 480 L 4173 480 L 4173 4992 L 4723 4992 L 4723 2989 L 5645 2989 L 5645 2502 z M 4851 -736 L 1139 -736 L 1139 666 L 1696 666 L 1696 -256 L 4851 -256 L 4851 -736 z " transform="scale(0.01)"/><path id="NanumBarunGothic-b2e4" d="M 5696 2278 L 4691 2278 L 4691 -851 L 4141 -851 L 4141 4992 L 4691 4992 L 4691 2758 L 5696 2758 L 5696 2278 z M 448 4493 L 3149 4493 L 3149 4026 L 1011 4026 L 1011 1133 L 1651 1133 Q 2298 1133 2835 1216 Q 3373 1299 3712 1370 L 3712 902 Q 3526 851 3276 806 Q 3027 762 2745 726 Q 2464 691 2163 668 Q 1862 646 1574 646 L 448 646 L 448 4493 z " transform="scale(0.01)"/></defs><use xlink:href="#NanumBarunGothic-bcf8"/><use xlink:href="#NanumBarunGothic-c778" transform="translate(89.19 0)"/><use xlink:href="#NanumBarunGothic-c740" transform="translate(178.39 0)"/><use xlink:href="#NanumBarunGothic-20" transform="translate(267.59 0)"/><use xlink:href="#NanumBarunGothic-c790" transform="translate(289.99 0)"/><use xlink:href="#NanumBarunGothic-ac01" transform="translate(379.19 0)"/><use xlink:href="#NanumBarunGothic-d558" transform="translate(468.39 0)"/><use xlink:href="#NanumBarunGothic-c9c0" transform="translate(557.59 0)"/><use xlink:href="#NanumBarunGothic-20" transform="translate(646.79 0)"/><use xlink:href="#NanumBarunGothic-babb" transform="translate(669.19 0)"/><use xlink:href="#NanumBarunGothic-d55c" transform="translate(758.39 0)"/><use xlink:href="#NanumBarunGothic-b2e4" transform="translate(847.59 0)"/></g></g><g id="text_16"><g style="fill: #64798a" transform="translate(25.85 14.58) scale(0.09 -0.09)"><defs><path id="NanumBarunGothic-ccad" d="M 2624 2810 Q 2906 2598 3238 2412 Q 3571 2227 3949 2074 L 3597 1664 Q 3251 1811 2908 2025 Q 2566 2240 2272 2490 Q 1901 2176 1472 1936 Q 1043 1696 627 1549 L 269 1933 Q 717 2074 1097 2275 Q 1478 2477 1779 2710 Q 2080 2944 2294 3193 Q 2509 3443 2624 3680 Q 2285 3667 1942 3664 Q 1600 3661 1242 3661 L 582 3661 L 582 4102 L 1651 4102 Q 2054 4102 2476 4102 Q 2899 4102 3360 4115 Q 3302 3763 3107 3433 Q 2912 3104 2624 2810 z M 1139 4973 L 2874 4973 L 2874 4525 L 1139 4525 L 1139 4973 z M 3507 2816 L 3507 3302 L 4448 3302 L 4448 4992 L 4998 4992 L 4998 1363 L 4448 1363 L 4448 2816 L 3507 2816 z M 5050 230 Q 5050 -13 4928 -221 Q 4806 -429 4563 -579 Q 4320 -730 3955 -816 Q 3590 -902 3110 -902 Q 2630 -902 2268 -816 Q 1907 -730 1664 -576 Q 1421 -422 1299 -214 Q 1178 -6 1178 237 Q 1178 480 1299 688 Q 1421 896 1664 1049 Q 1907 1203 2268 1289 Q 2630 1376 3110 1376 Q 3590 1376 3955 1289 Q 4320 1203 4563 1049 Q 4806 896 4928 685 Q 5050 474 5050 230 z M 4474 230 Q 4474 365 4394 486 Q 4314 608 4144 704 Q 3974 800 3715 857 Q 3456 915 3104 915 Q 2758 915 2502 857 Q 2246 800 2076 704 Q 1907 608 1827 486 Q 1747 365 1747 230 Q 1747 102 1827 -19 Q 1907 -141 2076 -233 Q 2246 -326 2502 -380 Q 2758 -435 3104 -435 Q 3456 -435 3715 -380 Q 3974 -326 4144 -233 Q 4314 -141 4394 -19 Q 4474 102 4474 230 z " transform="scale(0.01)"/><path id="NanumBarunGothic-b825" d="M 3475 3744 L 3475 4192 L 4448 4192 L 4448 4992 L 4998 4992 L 4998 1434 L 4448 1434 L 4448 2752 L 3475 2752 L 3475 3206 L 4454 3206 L 4454 3744 L 3475 3744 z M 4448 -870 L 4448 621 L 1222 621 L 1222 1101 L 4998 1101 L 4998 -870 L 4448 -870 z M 1005 2138 L 1555 2138 Q 1926 2138 2243 2157 Q 2560 2176 2838 2208 Q 3117 2240 3366 2285 Q 3616 2330 3846 2381 L 3846 1926 Q 3354 1811 2742 1740 Q 2131 1670 1478 1670 L 448 1670 L 448 3488 L 2374 3488 L 2374 4320 L 435 4320 L 435 4781 L 2925 4781 L 2925 3040 L 1005 3040 L 1005 2138 z " transform="scale(0.01)"/><path id="NanumBarunGothic-c190" d="M 3078 4262 Q 3213 4045 3446 3846 Q 3680 3648 3965 3485 Q 4250 3322 4563 3210 Q 4877 3098 5171 3053 L 4870 2598 Q 4557 2662 4259 2784 Q 3962 2906 3696 3062 Q 3430 3219 3200 3404 Q 2970 3590 2790 3795 Q 2605 3565 2371 3360 Q 2138 3155 1872 2992 Q 1606 2829 1324 2713 Q 1043 2598 774 2547 L 480 2976 Q 934 3066 1331 3264 Q 1728 3462 2022 3731 Q 2317 4000 2483 4323 Q 2650 4646 2643 4992 L 3232 4992 Q 3245 4806 3203 4624 Q 3162 4442 3078 4262 z M 3155 2854 L 3155 1958 L 5638 1958 L 5638 1485 L 70 1485 L 70 1958 L 2586 1958 L 2586 2854 L 3155 2854 z M 4851 -762 L 979 -762 L 979 947 L 1530 947 L 1530 -282 L 4851 -282 L 4851 -762 z " transform="scale(0.01)"/><path id="NanumBarunGothic-c2e4" d="M 2330 4877 Q 2342 4627 2313 4396 Q 2285 4166 2234 3962 Q 2458 3558 2845 3196 Q 3232 2835 3802 2592 L 3456 2202 Q 2976 2413 2627 2720 Q 2278 3027 2016 3411 Q 1773 2957 1385 2621 Q 998 2285 518 2035 L 134 2406 Q 531 2618 844 2858 Q 1158 3098 1372 3395 Q 1587 3693 1686 4057 Q 1786 4422 1760 4877 L 2330 4877 z M 4448 4992 L 4998 4992 L 4998 2035 L 4448 2035 L 4448 4992 z M 5126 -787 L 1325 -787 L 1325 698 L 4454 698 L 4454 1229 L 1325 1229 L 1325 1702 L 4998 1702 L 4998 230 L 1869 230 L 1869 -314 L 5126 -314 L 5126 -787 z " transform="scale(0.01)"/><path id="NanumBarunGothic-64" d="M 2726 1293 L 2726 1843 Q 2726 2054 2656 2243 Q 2586 2432 2458 2576 Q 2330 2720 2154 2806 Q 1978 2893 1766 2893 Q 1293 2893 1024 2521 Q 755 2150 755 1446 Q 755 832 1017 489 Q 1280 147 1702 147 Q 1946 147 2134 236 Q 2323 326 2454 480 Q 2586 634 2656 842 Q 2726 1050 2726 1293 z M 2694 198 L 2688 198 Q 2502 -90 2240 -189 Q 1978 -288 1638 -288 Q 1261 -288 985 -160 Q 710 -32 534 198 Q 358 429 272 745 Q 186 1062 186 1440 Q 186 1824 275 2173 Q 365 2522 553 2781 Q 742 3040 1027 3193 Q 1312 3347 1702 3347 Q 2042 3347 2298 3212 Q 2554 3078 2733 2854 L 2739 2854 L 2739 4973 L 3290 4973 L 3290 -230 L 2714 -230 L 2694 198 z " transform="scale(0.01)"/><path id="NanumBarunGothic-42" d="M 2010 4141 L 1101 4141 L 1101 2624 L 1946 2624 Q 2413 2624 2685 2803 Q 2957 2982 2957 3424 Q 2957 3808 2720 3974 Q 2483 4141 2010 4141 z M 1990 2157 L 1101 2157 L 1101 250 L 2106 250 Q 2624 250 2896 506 Q 3168 762 3168 1197 Q 3168 1658 2880 1907 Q 2592 2157 1990 2157 z M 2182 -230 L 544 -230 L 544 4614 L 2163 4614 Q 2502 4614 2761 4528 Q 3021 4442 3200 4294 Q 3379 4147 3468 3948 Q 3558 3750 3558 3526 Q 3558 3123 3328 2832 Q 3098 2541 2694 2426 L 2694 2413 Q 2944 2381 3145 2278 Q 3347 2176 3491 2019 Q 3635 1862 3715 1651 Q 3795 1440 3795 1190 Q 3795 928 3699 672 Q 3603 416 3401 214 Q 3200 13 2896 -108 Q 2592 -230 2182 -230 z " transform="scale(0.01)"/><path id="NanumBarunGothic-2014" d="M 0 2176 L 5709 2176 L 5709 1830 L 0 1830 L 0 2176 z " transform="scale(0.01)"/><path id="NanumBarunGothic-c544" d="M 3232 2566 Q 3232 2054 3117 1660 Q 3002 1267 2803 1004 Q 2605 742 2333 608 Q 2061 474 1747 474 Q 1434 474 1162 608 Q 890 742 688 1004 Q 486 1267 371 1660 Q 256 2054 256 2566 Q 256 3078 371 3468 Q 486 3859 688 4121 Q 890 4384 1162 4518 Q 1434 4653 1747 4653 Q 2061 4653 2333 4518 Q 2605 4384 2803 4121 Q 3002 3859 3117 3468 Q 3232 3078 3232 2566 z M 5696 2330 L 4691 2330 L 4691 -851 L 4141 -851 L 4141 4992 L 4691 4992 L 4691 2816 L 5696 2816 L 5696 2330 z M 2675 2566 Q 2675 2925 2614 3219 Q 2554 3514 2435 3725 Q 2317 3936 2144 4051 Q 1971 4166 1747 4166 Q 1523 4166 1350 4051 Q 1178 3936 1059 3725 Q 941 3514 880 3219 Q 819 2925 819 2566 Q 819 2208 880 1913 Q 941 1619 1059 1408 Q 1178 1197 1350 1078 Q 1523 960 1747 960 Q 1971 960 2144 1078 Q 2317 1197 2435 1408 Q 2554 1619 2614 1913 Q 2675 2208 2675 2566 z " transform="scale(0.01)"/><path id="NanumBarunGothic-b798" d="M 422 544 L 422 2848 L 1958 2848 L 1958 4045 L 410 4045 L 410 4518 L 2509 4518 L 2509 2381 L 973 2381 L 973 1018 L 1146 1018 Q 1728 1018 2208 1088 Q 2688 1158 2995 1222 L 2995 768 Q 2829 723 2601 684 Q 2374 646 2118 614 Q 1862 582 1593 563 Q 1325 544 1069 544 L 422 544 z M 5094 -851 L 4544 -851 L 4544 2458 L 3782 2458 L 3782 -704 L 3245 -704 L 3245 4928 L 3782 4928 L 3782 2931 L 4544 2931 L 4544 4992 L 5094 4992 L 5094 -851 z " transform="scale(0.01)"/><path id="NanumBarunGothic-b85c" d="M 1030 1485 L 1030 3251 L 4134 3251 L 4134 4096 L 1024 4096 L 1024 4576 L 4685 4576 L 4685 2797 L 1581 2797 L 1581 1952 L 4877 1952 L 4877 1485 L 3142 1485 L 3142 442 L 5574 442 L 5574 -26 L 134 -26 L 134 442 L 2566 442 L 2566 1485 L 1030 1485 z " transform="scale(0.01)"/><path id="NanumBarunGothic-ac08" d="M 2643 4275 Q 2259 4262 1881 4259 Q 1504 4256 1120 4256 L 531 4256 L 531 4723 L 1498 4723 Q 1946 4723 2394 4723 Q 2842 4723 3296 4736 Q 3258 4269 3053 3846 Q 2848 3424 2499 3069 Q 2150 2714 1660 2432 Q 1171 2150 570 1971 L 262 2413 Q 1203 2675 1827 3132 Q 2451 3590 2643 4275 z M 5645 3238 L 4723 3238 L 4723 2035 L 4173 2035 L 4173 4992 L 4723 4992 L 4723 3725 L 5645 3725 L 5645 3238 z M 4851 -787 L 1094 -787 L 1094 704 L 4179 704 L 4179 1235 L 1094 1235 L 1094 1702 L 4723 1702 L 4723 262 L 1638 262 L 1638 -320 L 4851 -320 L 4851 -787 z " transform="scale(0.01)"/><path id="NanumBarunGothic-b85d" d="M 992 4832 L 4672 4832 L 4672 3411 L 1542 3411 L 1542 2893 L 4813 2893 L 4813 2445 L 3130 2445 L 3130 1830 L 5638 1830 L 5638 1357 L 70 1357 L 70 1830 L 2560 1830 L 2560 2445 L 992 2445 L 992 3853 L 4128 3853 L 4128 4358 L 992 4358 L 992 4832 z M 4186 -870 L 4186 416 L 877 416 L 877 890 L 4736 890 L 4736 -870 L 4186 -870 z " transform="scale(0.01)"/><path id="NanumBarunGothic-b098" d="M 1690 800 L 422 800 L 422 4570 L 992 4570 L 992 1293 L 1766 1293 Q 2413 1293 2950 1376 Q 3488 1459 3827 1536 L 3827 1056 Q 3642 1005 3392 960 Q 3142 915 2860 880 Q 2579 845 2278 822 Q 1978 800 1690 800 z M 5696 2330 L 4691 2330 L 4691 -851 L 4141 -851 L 4141 4992 L 4691 4992 L 4691 2816 L 5696 2816 L 5696 2330 z " transform="scale(0.01)"/><path id="NanumBarunGothic-c058" d="M 3078 4621 L 3558 4621 L 3558 3610 L 4403 3610 L 4403 4621 L 4902 4621 L 4902 1664 L 3078 1664 L 3078 4621 z M 3546 3174 L 3546 2118 L 4410 2118 L 4410 3174 L 3546 3174 z M 787 4621 L 1286 4621 L 1286 3610 L 2157 3610 L 2157 4621 L 2637 4621 L 2637 1664 L 787 1664 L 787 4621 z M 1280 3174 L 1280 2118 L 2170 2118 L 2170 3174 L 1280 3174 z M 5574 486 L 5574 19 L 134 19 L 134 486 L 5574 486 z " transform="scale(0.01)"/></defs><use xlink:href="#NanumBarunGothic-ccad"/><use xlink:href="#NanumBarunGothic-b825" transform="translate(89.19 0)"/><use xlink:href="#NanumBarunGothic-c190" transform="translate(178.39 0)"/><use xlink:href="#NanumBarunGothic-c2e4" transform="translate(267.59 0)"/><use xlink:href="#NanumBarunGothic-20" transform="translate(356.79 0)"/><use xlink:href="#NanumBarunGothic-28" transform="translate(379.19 0)"/><use xlink:href="#NanumBarunGothic-64" transform="translate(423.79 0)"/><use xlink:href="#NanumBarunGothic-42" transform="translate(482.59 0)"/><use xlink:href="#NanumBarunGothic-29" transform="translate(545.29 0)"/><use xlink:href="#NanumBarunGothic-20" transform="translate(589.89 0)"/><use xlink:href="#NanumBarunGothic-2014" transform="translate(612.29 0)"/><use xlink:href="#NanumBarunGothic-20" transform="translate(701.49 0)"/><use xlink:href="#NanumBarunGothic-c544" transform="translate(723.89 0)"/><use xlink:href="#NanumBarunGothic-b798" transform="translate(813.09 0)"/><use xlink:href="#NanumBarunGothic-b85c" transform="translate(902.29 0)"/><use xlink:href="#NanumBarunGothic-20" transform="translate(991.49 0)"/><use xlink:href="#NanumBarunGothic-ac08" transform="translate(1013.89 0)"/><use xlink:href="#NanumBarunGothic-c218" transform="translate(1103.09 0)"/><use xlink:href="#NanumBarunGothic-b85d" transform="translate(1192.29 0)"/><use xlink:href="#NanumBarunGothic-20" transform="translate(1281.49 0)"/><use xlink:href="#NanumBarunGothic-b098" transform="translate(1303.89 0)"/><use xlink:href="#NanumBarunGothic-c058" transform="translate(1393.09 0)"/><use xlink:href="#NanumBarunGothic-b2e4" transform="translate(1482.29 0)"/></g></g><g id="text_17"><g style="fill: #64798a" transform="translate(25.85 338.58) scale(0.08 -0.08)"><defs><path id="NanumBarunGothic-b7" d="M 1427 2790 Q 1626 2790 1750 2665 Q 1875 2541 1875 2349 Q 1875 2157 1750 2032 Q 1626 1907 1427 1907 Q 1229 1907 1104 2032 Q 979 2157 979 2349 Q 979 2541 1104 2665 Q 1229 2790 1427 2790 z " transform="scale(0.01)"/><path id="NanumBarunGothic-ac12" d="M 544 4736 L 1491 4736 Q 1939 4736 2387 4736 Q 2835 4736 3290 4749 Q 3251 4256 3049 3814 Q 2848 3373 2499 3001 Q 2150 2630 1660 2339 Q 1171 2048 557 1862 L 243 2298 Q 1222 2586 1843 3066 Q 2464 3546 2637 4282 Q 2253 4269 1875 4265 Q 1498 4262 1114 4262 L 544 4262 L 544 4736 z M 5645 3213 L 4723 3213 L 4723 2010 L 4173 2010 L 4173 4992 L 4723 4992 L 4723 3699 L 5645 3699 L 5645 3213 z M 2950 -774 L 928 -774 L 928 1594 L 1446 1594 L 1446 909 L 2438 909 L 2438 1658 L 2950 1658 L 2950 -410 Q 3494 -45 3718 486 Q 3942 1018 3885 1728 L 4416 1728 Q 4422 1523 4409 1340 Q 4397 1158 4371 986 Q 4467 563 4736 192 Q 5005 -179 5408 -435 L 5011 -832 Q 4723 -614 4505 -355 Q 4288 -96 4147 230 Q 4000 -96 3776 -361 Q 3552 -627 3245 -858 L 2950 -608 L 2950 -774 z M 2438 -307 L 2438 474 L 1440 474 L 1440 -307 L 2438 -307 z " transform="scale(0.01)"/><path id="NanumBarunGothic-bb38" d="M 4141 3206 L 4141 4346 L 1562 4346 L 1562 3206 L 4141 3206 z M 998 2739 L 998 4832 L 4704 4832 L 4704 2739 L 998 2739 z M 3277 358 L 2707 358 L 2707 1600 L 70 1600 L 70 2074 L 5638 2074 L 5638 1600 L 3277 1600 L 3277 358 z M 4928 -762 L 992 -762 L 992 979 L 1542 979 L 1542 -282 L 4928 -282 L 4928 -762 z " transform="scale(0.01)"/><path id="NanumBarunGothic-c608" d="M 5094 -851 L 4544 -851 L 4544 4992 L 5094 4992 L 5094 -851 z M 3366 1498 L 2592 1498 Q 2451 998 2169 745 Q 1888 493 1485 493 Q 922 493 595 1021 Q 269 1549 269 2560 Q 269 3571 595 4099 Q 922 4627 1485 4627 Q 2278 4627 2573 3680 L 3366 3680 L 3366 4928 L 3917 4928 L 3917 -704 L 3366 -704 L 3366 1498 z M 2688 1965 L 3373 1965 L 3373 3213 L 2675 3213 Q 2701 3066 2710 2902 Q 2720 2739 2720 2560 Q 2720 2400 2710 2249 Q 2701 2099 2688 1965 z M 2182 2560 Q 2182 2912 2144 3206 Q 2106 3501 2022 3712 Q 1939 3923 1804 4038 Q 1670 4154 1478 4154 Q 1293 4154 1165 4038 Q 1037 3923 960 3712 Q 883 3501 848 3206 Q 813 2912 813 2560 Q 813 2208 848 1913 Q 883 1619 960 1408 Q 1037 1197 1165 1081 Q 1293 966 1478 966 Q 1670 966 1804 1081 Q 1939 1197 2022 1408 Q 2106 1619 2144 1913 Q 2182 2208 2182 2560 z " transform="scale(0.01)"/><path id="NanumBarunGothic-c81c" d="M 5094 -851 L 4544 -851 L 4544 4992 L 5094 4992 L 5094 -851 z M 3386 4928 L 3917 4928 L 3917 -704 L 3386 -704 L 3386 2464 L 2605 2464 L 2605 2931 L 3386 2931 L 3386 4928 z M 1914 4032 Q 1658 4013 1366 4009 Q 1075 4006 787 4006 L 403 4006 L 403 4474 L 1120 4474 Q 1459 4474 1795 4474 Q 2131 4474 2515 4486 Q 2438 3475 2061 2566 Q 2266 2138 2560 1754 Q 2854 1370 3200 1082 L 2765 710 Q 2477 979 2230 1312 Q 1984 1645 1798 2022 Q 1555 1581 1241 1197 Q 928 813 538 486 L 96 813 Q 922 1472 1363 2259 Q 1805 3046 1914 4032 z " transform="scale(0.01)"/><path id="NanumBarunGothic-36" d="M 3187 4026 Q 3008 4134 2797 4198 Q 2586 4262 2342 4262 Q 2003 4262 1734 4099 Q 1466 3936 1277 3657 Q 1088 3379 982 3014 Q 877 2650 864 2240 L 877 2240 Q 941 2381 1049 2512 Q 1158 2643 1308 2742 Q 1459 2842 1641 2899 Q 1824 2957 2035 2957 Q 2381 2957 2646 2838 Q 2912 2720 3094 2509 Q 3277 2298 3373 2010 Q 3469 1722 3469 1382 Q 3469 1005 3357 697 Q 3245 390 3037 172 Q 2829 -45 2544 -163 Q 2259 -282 1914 -282 Q 1421 -282 1113 -74 Q 806 134 633 460 Q 461 787 400 1187 Q 339 1587 339 1978 Q 339 2470 451 2960 Q 563 3450 803 3837 Q 1043 4224 1420 4467 Q 1798 4710 2330 4710 Q 2598 4710 2822 4662 Q 3046 4614 3245 4525 L 3245 4051 Q 3245 3981 3187 4026 z M 915 1331 Q 915 1094 982 883 Q 1050 672 1181 512 Q 1312 352 1497 256 Q 1683 160 1914 160 Q 2170 160 2358 265 Q 2547 371 2668 537 Q 2790 704 2848 918 Q 2906 1133 2906 1350 Q 2906 1587 2848 1798 Q 2790 2010 2675 2166 Q 2560 2323 2381 2416 Q 2202 2509 1958 2509 Q 1702 2509 1513 2416 Q 1325 2323 1197 2160 Q 1069 1997 1001 1782 Q 934 1568 915 1331 z " transform="scale(0.01)"/><path id="NanumBarunGothic-acfc" d="M 3130 1568 L 2586 1568 Q 2739 2150 2784 2777 Q 2829 3405 2842 3981 L 454 3981 L 454 4454 L 3392 4454 Q 3386 4134 3373 3750 Q 3360 3366 3331 2976 Q 3302 2586 3254 2221 Q 3206 1856 3130 1568 z M 5696 2208 L 4768 2208 L 4768 -851 L 4237 -851 L 4237 4992 L 4768 4992 L 4768 2682 L 5696 2682 L 5696 2208 z M 1274 454 L 70 454 L 70 928 L 1414 928 L 1414 2842 L 1952 2842 L 1952 934 Q 2419 947 2912 972 Q 3405 998 3949 1069 L 3949 627 Q 3642 582 3296 550 Q 2950 518 2598 496 Q 2246 474 1907 464 Q 1568 454 1274 454 z " transform="scale(0.01)"/><path id="NanumBarunGothic-c5f0" d="M 3002 4250 L 4448 4250 L 4448 4992 L 4998 4992 L 4998 768 L 4448 768 L 4448 2234 L 2970 2234 Q 2765 2022 2483 1904 Q 2202 1786 1856 1786 Q 1530 1786 1254 1898 Q 979 2010 774 2205 Q 570 2400 454 2669 Q 339 2938 339 3251 Q 339 3571 454 3846 Q 570 4122 774 4320 Q 979 4518 1254 4630 Q 1530 4742 1856 4742 Q 2214 4742 2505 4611 Q 2797 4480 3002 4250 z M 3258 2688 L 4454 2688 L 4454 3802 L 3270 3802 Q 3366 3552 3366 3251 Q 3366 2957 3258 2688 z M 5126 -736 L 1350 -736 L 1350 1075 L 1907 1075 L 1907 -256 L 5126 -256 L 5126 -736 z M 928 3251 Q 928 3040 995 2857 Q 1062 2675 1187 2547 Q 1312 2419 1485 2345 Q 1658 2272 1869 2272 Q 2080 2272 2253 2345 Q 2426 2419 2550 2547 Q 2675 2675 2745 2857 Q 2816 3040 2816 3251 Q 2816 3475 2745 3660 Q 2675 3846 2550 3980 Q 2426 4115 2253 4188 Q 2080 4262 1869 4262 Q 1658 4262 1485 4188 Q 1312 4115 1187 3980 Q 1062 3846 995 3660 Q 928 3475 928 3251 z " transform="scale(0.01)"/><path id="NanumBarunGothic-c2b5" d="M 3098 4358 Q 3232 4173 3465 4003 Q 3699 3834 3984 3699 Q 4269 3565 4582 3465 Q 4896 3366 5190 3328 L 4902 2893 Q 4589 2950 4294 3059 Q 4000 3168 3734 3309 Q 3469 3450 3235 3616 Q 3002 3782 2822 3962 Q 2637 3757 2400 3574 Q 2163 3392 1894 3248 Q 1626 3104 1341 2998 Q 1056 2893 781 2848 L 499 3270 Q 954 3347 1350 3513 Q 1747 3680 2041 3910 Q 2336 4141 2502 4419 Q 2669 4698 2662 4992 L 3251 4992 Q 3264 4826 3222 4669 Q 3181 4512 3098 4358 z M 5638 2470 L 5638 1997 L 70 1997 L 70 2470 L 5638 2470 z M 1005 -762 L 1005 1542 L 1555 1542 L 1555 845 L 4218 845 L 4218 1542 L 4768 1542 L 4768 -762 L 1005 -762 z M 4224 390 L 1549 390 L 1549 -288 L 4224 -288 L 4224 390 z " transform="scale(0.01)"/><path id="NanumBarunGothic-c9c4" d="M 4448 4992 L 4998 4992 L 4998 640 L 4448 640 L 4448 4992 z M 5126 -736 L 1414 -736 L 1414 890 L 1971 890 L 1971 -256 L 5126 -256 L 5126 -736 z M 2598 3053 Q 2726 2899 2886 2755 Q 3046 2611 3219 2480 Q 3392 2349 3571 2240 Q 3750 2131 3917 2048 L 3565 1638 Q 3226 1824 2893 2089 Q 2560 2355 2285 2669 Q 1914 2272 1453 1968 Q 992 1664 486 1434 L 134 1843 Q 653 2054 1065 2329 Q 1478 2605 1779 2909 Q 2080 3213 2265 3536 Q 2451 3859 2522 4173 Q 2163 4160 1814 4157 Q 1466 4154 1114 4154 L 563 4154 L 563 4627 L 1523 4627 Q 1933 4627 2349 4627 Q 2765 4627 3219 4640 Q 3162 4179 3002 3785 Q 2842 3392 2598 3053 z " transform="scale(0.01)"/><path id="NanumBarunGothic-d589" d="M 205 3757 L 205 4186 L 3085 4186 L 3085 3757 L 205 3757 z M 883 4512 L 883 4941 L 2509 4941 L 2509 4512 L 883 4512 z M 1702 1523 Q 1382 1523 1148 1603 Q 915 1683 761 1820 Q 608 1958 534 2140 Q 461 2323 461 2522 Q 461 2714 534 2890 Q 608 3066 761 3203 Q 915 3341 1148 3421 Q 1382 3501 1702 3501 Q 2022 3501 2256 3421 Q 2490 3341 2643 3203 Q 2797 3066 2870 2890 Q 2944 2714 2944 2522 Q 2944 2323 2870 2140 Q 2797 1958 2643 1820 Q 2490 1683 2256 1603 Q 2022 1523 1702 1523 z M 1696 1946 Q 1894 1946 2035 1994 Q 2176 2042 2265 2122 Q 2355 2202 2396 2307 Q 2438 2413 2438 2522 Q 2438 2624 2396 2726 Q 2355 2829 2268 2912 Q 2182 2995 2038 3043 Q 1894 3091 1696 3091 Q 1498 3091 1360 3043 Q 1222 2995 1136 2912 Q 1050 2829 1008 2726 Q 966 2624 966 2522 Q 966 2413 1008 2307 Q 1050 2202 1136 2122 Q 1222 2042 1363 1994 Q 1504 1946 1696 1946 z M 5146 1286 L 4614 1286 L 4614 2925 L 3981 2925 L 3981 1530 L 3456 1530 L 3456 4928 L 3981 4928 L 3981 3386 L 4614 3386 L 4614 4992 L 5146 4992 L 5146 1286 z M 5184 160 Q 5184 -70 5056 -262 Q 4928 -454 4675 -598 Q 4422 -742 4044 -822 Q 3667 -902 3168 -902 Q 2669 -902 2291 -822 Q 1914 -742 1664 -598 Q 1414 -454 1286 -262 Q 1158 -70 1158 160 Q 1158 384 1286 576 Q 1414 768 1664 905 Q 1914 1043 2291 1120 Q 2669 1197 3168 1197 Q 3667 1197 4044 1120 Q 4422 1043 4675 905 Q 4928 768 5056 579 Q 5184 390 5184 160 z M 4608 154 Q 4608 416 4259 582 Q 3910 749 3162 749 Q 2432 749 2080 582 Q 1728 416 1728 154 Q 1728 -109 2080 -281 Q 2432 -454 3162 -454 Q 3910 -454 4259 -281 Q 4608 -109 4608 154 z " transform="scale(0.01)"/><path id="NanumBarunGothic-c758" d="M 3622 3162 Q 3622 2848 3516 2576 Q 3411 2304 3216 2105 Q 3021 1907 2739 1795 Q 2458 1683 2112 1683 Q 1766 1683 1484 1795 Q 1203 1907 1008 2105 Q 813 2304 707 2576 Q 602 2848 602 3162 Q 602 3475 707 3747 Q 813 4019 1008 4217 Q 1203 4416 1484 4528 Q 1766 4640 2112 4640 Q 2458 4640 2739 4528 Q 3021 4416 3216 4217 Q 3411 4019 3516 3747 Q 3622 3475 3622 3162 z M 3053 3162 Q 3053 3622 2800 3891 Q 2547 4160 2112 4160 Q 1677 4160 1424 3891 Q 1171 3622 1171 3162 Q 1171 2701 1424 2432 Q 1677 2163 2112 2163 Q 2547 2163 2800 2432 Q 3053 2701 3053 3162 z M 5152 -851 L 4621 -851 L 4621 4992 L 5152 4992 L 5152 -851 z M 218 858 L 1389 858 Q 1709 858 2093 867 Q 2477 877 2870 896 Q 3264 915 3638 947 Q 4013 979 4320 1018 L 4320 557 Q 4013 512 3645 480 Q 3277 448 2889 425 Q 2502 403 2118 390 Q 1734 378 1395 378 L 218 378 L 218 858 z " transform="scale(0.01)"/><path id="NanumBarunGothic-ce21" d="M 1696 5069 L 3770 5069 L 3770 4602 L 1696 4602 L 1696 5069 z M 941 4262 L 2720 4262 Q 3123 4262 3523 4262 Q 3923 4262 4365 4275 Q 4435 4269 4464 4208 Q 4493 4147 4461 4096 Q 4333 3853 4077 3622 Q 3821 3392 3475 3194 Q 3853 3053 4275 2944 Q 4698 2835 5158 2765 L 4896 2342 Q 4403 2426 3913 2579 Q 3424 2733 2982 2938 Q 2464 2694 1881 2531 Q 1299 2368 781 2323 L 550 2739 Q 1030 2784 1488 2893 Q 1946 3002 2349 3149 Q 2752 3296 3078 3472 Q 3405 3648 3629 3834 Q 3270 3821 2918 3814 Q 2566 3808 2214 3808 L 941 3808 L 941 4262 z M 5638 1997 L 5638 1523 L 70 1523 L 70 1997 L 5638 1997 z M 4186 -870 L 4186 467 L 877 467 L 877 941 L 4736 941 L 4736 -870 L 4186 -870 z " transform="scale(0.01)"/><path id="NanumBarunGothic-c815" d="M 3418 3117 L 3418 3603 L 4448 3603 L 4448 4992 L 4998 4992 L 4998 1421 L 4448 1421 L 4448 3117 L 3418 3117 z M 5050 230 Q 5050 -13 4928 -221 Q 4806 -429 4563 -579 Q 4320 -730 3955 -816 Q 3590 -902 3110 -902 Q 2630 -902 2268 -816 Q 1907 -730 1664 -576 Q 1421 -422 1299 -214 Q 1178 -6 1178 237 Q 1178 480 1299 688 Q 1421 896 1664 1049 Q 1907 1203 2268 1289 Q 2630 1376 3110 1376 Q 3590 1376 3955 1289 Q 4320 1203 4563 1049 Q 4806 896 4928 685 Q 5050 474 5050 230 z M 4474 230 Q 4474 365 4394 486 Q 4314 608 4144 704 Q 3974 800 3715 857 Q 3456 915 3104 915 Q 2758 915 2502 857 Q 2246 800 2076 704 Q 1907 608 1827 486 Q 1747 365 1747 230 Q 1747 102 1827 -19 Q 1907 -141 2076 -233 Q 2246 -326 2502 -380 Q 2758 -435 3104 -435 Q 3456 -435 3715 -380 Q 3974 -326 4144 -233 Q 4314 -141 4394 -19 Q 4474 102 4474 230 z M 2547 3194 Q 2669 3040 2835 2896 Q 3002 2752 3181 2624 Q 3360 2496 3549 2390 Q 3738 2285 3910 2202 L 3571 1798 Q 3206 1984 2857 2246 Q 2509 2509 2221 2822 Q 1824 2419 1363 2128 Q 902 1837 499 1690 L 134 2086 Q 557 2234 950 2470 Q 1344 2707 1664 2998 Q 1984 3290 2208 3619 Q 2432 3949 2522 4275 Q 2189 4262 1843 4259 Q 1498 4256 1152 4256 L 557 4256 L 557 4730 L 1542 4730 Q 1946 4730 2355 4730 Q 2765 4730 3213 4742 Q 3168 4307 2992 3920 Q 2816 3533 2547 3194 z " transform="scale(0.01)"/><path id="NanumBarunGothic-ce58" d="M 4448 4992 L 4998 4992 L 4998 -851 L 4448 -851 L 4448 4992 z M 1062 4301 L 1062 4787 L 2874 4787 L 2874 4301 L 1062 4301 z M 2682 2144 Q 2950 1747 3286 1443 Q 3622 1139 3994 877 L 3590 454 Q 3238 736 2928 1040 Q 2618 1344 2362 1709 Q 1984 1248 1526 889 Q 1069 531 589 275 L 211 666 Q 653 877 1056 1184 Q 1459 1491 1782 1849 Q 2106 2208 2330 2595 Q 2554 2982 2630 3347 Q 2272 3334 1920 3331 Q 1568 3328 1210 3328 L 525 3328 L 525 3802 L 1574 3802 Q 1990 3802 2409 3802 Q 2829 3802 3283 3814 Q 3238 3354 3081 2938 Q 2925 2522 2682 2144 z " transform="scale(0.01)"/><path id="NanumBarunGothic-2e" d="M 832 531 Q 1024 531 1145 409 Q 1267 288 1267 102 Q 1267 -83 1145 -204 Q 1024 -326 832 -326 Q 640 -326 518 -204 Q 397 -83 397 102 Q 397 288 518 409 Q 640 531 832 531 z " transform="scale(0.01)"/><path id="NanumBarunGothic-bcf5" d="M 4134 3795 L 1568 3795 L 1568 3104 L 4134 3104 L 4134 3795 z M 998 2630 L 998 4947 L 1581 4947 L 1581 4262 L 4134 4262 L 4134 4947 L 4704 4947 L 4704 2630 L 3130 2630 L 3130 1952 L 5638 1952 L 5638 1478 L 70 1478 L 70 1952 L 2560 1952 L 2560 2630 L 998 2630 z M 4186 -870 L 4186 461 L 877 461 L 877 934 L 4736 934 L 4736 -870 L 4186 -870 z " transform="scale(0.01)"/><path id="NanumBarunGothic-c591" d="M 4723 4269 L 5619 4269 L 5619 3795 L 4717 3795 L 4717 2982 L 5619 2982 L 5619 2509 L 4723 2509 L 4723 1632 L 4173 1632 L 4173 4992 L 4723 4992 L 4723 4269 z M 4813 314 Q 4813 51 4694 -169 Q 4576 -390 4336 -553 Q 4096 -717 3741 -809 Q 3386 -902 2918 -902 Q 2445 -902 2093 -809 Q 1741 -717 1501 -553 Q 1261 -390 1142 -166 Q 1024 58 1024 320 Q 1024 582 1142 803 Q 1261 1024 1501 1187 Q 1741 1350 2093 1443 Q 2445 1536 2918 1536 Q 3386 1536 3741 1443 Q 4096 1350 4336 1187 Q 4576 1024 4694 800 Q 4813 576 4813 314 z M 4237 320 Q 4237 467 4160 601 Q 4083 736 3920 841 Q 3757 947 3510 1008 Q 3264 1069 2918 1069 Q 2579 1069 2329 1008 Q 2080 947 1917 841 Q 1754 736 1674 601 Q 1594 467 1594 320 Q 1594 173 1674 35 Q 1754 -102 1917 -204 Q 2080 -307 2329 -368 Q 2579 -429 2918 -429 Q 3264 -429 3510 -368 Q 3757 -307 3920 -204 Q 4083 -102 4160 35 Q 4237 173 4237 320 z M 243 3405 Q 243 3712 355 3977 Q 467 4243 665 4438 Q 864 4634 1133 4746 Q 1402 4858 1722 4858 Q 2035 4858 2307 4746 Q 2579 4634 2780 4438 Q 2982 4243 3094 3977 Q 3206 3712 3206 3405 Q 3206 3091 3094 2825 Q 2982 2560 2780 2365 Q 2579 2170 2307 2061 Q 2035 1952 1722 1952 Q 1402 1952 1133 2061 Q 864 2170 665 2365 Q 467 2560 355 2825 Q 243 3091 243 3405 z M 781 3405 Q 781 3194 848 3018 Q 915 2842 1040 2710 Q 1165 2579 1337 2505 Q 1510 2432 1722 2432 Q 1926 2432 2102 2505 Q 2278 2579 2403 2710 Q 2528 2842 2598 3018 Q 2669 3194 2669 3405 Q 2669 3610 2598 3789 Q 2528 3968 2403 4099 Q 2278 4230 2102 4304 Q 1926 4378 1722 4378 Q 1517 4378 1344 4304 Q 1171 4230 1046 4099 Q 922 3968 851 3789 Q 781 3610 781 3405 z " transform="scale(0.01)"/><path id="NanumBarunGothic-c0c1" d="M 2208 4845 Q 2214 4557 2182 4291 Q 2150 4026 2086 3782 Q 2355 3277 2729 2909 Q 3104 2541 3642 2272 L 3302 1882 Q 2842 2118 2483 2457 Q 2125 2797 1875 3213 Q 1645 2726 1277 2352 Q 909 1978 429 1709 L 51 2074 Q 877 2541 1283 3213 Q 1690 3885 1638 4845 L 2208 4845 z M 5645 3008 L 4723 3008 L 4723 1446 L 4173 1446 L 4173 4992 L 4723 4992 L 4723 3494 L 5645 3494 L 5645 3008 z M 4787 250 Q 4787 0 4668 -211 Q 4550 -422 4310 -576 Q 4070 -730 3715 -816 Q 3360 -902 2893 -902 Q 2419 -902 2067 -816 Q 1715 -730 1475 -576 Q 1235 -422 1116 -211 Q 998 0 998 250 Q 998 749 1472 1062 Q 1946 1376 2893 1376 Q 3840 1376 4313 1062 Q 4787 749 4787 250 z M 4211 237 Q 4211 378 4134 499 Q 4058 621 3894 710 Q 3731 800 3484 851 Q 3238 902 2893 902 Q 2214 902 1891 710 Q 1568 518 1568 237 Q 1568 -45 1891 -237 Q 2214 -429 2893 -429 Q 3578 -429 3894 -237 Q 4211 -45 4211 237 z " transform="scale(0.01)"/><path id="NanumBarunGothic-c744" d="M 4800 3968 Q 4800 3507 4317 3219 Q 3834 2931 2861 2931 Q 1888 2931 1405 3219 Q 922 3507 922 3968 Q 922 4192 1043 4387 Q 1165 4582 1408 4726 Q 1651 4870 2016 4950 Q 2381 5030 2861 5030 Q 3341 5030 3705 4950 Q 4070 4870 4313 4726 Q 4557 4582 4678 4390 Q 4800 4198 4800 3968 z M 4198 3942 Q 4198 4064 4118 4182 Q 4038 4301 3875 4387 Q 3712 4474 3459 4528 Q 3206 4582 2861 4582 Q 2509 4582 2253 4528 Q 1997 4474 1833 4387 Q 1670 4301 1593 4182 Q 1517 4064 1517 3942 Q 1517 3827 1593 3724 Q 1670 3622 1833 3545 Q 1997 3469 2253 3421 Q 2509 3373 2861 3373 Q 3206 3373 3459 3421 Q 3712 3469 3875 3545 Q 4038 3622 4118 3724 Q 4198 3827 4198 3942 z M 5638 2554 L 5638 2099 L 70 2099 L 70 2554 L 5638 2554 z M 966 -851 L 966 595 L 4198 595 L 4198 1139 L 966 1139 L 966 1594 L 4742 1594 L 4742 160 L 1510 160 L 1510 -397 L 4896 -397 L 4896 -851 L 966 -851 z " transform="scale(0.01)"/><path id="NanumBarunGothic-bcf4" d="M 4173 3200 L 1542 3200 L 1542 2131 L 4173 2131 L 4173 3200 z M 992 1677 L 992 4666 L 1549 4666 L 1549 3667 L 4166 3667 L 4166 4666 L 4723 4666 L 4723 1677 L 3142 1677 L 3142 486 L 5574 486 L 5574 19 L 134 19 L 134 486 L 2566 486 L 2566 1677 L 992 1677 z " transform="scale(0.01)"/><path id="NanumBarunGothic-c704" d="M 3635 3475 Q 3635 3206 3529 2976 Q 3424 2746 3232 2579 Q 3040 2413 2765 2317 Q 2490 2221 2144 2221 Q 1798 2221 1523 2317 Q 1248 2413 1056 2579 Q 864 2746 758 2976 Q 653 3206 653 3475 Q 653 3744 758 3974 Q 864 4205 1056 4371 Q 1248 4538 1523 4634 Q 1798 4730 2144 4730 Q 2490 4730 2765 4634 Q 3040 4538 3232 4371 Q 3424 4205 3529 3974 Q 3635 3744 3635 3475 z M 5152 -851 L 4602 -851 L 4602 4992 L 5152 4992 L 5152 -851 z M 2515 -723 L 1952 -723 L 1952 1178 Q 1798 1171 1651 1171 Q 1504 1171 1363 1171 L 230 1171 L 230 1651 L 1357 1651 Q 1677 1651 2061 1660 Q 2445 1670 2838 1689 Q 3232 1709 3606 1741 Q 3981 1773 4288 1811 L 4288 1350 Q 3910 1299 3452 1260 Q 2995 1222 2515 1197 L 2515 -723 z M 3091 3475 Q 3091 3821 2838 4041 Q 2586 4262 2144 4262 Q 1702 4262 1449 4041 Q 1197 3821 1197 3475 Q 1197 3123 1449 2905 Q 1702 2688 2144 2688 Q 2586 2688 2838 2905 Q 3091 3123 3091 3475 z " transform="scale(0.01)"/><path id="NanumBarunGothic-ac1c" d="M 2144 4038 Q 1818 4026 1494 4022 Q 1171 4019 845 4019 L 429 4019 L 429 4480 L 1203 4480 Q 1581 4480 1961 4480 Q 2342 4480 2726 4493 Q 2688 3194 2157 2163 Q 1626 1133 544 416 L 147 787 Q 1114 1395 1603 2230 Q 2093 3066 2144 4038 z M 5094 -851 L 4544 -851 L 4544 2330 L 3808 2330 L 3808 -704 L 3270 -704 L 3270 4928 L 3808 4928 L 3808 2803 L 4544 2803 L 4544 4992 L 5094 4992 L 5094 -851 z " transform="scale(0.01)"/><path id="NanumBarunGothic-b150" d="M 1766 1939 L 544 1939 L 544 4800 L 1114 4800 L 1114 2413 L 1843 2413 Q 2490 2413 3027 2496 Q 3565 2579 3904 2656 L 3904 2195 Q 3718 2144 3468 2099 Q 3219 2054 2937 2019 Q 2656 1984 2355 1961 Q 2054 1939 1766 1939 z M 2803 3923 L 2803 4358 L 4448 4358 L 4448 4992 L 4998 4992 L 4998 1664 L 4448 1664 L 4448 2976 L 2803 2976 L 2803 3418 L 4454 3418 L 4454 3923 L 2803 3923 z M 4998 -762 L 1350 -762 L 1350 1331 L 4998 1331 L 4998 -762 z M 4448 845 L 1901 845 L 1901 -282 L 4448 -282 L 4448 845 z " transform="scale(0.01)"/></defs><use xlink:href="#NanumBarunGothic-35"/><use xlink:href="#NanumBarunGothic-30" transform="translate(58.29 0)"/><use xlink:href="#NanumBarunGothic-30" transform="translate(116.59 0)"/><use xlink:href="#NanumBarunGothic-20" transform="translate(174.89 0)"/><use xlink:href="#NanumBarunGothic-b7" transform="translate(197.29 0)"/><use xlink:href="#NanumBarunGothic-20" transform="translate(241.89 0)"/><use xlink:href="#NanumBarunGothic-31" transform="translate(264.29 0)"/><use xlink:href="#NanumBarunGothic-2c" transform="translate(322.59 0)"/><use xlink:href="#NanumBarunGothic-30" transform="translate(352.29 0)"/><use xlink:href="#NanumBarunGothic-30" transform="translate(410.59 0)"/><use xlink:href="#NanumBarunGothic-30" transform="translate(468.89 0)"/><use xlink:href="#NanumBarunGothic-20" transform="translate(527.19 0)"/><use xlink:href="#NanumBarunGothic-b7" transform="translate(549.59 0)"/><use xlink:href="#NanumBarunGothic-20" transform="translate(594.19 0)"/><use xlink:href="#NanumBarunGothic-32" transform="translate(616.59 0)"/><use xlink:href="#NanumBarunGothic-2c" transform="translate(674.89 0)"/><use xlink:href="#NanumBarunGothic-30" transform="translate(704.59 0)"/><use xlink:href="#NanumBarunGothic-30" transform="translate(762.89 0)"/><use xlink:href="#NanumBarunGothic-30" transform="translate(821.19 0)"/><use xlink:href="#NanumBarunGothic-20" transform="translate(879.49 0)"/><use xlink:href="#NanumBarunGothic-b7" transform="translate(901.89 0)"/><use xlink:href="#NanumBarunGothic-20" transform="translate(946.49 0)"/><use xlink:href="#NanumBarunGothic-34" transform="translate(968.89 0)"/><use xlink:href="#NanumBarunGothic-2c" transform="translate(1027.19 0)"/><use xlink:href="#NanumBarunGothic-30" transform="translate(1056.89 0)"/><use xlink:href="#NanumBarunGothic-30" transform="translate(1115.19 0)"/><use xlink:href="#NanumBarunGothic-30" transform="translate(1173.49 0)"/><use xlink:href="#NanumBarunGothic-20" transform="translate(1231.79 0)"/><use xlink:href="#NanumBarunGothic-48" transform="translate(1254.19 0)"/><use xlink:href="#NanumBarunGothic-7a" transform="translate(1325.99 0)"/><use xlink:href="#NanumBarunGothic-20" transform="translate(1373.29 0)"/><use xlink:href="#NanumBarunGothic-ac12" transform="translate(1395.69 0)"/><use xlink:href="#NanumBarunGothic-c740" transform="translate(1484.89 0)"/><use xlink:href="#NanumBarunGothic-20" transform="translate(1574.09 0)"/><use xlink:href="#NanumBarunGothic-bcf8" transform="translate(1596.49 0)"/><use xlink:href="#NanumBarunGothic-bb38" transform="translate(1685.69 0)"/><use xlink:href="#NanumBarunGothic-20" transform="translate(1774.89 0)"/><use xlink:href="#NanumBarunGothic-c608" transform="translate(1797.29 0)"/><use xlink:href="#NanumBarunGothic-c81c" transform="translate(1886.49 0)"/><use xlink:href="#NanumBarunGothic-20" transform="translate(1975.69 0)"/><use xlink:href="#NanumBarunGothic-36" transform="translate(1998.09 0)"/><use xlink:href="#NanumBarunGothic-28" transform="translate(2056.39 0)"/><use xlink:href="#NanumBarunGothic-cd08" transform="translate(2100.99 0)"/><use xlink:href="#NanumBarunGothic-ae30" transform="translate(2190.19 0)"/><use xlink:href="#NanumBarunGothic-29" transform="translate(2279.39 0)"/><use xlink:href="#NanumBarunGothic-acfc" transform="translate(2323.99 0)"/><use xlink:href="#NanumBarunGothic-20" transform="translate(2413.19 0)"/><use xlink:href="#NanumBarunGothic-c5f0" transform="translate(2435.59 0)"/><use xlink:href="#NanumBarunGothic-c2b5" transform="translate(2524.79 0)"/><use xlink:href="#NanumBarunGothic-bb38" transform="translate(2613.99 0)"/><use xlink:href="#NanumBarunGothic-c81c" transform="translate(2703.19 0)"/><use xlink:href="#NanumBarunGothic-20" transform="translate(2792.39 0)"/><use xlink:href="#NanumBarunGothic-34" transform="translate(2814.79 0)"/><use xlink:href="#NanumBarunGothic-28" transform="translate(2873.09 0)"/><use xlink:href="#NanumBarunGothic-c9c4" transform="translate(2917.69 0)"/><use xlink:href="#NanumBarunGothic-d589" transform="translate(3006.89 0)"/><use xlink:href="#NanumBarunGothic-29" transform="translate(3096.09 0)"/><use xlink:href="#NanumBarunGothic-c758" transform="translate(3140.69 0)"/><use xlink:href="#NanumBarunGothic-20" transform="translate(3229.89 0)"/><use xlink:href="#NanumBarunGothic-ce21" transform="translate(3252.29 0)"/><use xlink:href="#NanumBarunGothic-c815" transform="translate(3341.49 0)"/><use xlink:href="#NanumBarunGothic-ce58" transform="translate(3430.69 0)"/><use xlink:href="#NanumBarunGothic-2e" transform="translate(3519.89 0)"/><use xlink:href="#NanumBarunGothic-20" transform="translate(3549.59 0)"/><use xlink:href="#NanumBarunGothic-38" transform="translate(3571.99 0)"/><use xlink:href="#NanumBarunGothic-2c" transform="translate(3630.29 0)"/><use xlink:href="#NanumBarunGothic-30" transform="translate(3659.99 0)"/><use xlink:href="#NanumBarunGothic-30" transform="translate(3718.29 0)"/><use xlink:href="#NanumBarunGothic-30" transform="translate(3776.59 0)"/><use xlink:href="#NanumBarunGothic-20" transform="translate(3834.89 0)"/><use xlink:href="#NanumBarunGothic-48" transform="translate(3857.29 0)"/><use xlink:href="#NanumBarunGothic-7a" transform="translate(3929.09 0)"/><use xlink:href="#NanumBarunGothic-b294" transform="translate(3976.39 0)"/><use xlink:href="#NanumBarunGothic-20" transform="translate(4065.59 0)"/><use xlink:href="#NanumBarunGothic-d68c" transform="translate(4087.99 0)"/><use xlink:href="#NanumBarunGothic-bcf5" transform="translate(4177.19 0)"/><use xlink:href="#NanumBarunGothic-20" transform="translate(4266.39 0)"/><use xlink:href="#NanumBarunGothic-c591" transform="translate(4288.79 0)"/><use xlink:href="#NanumBarunGothic-c0c1" transform="translate(4377.99 0)"/><use xlink:href="#NanumBarunGothic-c744" transform="translate(4467.19 0)"/><use xlink:href="#NanumBarunGothic-20" transform="translate(4556.39 0)"/><use xlink:href="#NanumBarunGothic-bcf4" transform="translate(4578.79 0)"/><use xlink:href="#NanumBarunGothic-c774" transform="translate(4667.99 0)"/><use xlink:href="#NanumBarunGothic-ae30" transform="translate(4757.19 0)"/><use xlink:href="#NanumBarunGothic-20" transform="translate(4846.39 0)"/><use xlink:href="#NanumBarunGothic-c704" transform="translate(4868.79 0)"/><use xlink:href="#NanumBarunGothic-d55c" transform="translate(4957.99 0)"/><use xlink:href="#NanumBarunGothic-20" transform="translate(5047.19 0)"/><use xlink:href="#NanumBarunGothic-ac1c" transform="translate(5069.59 0)"/><use xlink:href="#NanumBarunGothic-b150" transform="translate(5158.79 0)"/><use xlink:href="#NanumBarunGothic-ac12" transform="translate(5247.99 0)"/></g></g><g id="legend_1"><g id="line2d_24"><path d="M 34.22 241.80 L 43.52 241.80 L 52.82 241.80 " style="fill: none; stroke: #3f7a5e; stroke-width: 1.9; stroke-linecap: round"/><g><use xlink:href="#m8e739f9df1" x="43.52" y="241.80" style="fill: #3f7a5e; stroke: #3f7a5e"/></g></g><g id="text_18"><g style="fill: #1c2b36" transform="translate(60.26 245.06) scale(0.09 -0.09)"><defs><path id="NanumBarunGothic-c900" d="M 3514 3552 Q 3904 3322 4358 3152 Q 4813 2982 5274 2874 L 4986 2413 Q 4762 2470 4512 2560 Q 4262 2650 4016 2762 Q 3770 2874 3536 3002 Q 3302 3130 3104 3270 Q 2566 2938 1964 2717 Q 1363 2496 781 2426 L 518 2867 Q 1037 2938 1517 3091 Q 1997 3245 2406 3449 Q 2816 3654 3136 3891 Q 3456 4128 3661 4371 Q 3322 4358 2992 4358 Q 2662 4358 2317 4358 L 966 4358 L 966 4819 L 2778 4819 Q 3181 4819 3587 4819 Q 3994 4819 4435 4832 Q 4512 4838 4537 4784 Q 4563 4730 4531 4672 Q 4365 4365 4105 4083 Q 3846 3802 3514 3552 z M 3264 358 L 2694 358 L 2694 1600 L 70 1600 L 70 2074 L 5638 2074 L 5638 1600 L 3264 1600 L 3264 358 z M 4915 -762 L 979 -762 L 979 979 L 1530 979 L 1530 -282 L 4915 -282 L 4915 -762 z " transform="scale(0.01)"/><path id="NanumBarunGothic-c120" d="M 3258 3200 L 3258 3686 L 4448 3686 L 4448 4992 L 4998 4992 L 4998 768 L 4448 768 L 4448 3200 L 3258 3200 z M 518 1587 L 128 1946 Q 1850 2931 1747 4851 L 2323 4851 Q 2330 4269 2195 3750 Q 2490 3187 2874 2816 Q 3258 2445 3795 2157 L 3443 1760 Q 2976 2016 2605 2371 Q 2234 2726 1984 3155 Q 1747 2650 1376 2256 Q 1005 1862 518 1587 z M 5126 -736 L 1414 -736 L 1414 1056 L 1971 1056 L 1971 -256 L 5126 -256 L 5126 -736 z " transform="scale(0.01)"/></defs><use xlink:href="#NanumBarunGothic-c815"/><use xlink:href="#NanumBarunGothic-c0c1" transform="translate(89.19 0)"/><use xlink:href="#NanumBarunGothic-20" transform="translate(178.39 0)"/><use xlink:href="#NanumBarunGothic-28" transform="translate(200.79 0)"/><use xlink:href="#NanumBarunGothic-ae30" transform="translate(245.39 0)"/><use xlink:href="#NanumBarunGothic-c900" transform="translate(334.59 0)"/><use xlink:href="#NanumBarunGothic-c120" transform="translate(423.79 0)"/><use xlink:href="#NanumBarunGothic-29" transform="translate(512.99 0)"/></g></g><g id="line2d_25"><path d="M 34.22 256.29 L 43.52 256.29 L 52.82 256.29 " style="fill: none; stroke: #17638f; stroke-width: 1.9; stroke-linecap: round"/><g><use xlink:href="#m23eab50bcd" x="43.52" y="256.29" style="fill: #17638f; stroke: #17638f"/></g></g><g id="text_19"><g style="fill: #1c2b36" transform="translate(60.26 259.55) scale(0.09 -0.09)"><defs><path id="NanumBarunGothic-6b" d="M 1747 1830 L 3437 -230 L 2726 -230 L 1370 1517 L 1363 1517 L 1030 1229 L 1030 -230 L 480 -230 L 480 4973 L 1030 4973 L 1030 1786 L 1037 1786 L 2554 3264 L 3232 3264 L 1747 1830 z " transform="scale(0.01)"/><path id="NanumBarunGothic-b9cc" d="M 3040 1869 L 390 1869 L 390 4685 L 3040 4685 L 3040 1869 z M 2502 2342 L 2502 4218 L 934 4218 L 934 2342 L 2502 2342 z M 5645 2880 L 4723 2880 L 4723 781 L 4173 781 L 4173 4986 L 4723 4986 L 4723 3366 L 5645 3366 L 5645 2880 z M 4851 -736 L 1203 -736 L 1203 1056 L 1760 1056 L 1760 -256 L 4851 -256 L 4851 -736 z " transform="scale(0.01)"/></defs><use xlink:href="#NanumBarunGothic-cd08"/><use xlink:href="#NanumBarunGothic-ae30" transform="translate(89.19 0)"/><use xlink:href="#NanumBarunGothic-20" transform="translate(178.39 0)"/><use xlink:href="#NanumBarunGothic-2014" transform="translate(200.79 0)"/><use xlink:href="#NanumBarunGothic-20" transform="translate(289.99 0)"/><use xlink:href="#NanumBarunGothic-34" transform="translate(312.39 0)"/><use xlink:href="#NanumBarunGothic-20" transform="translate(370.69 0)"/><use xlink:href="#NanumBarunGothic-6b" transform="translate(393.09 0)"/><use xlink:href="#NanumBarunGothic-48" transform="translate(446.09 0)"/><use xlink:href="#NanumBarunGothic-7a" transform="translate(517.89 0)"/><use xlink:href="#NanumBarunGothic-b9cc" transform="translate(565.19 0)"/><use xlink:href="#NanumBarunGothic-20" transform="translate(654.39 0)"/><use xlink:href="#NanumBarunGothic-d30c" transform="translate(676.79 0)"/><use xlink:href="#NanumBarunGothic-c778" transform="translate(765.99 0)"/><use xlink:href="#NanumBarunGothic-b2e4" transform="translate(855.19 0)"/></g></g><g id="line2d_26"><path d="M 34.22 270.78 L 43.52 270.78 L 52.82 270.78 " style="fill: none; stroke: #b4544e; stroke-width: 2.2; stroke-linecap: round"/><g><use xlink:href="#mf51a9427ca" x="43.52" y="270.78" style="fill: #b4544e; stroke: #b4544e"/></g></g><g id="text_20"><g style="fill: #1c2b36" transform="translate(60.26 274.04) scale(0.09 -0.09)"><defs><path id="NanumBarunGothic-ae4c" d="M 1664 550 Q 1997 947 2243 1350 Q 2490 1754 2650 2182 Q 2810 2611 2883 3068 Q 2957 3526 2950 4032 Q 2803 4019 2665 4019 Q 2528 4019 2381 4019 L 2061 4019 L 2061 4486 L 2541 4486 Q 2784 4486 3021 4486 Q 3258 4486 3501 4499 L 3501 4224 Q 3514 3123 3171 2121 Q 2829 1120 2131 301 L 1664 550 z M 486 896 L 38 1165 Q 698 1728 1008 2457 Q 1318 3187 1293 4032 Q 1107 4019 928 4019 Q 749 4019 570 4019 L 282 4019 L 282 4486 L 749 4486 Q 1018 4486 1283 4486 Q 1549 4486 1818 4499 L 1818 4250 Q 1818 3744 1747 3286 Q 1677 2829 1517 2413 Q 1357 1997 1104 1619 Q 851 1242 486 896 z M 5696 2138 L 4755 2138 L 4755 -851 L 4218 -851 L 4218 4992 L 4755 4992 L 4755 2624 L 5696 2624 L 5696 2138 z " transform="scale(0.01)"/><path id="NanumBarunGothic-ce68" d="M 2611 2867 Q 2886 2662 3219 2483 Q 3552 2304 3930 2157 L 3584 1754 Q 3238 1901 2896 2105 Q 2554 2310 2259 2554 Q 1875 2240 1433 2000 Q 992 1760 563 1613 L 211 1997 Q 666 2138 1050 2333 Q 1434 2528 1741 2752 Q 2048 2976 2265 3219 Q 2483 3462 2611 3699 Q 2253 3686 1904 3683 Q 1555 3680 1197 3680 L 525 3680 L 525 4122 L 1619 4122 Q 2035 4122 2457 4122 Q 2880 4122 3334 4134 Q 3283 3789 3091 3472 Q 2899 3155 2611 2867 z M 1088 4979 L 2829 4979 L 2829 4531 L 1088 4531 L 1088 4979 z M 4448 4992 L 4998 4992 L 4998 1600 L 4448 1600 L 4448 4992 z M 4998 -762 L 1350 -762 L 1350 1267 L 4998 1267 L 4998 -762 z M 4448 781 L 1901 781 L 1901 -282 L 4448 -282 L 4448 781 z " transform="scale(0.01)"/><path id="NanumBarunGothic-bc94" d="M 493 2054 L 493 4819 L 1050 4819 L 1050 3936 L 2675 3936 L 2675 4819 L 3226 4819 L 3226 3718 L 4448 3718 L 4448 4992 L 4998 4992 L 4998 1632 L 4448 1632 L 4448 3232 L 3226 3232 L 3226 2054 L 493 2054 z M 2675 3469 L 1050 3469 L 1050 2528 L 2675 2528 L 2675 3469 z M 4998 -762 L 1350 -762 L 1350 1299 L 4998 1299 L 4998 -762 z M 4448 813 L 1901 813 L 1901 -282 L 4448 -282 L 4448 813 z " transform="scale(0.01)"/></defs><use xlink:href="#NanumBarunGothic-c9c4"/><use xlink:href="#NanumBarunGothic-d589" transform="translate(89.19 0)"/><use xlink:href="#NanumBarunGothic-20" transform="translate(178.39 0)"/><use xlink:href="#NanumBarunGothic-2014" transform="translate(200.79 0)"/><use xlink:href="#NanumBarunGothic-20" transform="translate(289.99 0)"/><use xlink:href="#NanumBarunGothic-d68c" transform="translate(312.39 0)"/><use xlink:href="#NanumBarunGothic-d654" transform="translate(401.59 0)"/><use xlink:href="#NanumBarunGothic-c74c" transform="translate(490.79 0)"/><use xlink:href="#NanumBarunGothic-c5ed" transform="translate(579.99 0)"/><use xlink:href="#NanumBarunGothic-ae4c" transform="translate(669.19 0)"/><use xlink:href="#NanumBarunGothic-c9c0" transform="translate(758.39 0)"/><use xlink:href="#NanumBarunGothic-20" transform="translate(847.59 0)"/><use xlink:href="#NanumBarunGothic-ce68" transform="translate(869.99 0)"/><use xlink:href="#NanumBarunGothic-bc94" transform="translate(959.19 0)"/></g></g></g></g></g><defs><clipPath id="pc56096ba57"><rect x="25.85" y="30.00" width="412.92" height="255.02"/></clipPath></defs></svg>